<svg width="150" height="131" viewBox="0 0 150 131" fill="none" xmlns="http://www.w3.org/2000/svg">
<path d="M94.1982 41.8688C94.1982 41.8688 100.961 43.0092 101.506 43.1559C102.051 43.3027 104.194 44.3173 104.303 44.9714C104.359 45.83 104.359 46.6913 104.303 47.5499C104.303 47.5499 103.913 47.8644 103.674 47.2354C103.513 46.6242 103.444 45.9927 103.468 45.3613L102.269 44.9001L102.923 46.0615L103.032 48.7826C103.032 48.7826 102.194 48.7071 102.03 48.0572C101.927 47.6045 101.874 47.142 101.871 46.6778L100.999 45.9399L101.653 46.8246L101.871 48.7826C101.871 48.7826 101.234 48.9922 101.032 48.5561C100.885 47.9908 100.812 47.4088 100.814 46.8246L98.349 45.9609L96.718 46.8707L93.6699 45.1684L94.1982 41.8688Z" fill="#FFBE9D"/>
<path d="M70.5188 25.1522C70.5523 25.2864 78.6694 36.4726 78.6694 36.4726L94.9791 41.5457L94.237 47.6713L74.2503 43.6463L67.1562 35.504L70.5188 25.1522Z" fill="#3C8AFF"/>
<g opacity="0.2">
<path d="M70.5169 25.1526C70.5504 25.2868 78.6675 36.4729 78.6675 36.4729L94.9772 41.5461L94.2351 47.6717L74.2484 43.6467L67.1543 35.5044L70.5169 25.1526Z" fill="black"/>
</g>
<path d="M42.1083 40.5347H8.78463C8.07838 40.5347 7.50586 41.1072 7.50586 41.8134V45.7504C7.50586 46.4567 8.07838 47.0292 8.78463 47.0292H42.1083C42.8146 47.0292 43.3871 46.4567 43.3871 45.7504V41.8134C43.3871 41.1072 42.8146 40.5347 42.1083 40.5347Z" fill="#F5F5F5"/>
<path d="M42.1116 47.0287C42.1116 47.0287 42.1829 47.0287 42.3213 46.9994C42.5878 46.9503 42.8314 46.8165 43.0158 46.6178C43.2001 46.4191 43.3153 46.1662 43.3443 45.8967C43.3443 45.5026 43.3443 45.033 43.3443 44.5131C43.3443 43.9932 43.3443 43.4104 43.3443 42.7773C43.3443 42.4587 43.3443 42.1274 43.3443 41.7836C43.3388 41.6135 43.2987 41.4462 43.2267 41.292C43.1546 41.1378 43.052 40.9998 42.925 40.8864C42.7873 40.7699 42.6255 40.6855 42.4513 40.639C42.2655 40.5986 42.0747 40.5858 41.8852 40.6013H40.661H37.9986L8.81308 40.6348C8.64984 40.6346 8.48834 40.6684 8.3389 40.7341C8.18947 40.7998 8.05537 40.8959 7.94519 41.0164C7.83629 41.1383 7.75336 41.281 7.70146 41.436C7.64956 41.591 7.62977 41.7549 7.64331 41.9178C7.64331 42.6222 7.64331 43.3224 7.64331 44.0142V45.5864C7.63531 45.7469 7.64942 45.9078 7.68524 46.0644C7.74785 46.2911 7.87664 46.4939 8.05513 46.647C8.23363 46.8001 8.45374 46.8965 8.6873 46.9239C8.83405 46.9239 9.01433 46.9239 9.18204 46.9239H16.9302L30.0492 46.9491L38.8958 46.9826L41.3024 47.0036H41.9272H42.141H41.9272H41.3024L38.8958 47.0245L30.0492 47.0581L16.9302 47.0832H9.15269C8.98079 47.0832 8.82147 47.0832 8.6328 47.0832C8.45033 47.0613 8.2738 47.0043 8.11289 46.9155C7.95253 46.8265 7.81143 46.7065 7.69773 46.5626C7.58402 46.4186 7.49997 46.2536 7.45045 46.077C7.40528 45.9019 7.3883 45.7207 7.40014 45.5403V43.9848C7.40014 43.293 7.40014 42.5928 7.40014 41.8885C7.38894 41.6983 7.4154 41.5079 7.478 41.328C7.54059 41.1481 7.63809 40.9824 7.7649 40.8403C7.89464 40.6968 8.05319 40.5823 8.2302 40.5043C8.4072 40.4263 8.59869 40.3865 8.79212 40.3875L37.9776 40.421H41.8643C42.0654 40.4127 42.2669 40.4296 42.4638 40.4713C42.6557 40.5234 42.8334 40.618 42.9837 40.748C43.1255 40.8709 43.2401 41.022 43.3202 41.1916C43.4004 41.3613 43.4443 41.5458 43.4491 41.7333C43.4491 42.0771 43.4491 42.4126 43.4491 42.7312C43.4491 43.3643 43.4491 43.9429 43.4491 44.467C43.4491 44.9911 43.4491 45.4481 43.4282 45.859C43.3817 46.2067 43.1993 46.5218 42.9208 46.7352C42.7512 46.8624 42.5522 46.9446 42.3422 46.9742C42.2688 47.0046 42.1909 47.023 42.1116 47.0287Z" fill="#263238"/>
<path d="M132.594 130.017C142.051 129.563 149.35 121.528 148.895 112.071C148.441 102.613 140.406 95.3145 130.948 95.7688C121.491 96.223 114.192 104.258 114.647 113.716C115.101 123.173 123.136 130.472 132.594 130.017Z" fill="#263238"/>
<path d="M114.633 112.604C114.633 112.604 114.633 112.633 114.633 112.65C114.595 117.179 116.351 121.539 119.517 124.778C122.682 128.016 127.001 129.871 131.529 129.936C136.058 130.002 140.428 128.273 143.686 125.126C146.944 121.98 148.825 117.673 148.917 113.145C148.917 113.145 148.917 113.116 148.917 113.099L114.633 112.604Z" fill="#263238"/>
<path d="M119.736 112.721C119.701 115.102 120.373 117.439 121.667 119.438C122.961 121.436 124.818 123.006 127.005 123.949C129.191 124.892 131.607 125.166 133.949 124.735C136.29 124.304 138.452 123.189 140.159 121.53C141.867 119.871 143.044 117.743 143.543 115.415C144.041 113.087 143.837 110.663 142.958 108.451C142.079 106.238 140.563 104.336 138.603 102.985C136.642 101.634 134.325 100.894 131.945 100.86C128.753 100.814 125.674 102.038 123.384 104.262C121.094 106.487 119.782 109.529 119.736 112.721Z" fill="#FAFAFA"/>
<path d="M131.944 100.86C128.752 100.814 125.672 102.038 123.383 104.262C121.093 106.487 119.781 109.529 119.734 112.721L143.805 113.069C143.851 109.877 142.627 106.798 140.403 104.508C138.178 102.219 135.135 100.907 131.944 100.86Z" fill="#E0E0E0"/>
<path d="M124.44 112.788C124.419 114.239 124.828 115.663 125.616 116.881C126.404 118.098 127.535 119.055 128.867 119.63C130.199 120.204 131.671 120.371 133.098 120.109C134.524 119.847 135.841 119.168 136.882 118.157C137.922 117.146 138.64 115.85 138.943 114.432C139.247 113.013 139.123 111.537 138.587 110.189C138.052 108.841 137.128 107.682 135.934 106.859C134.74 106.036 133.328 105.585 131.878 105.564C129.934 105.536 128.058 106.282 126.663 107.636C125.269 108.991 124.469 110.844 124.44 112.788Z" fill="#263238"/>
<path d="M123.635 87.757C123.635 87.757 141.185 82.449 148.443 101.517L111.715 112.897L123.635 87.757Z" fill="#3C8AFF"/>
<path d="M26.8201 130.018C36.2776 129.564 43.5761 121.529 43.1219 112.072C42.6676 102.614 34.6325 95.3156 25.1751 95.7699C15.7176 96.2241 8.41904 104.259 8.87332 113.717C9.32759 123.174 17.3627 130.473 26.8201 130.018Z" fill="#263238"/>
<path d="M8.85607 112.604C8.85607 112.604 8.85607 112.633 8.85607 112.65C8.81803 117.179 10.5735 121.539 13.7392 124.778C16.9049 128.016 21.2236 129.871 25.7521 129.936C30.2806 130.002 34.651 128.273 37.9088 125.126C41.1667 121.98 43.0473 117.673 43.1399 113.145V113.09L8.85607 112.604Z" fill="#263238"/>
<path d="M13.9739 112.721C13.9393 115.102 14.6115 117.439 15.9053 119.438C17.1992 121.436 19.0566 123.006 21.2428 123.949C23.429 124.892 25.8456 125.166 28.1872 124.735C30.5287 124.304 32.69 123.189 34.3977 121.53C36.1053 119.871 37.2827 117.743 37.7808 115.415C38.279 113.087 38.0755 110.663 37.1962 108.451C36.3169 106.238 34.8013 104.336 32.841 102.985C30.8806 101.634 28.5637 100.894 26.1831 100.86C22.9912 100.814 19.9119 102.038 17.6222 104.262C15.3326 106.487 14.0203 109.529 13.9739 112.721Z" fill="#FAFAFA"/>
<path d="M26.1651 100.86C22.9761 100.818 19.901 102.044 17.615 104.268C15.329 106.492 14.019 109.532 13.9727 112.721L38.043 113.069C38.0658 111.487 37.7765 109.916 37.1917 108.446C36.6069 106.977 35.738 105.636 34.6349 104.502C33.5317 103.368 32.2159 102.463 30.7625 101.838C29.3092 101.213 27.7469 100.881 26.1651 100.86Z" fill="#E0E0E0"/>
<path d="M18.661 112.788C18.6395 114.239 19.0487 115.663 19.8367 116.881C20.6247 118.098 21.7561 119.055 23.0879 119.63C24.4196 120.204 25.8919 120.371 27.3185 120.109C28.7451 119.847 30.0618 119.168 31.1023 118.157C32.1428 117.146 32.8602 115.85 33.1638 114.432C33.4674 113.013 33.3436 111.537 32.808 110.189C32.2725 108.841 31.3492 107.682 30.1549 106.859C28.9607 106.036 27.5491 105.585 26.0988 105.564C24.1547 105.536 22.2789 106.282 20.8841 107.636C19.4893 108.991 18.6897 110.844 18.661 112.788Z" fill="#263238"/>
<path d="M50.3801 106.013C50.2837 106.063 41.3574 104.633 41.3574 104.633C40.8747 105.263 40.2604 105.78 39.5572 106.148C38.854 106.516 38.079 106.726 37.2862 106.763C33.4289 106.948 29.6597 107.12 26.3852 107.266C24.9221 107.332 23.5446 107.974 22.5544 109.053C21.5642 110.132 21.0421 111.56 21.1023 113.023C21.1612 114.412 21.7402 115.728 22.7242 116.71C23.7083 117.691 25.0256 118.267 26.4145 118.323L45.4201 119.073C48.5437 119.195 52.6945 117.3 54.6441 114.855L50.3801 106.013Z" fill="#455A64"/>
<path d="M3.73568 98.4156C3.73568 98.4156 2.9223 81.7076 18.624 78.2276V76.0852H73.6241V81.2254C73.6241 81.2254 65.5531 90.9483 68.1735 99.0193C70.794 107.09 71.6325 107.916 71.6325 107.916H102.935C105.406 104.445 106.782 100.314 106.889 96.0551C107.057 88.9694 104.114 76.8566 101.912 69.1127C99.925 62.0479 98.6672 56.1614 98.6672 56.1614L108.059 53.0294C108.059 53.0294 125.438 75.7749 126.146 77.0327C126.855 78.2905 129.27 81.2925 128.704 87.8248C128.138 94.357 112.503 114.507 108.403 116.78C104.302 119.052 100.596 119.195 96.902 119.761C93.6988 120.255 70.0016 119.928 63.8005 119.832C61.6457 119.818 59.5331 119.232 57.6792 118.134C55.826 117.01 54.434 115.149 52.8953 112.096L49.6124 105.707L3.73568 98.4156Z" fill="#3C8AFF"/>
<path d="M7.94551 97.2661L1.01915 108.117C0.81355 108.418 0.711474 108.777 0.728367 109.141C0.74526 109.505 0.880194 109.854 1.11277 110.134C1.34535 110.414 1.66293 110.611 2.01745 110.695C2.37198 110.779 2.74418 110.745 3.07778 110.599C3.9397 110.214 4.7273 109.68 5.40473 109.022C8.57023 106.008 14.2094 98.0669 14.2094 98.0669L7.94551 97.2661Z" fill="#455A64"/>
<path d="M57.6258 99.2202C57.6258 99.2202 57.6259 99.1657 57.6678 99.0609L57.8061 98.6039C57.9728 98.0172 58.0948 97.4187 58.1709 96.8136C58.403 94.5739 58.0324 92.3129 57.0976 90.2645C56.4689 88.8509 55.6056 87.5539 54.5442 86.4282C53.3253 85.1426 51.9101 84.0586 50.3515 83.2166C48.6241 82.2838 46.7757 81.5952 44.859 81.1705C42.7927 80.7248 40.6838 80.5069 38.57 80.5207C36.4656 80.536 34.3646 80.6914 32.2809 80.9861C30.2516 81.2586 28.3062 81.594 26.4698 82.0133C23.2095 82.7057 20.0671 83.868 17.141 85.4639C15.176 86.5543 13.3807 87.9258 11.812 89.535C11.2586 90.1052 10.8603 90.579 10.5961 90.9018L10.2985 91.275C10.2667 91.3194 10.2301 91.3601 10.1895 91.3966C10.6521 90.712 11.174 90.0694 11.7491 89.4763C13.3044 87.8365 15.0964 86.4388 17.0655 85.3297C19.9967 83.705 23.1514 82.5211 26.4279 81.8162C28.2643 81.3969 30.2013 81.049 32.2515 80.7722C34.3519 80.4749 36.4697 80.318 38.5909 80.3026C40.7163 80.2885 42.8367 80.5093 44.9135 80.9609C46.8491 81.4002 48.7145 82.1057 50.4563 83.0573C52.0368 83.9113 53.4706 85.0125 54.7035 86.3192C55.7725 87.4642 56.6388 88.7827 57.2653 90.2184C58.1964 92.2942 58.547 94.5836 58.2799 96.8429C58.1918 97.4506 58.0515 98.0496 57.8607 98.6332C57.7936 98.8261 57.7433 98.9728 57.7013 99.086C57.6801 99.1329 57.6549 99.1777 57.6258 99.2202Z" fill="#263238"/>
<path d="M54.4596 95.4805C54.4344 95.4805 54.5476 95.2164 54.665 94.7384C54.8221 94.0504 54.8435 93.3383 54.7279 92.642C54.5647 91.6185 54.2181 90.6328 53.7049 89.7323C53.4144 89.1934 53.0748 88.6825 52.6902 88.2061C52.2877 87.6879 51.8309 87.2142 51.3276 86.7932C50.3466 85.9854 49.2425 85.3399 48.0573 84.8813C47.0876 84.5009 46.0818 84.22 45.0553 84.0428C44.3613 83.9256 43.6615 83.8459 42.959 83.8038C42.7008 83.8004 42.4432 83.7808 42.1875 83.7451C42.2542 83.735 42.322 83.735 42.3887 83.7451C42.5187 83.7451 42.7116 83.7451 42.9632 83.7451C43.665 83.7554 44.3654 83.8128 45.0595 83.917C46.1024 84.0667 47.1259 84.3296 48.1118 84.701C49.3275 85.1588 50.4604 85.8116 51.466 86.6339C51.9792 87.0661 52.4458 87.5509 52.858 88.0804C53.2434 88.5703 53.5844 89.0937 53.8768 89.6442C54.3958 90.567 54.7344 91.5801 54.8747 92.6295C54.9789 93.338 54.9346 94.0605 54.7447 94.751C54.695 94.9373 54.6277 95.1184 54.5434 95.2918C54.5245 95.3583 54.4962 95.4219 54.4596 95.4805Z" fill="#F5F5F5"/>
<g opacity="0.4">
<path d="M43.6875 80.8321C46.6478 81.3728 49.466 82.5143 51.9681 84.1863C54.4839 85.8566 56.4214 88.2643 57.5151 91.0791C58.6136 93.905 58.4501 97.6491 57.2929 99.9886L61.1795 100.311C62.4876 95.9468 61.0663 90.5927 57.9218 87.1757C56.1225 85.1832 53.9271 83.5883 51.476 82.4931C49.0249 81.3978 46.3721 80.8264 43.6875 80.8153" fill="black"/>
</g>
<path d="M42.4477 46.7029H8.44892C6.46216 46.7029 4.85156 48.3135 4.85156 50.3002V72.5007C4.85156 74.4874 6.46216 76.098 8.44892 76.098H42.4477C44.4344 76.098 46.045 74.4874 46.045 72.5007V50.3002C46.045 48.3135 44.4344 46.7029 42.4477 46.7029Z" fill="#455A64"/>
<path d="M46.0453 53.26C46.0453 53.3229 36.7836 53.369 25.3626 53.369C13.9417 53.369 4.67578 53.3229 4.67578 53.26C4.67578 53.1971 13.9333 53.151 25.3626 53.151C36.792 53.151 46.0453 53.2013 46.0453 53.26Z" fill="#263238"/>
<path d="M73.5989 78.0431C73.5989 78.1018 61.2346 78.1521 45.9899 78.1521C30.7452 78.1521 18.3809 78.1018 18.3809 78.0431C18.3809 77.9844 30.741 77.9341 45.9899 77.9341C61.2388 77.9341 73.5989 77.9844 73.5989 78.0431Z" fill="#263238"/>
<path d="M73.6242 76.0977C74.1845 75.3876 74.5307 74.5324 74.622 73.6324C74.7059 72.253 74.077 70.5256 72.5886 70.5256H53.5956C52.1177 70.5256 50.7004 71.1127 49.6555 72.1577C48.6105 73.2026 48.0234 74.6199 48.0234 76.0977H73.6242Z" fill="#455A64"/>
<path d="M98.6674 56.1606L95.3636 49.272C94.9226 48.3263 94.85 47.2501 95.1602 46.2538C95.4703 45.2575 96.1408 44.4126 97.0407 43.8843L106.919 37.9936C107.434 37.6837 108.024 37.5199 108.625 37.5198H110.759L111.598 51.4438L108.311 52.7142L110.407 56.1019L98.6674 56.1606Z" fill="#3C8AFF"/>
<path d="M110.789 38.0406C110.789 38.0406 114.168 38.8163 114.592 44.0237C115.015 49.231 111.611 50.8578 111.611 50.8578L110.789 38.0406Z" fill="#EBEBEB"/>
<path d="M99.8208 46.5727C99.8208 46.5727 92.9908 49.8095 92.1565 50.3461C91.5779 50.7151 91.0831 51.3608 91.5359 52.497C92.3074 54.4299 95.5023 52.6102 95.5023 52.6102L101.863 49.4321C101.863 49.4321 104.307 48.2791 103.401 46.8327C102.391 45.2143 99.8208 46.5727 99.8208 46.5727Z" fill="#263238"/>
<path d="M90.1497 45.3945C90.1497 45.3945 96.5687 46.493 97.1138 46.6523C97.6588 46.8117 99.7971 47.8137 99.9061 48.4678C99.9627 49.3264 99.9627 50.1877 99.9061 51.0463C99.9061 51.0463 99.5204 51.3608 99.2772 50.7319C99.1192 50.1188 99.05 49.4862 99.0718 48.8535L97.8727 48.3923L98.5267 49.5537L98.6357 52.279C98.6357 52.279 97.7972 52.2035 97.6379 51.5494C97.5349 51.0982 97.4815 50.6371 97.4785 50.1742L96.6023 49.4321L97.2563 50.3168L97.4785 52.279C97.4785 52.279 96.8413 52.4844 96.64 52.0484C96.4925 51.4831 96.4192 50.901 96.422 50.3168L93.9567 49.4573L92.3257 50.3671L89.7598 48.9416L90.1497 45.3945Z" fill="#FFBE9D"/>
<path d="M100.148 36.4552C100.148 39.0547 98.9527 41.1594 97.481 41.1594C96.0094 41.1594 94.8145 39.0631 94.8145 36.4552C94.8145 33.8473 96.0052 31.751 97.481 31.751C98.9569 31.751 100.148 33.8473 100.148 36.4552Z" fill="#263238"/>
<path d="M97.916 39.6882L99.3835 44.7697C99.6513 44.6348 99.865 44.4125 99.9893 44.1395C100.114 43.8666 100.141 43.5594 100.067 43.2687C99.6979 41.5288 99.4883 40.2919 99.0858 38.7658C99.0355 38.6148 97.916 39.6882 97.916 39.6882Z" fill="#263238"/>
<g opacity="0.4">
<path d="M68.8997 101.17C68.7572 100.751 68.6062 100.332 68.4804 99.8831C68.3547 99.4344 68.1953 99.0445 68.0863 98.6253C67.9173 97.9963 67.794 97.3559 67.7174 96.7092C65.2437 106.772 69.0213 113.87 75.5032 114.369C84.9788 115.098 96.5297 115.627 101.2 114.402C109.716 112.168 112.839 105.065 113.586 103.896C114.332 102.726 121.103 90.3446 116.94 78.4247C112.776 66.5049 105.557 53.847 105.557 53.847L98.668 56.1614C98.668 56.1614 99.9258 62.0312 101.926 69.0918C104.127 76.8357 107.07 88.9485 106.903 96.0342C106.796 100.293 105.419 104.424 102.949 107.895H71.6501C71.6501 107.895 70.9793 107.225 68.9123 101.187" fill="black"/>
</g>
<path d="M2.48759 95.8079L2.7098 93.4181L59.8481 100.001C60.6118 100.091 61.349 100.335 62.0146 100.72C62.6801 101.106 63.26 101.622 63.7186 102.24C64.1771 102.857 64.5048 103.561 64.6813 104.31C64.8579 105.058 64.8796 105.835 64.7452 106.592L64.4895 108.038L5.37218 99.4472C4.51474 99.3299 3.73582 98.8857 3.19824 98.2075C2.66067 97.5293 2.40604 96.6695 2.48759 95.8079Z" fill="#3C8AFF"/>
<g opacity="0.6">
<path d="M2.48564 95.8072L2.70785 93.4174L59.8462 99.9999C60.6098 100.09 61.3471 100.335 62.0126 100.72C62.6782 101.105 63.258 101.622 63.7166 102.239C64.1752 102.856 64.5028 103.561 64.6794 104.309C64.8559 105.057 64.8777 105.834 64.7433 106.591L64.4875 108.037L5.37023 99.4465C4.51278 99.3292 3.73387 98.885 3.19629 98.2068C2.65872 97.5286 2.40409 96.6688 2.48564 95.8072Z" fill="black"/>
</g>
<g opacity="0.3">
<path d="M113.584 111.791C113.584 111.791 126.162 97.9549 128.757 87.079C130.061 87.0715 131.364 87.1682 132.652 87.3683C132.652 87.3683 125.215 107.59 113.584 111.791Z" fill="black"/>
</g>
<path d="M128.574 82.2061C128.607 82.3199 128.629 82.4363 128.641 82.5541C128.675 82.7847 128.742 83.1243 128.784 83.5645C128.907 84.8215 128.874 86.0888 128.688 87.3379C128.392 89.1827 127.827 90.974 127.01 92.6543C126.014 94.7001 124.903 96.6879 123.681 98.608C121.49 102.112 119.028 105.44 116.319 108.561C115.296 109.773 114.449 110.737 113.862 111.4L113.183 112.159C113.106 112.249 113.023 112.334 112.936 112.415C112.998 112.314 113.069 112.22 113.149 112.134L113.799 111.345L116.202 108.465C118.868 105.32 121.306 101.988 123.497 98.4948C124.72 96.581 125.839 94.6034 126.851 92.5705C127.657 90.9065 128.222 89.1361 128.528 87.3128C128.721 86.0817 128.776 84.8329 128.692 83.5897C128.662 83.1494 128.608 82.8098 128.591 82.575C128.573 82.4529 128.568 82.3293 128.574 82.2061Z" fill="#263238"/>
<path d="M106.831 111.689C106.111 111.138 105.437 110.53 104.815 109.87C104.143 109.261 103.521 108.601 102.953 107.895C104.346 109.053 105.643 110.322 106.831 111.689Z" fill="#263238"/>
<path d="M69.5 111.266C69.7024 110.62 70.016 110.014 70.4266 109.476C70.7763 108.897 71.223 108.382 71.7473 107.954C71.7934 108 71.219 108.688 70.6069 109.597C69.9947 110.507 69.5587 111.291 69.5 111.266Z" fill="#263238"/>
<path d="M45.3309 119.253C46.0188 118.626 46.5982 117.889 47.0458 117.073C47.5152 116.182 47.8004 115.205 47.8843 114.201C48.0114 112.977 47.7975 111.742 47.2662 110.632C46.7349 109.522 45.907 108.58 44.8739 107.912C44.0412 107.346 43.1029 106.954 42.1151 106.759C41.1997 106.593 40.2633 106.581 39.3438 106.721C39.4029 106.696 39.4648 106.677 39.5282 106.667C39.7103 106.619 39.8951 106.582 40.0817 106.558C40.7676 106.466 41.4638 106.483 42.1445 106.608C43.1601 106.787 44.1278 107.174 44.9871 107.744C46.0614 108.426 46.9218 109.397 47.4698 110.546C48.0177 111.695 48.2311 112.974 48.0856 114.239C47.9894 115.269 47.681 116.268 47.1799 117.174C46.8504 117.782 46.4258 118.334 45.9221 118.809C45.7904 118.939 45.6503 119.061 45.5029 119.173C45.449 119.207 45.3913 119.234 45.3309 119.253Z" fill="#263238"/>
<path d="M24.4569 114.872C24.3131 114.211 24.2442 113.536 24.2515 112.86C24.1792 112.185 24.1792 111.505 24.2515 110.831C24.4609 112.167 24.5255 113.522 24.4443 114.872H24.4569Z" fill="#263238"/>
<path d="M25.9825 114.876C25.6687 113.548 25.4959 112.19 25.4668 110.826C25.6578 111.482 25.7801 112.157 25.8316 112.839C25.953 113.511 26.0036 114.194 25.9825 114.876Z" fill="#263238"/>
<path d="M49.5495 76.0967C49.5495 76.1554 42.6022 76.2057 34.0365 76.2057C25.4708 76.2057 18.5234 76.1554 18.5234 76.0967C18.5234 76.038 25.4708 75.9877 34.0365 75.9877C42.6022 75.9877 49.5495 76.0338 49.5495 76.0967Z" fill="#263238"/>
<path d="M27.0524 76.0766C26.9895 76.0766 26.9434 68.1104 26.9434 58.3079C26.9434 48.5053 26.9727 40.5559 27.0524 40.5559C27.132 40.5559 27.1614 48.5221 27.1614 58.3288C27.1614 68.1356 27.1111 76.0766 27.0524 76.0766Z" fill="#263238"/>
<path d="M22.7808 76.047C22.7221 76.047 23.0198 68.0808 23.4475 58.2866C23.8751 48.4925 24.286 40.5305 24.3279 40.5347C24.3699 40.5389 24.0931 48.5008 23.6655 58.295C23.2378 68.0892 22.8605 76.0512 22.7808 76.047Z" fill="#263238"/>
<path d="M13.1759 124.536C13.1084 124.479 13.0466 124.416 12.9914 124.347C12.8824 124.222 12.7021 124.041 12.505 123.786C11.9255 123.074 11.4079 122.313 10.9579 121.513C9.44028 118.864 8.64779 115.861 8.6603 112.808C8.67282 109.755 9.48989 106.759 11.0292 104.122C11.4838 103.324 12.0071 102.568 12.5931 101.862C12.7943 101.606 12.9746 101.443 13.0878 101.3C13.201 101.157 13.2681 101.111 13.2723 101.12C13.2308 101.196 13.1801 101.266 13.1214 101.329C13.0207 101.468 12.8488 101.652 12.6602 101.916C10.5094 104.656 9.21368 107.969 8.9348 111.441C8.65591 114.913 9.40626 118.39 11.0921 121.438C11.5262 122.239 12.021 123.005 12.5721 123.731C12.7566 123.995 12.9243 124.184 13.0249 124.322C13.1256 124.461 13.1843 124.528 13.1759 124.536Z" fill="#455A64"/>
<path d="M73.2381 92.5916L73.1082 92.8347L70.5758 97.5767L67.0371 100.981L74.1102 110.398L80.001 109.421C80.001 109.421 79.3427 108.075 76.3827 107.815L75.2632 102.189L79.4182 95.7487" fill="#455A64"/>
<path d="M67.0469 100.994L74.12 110.411L80.0108 109.434L79.2016 108.658L74.3674 109.187L67.8016 100.269L67.0469 100.994Z" fill="#E0E0E0"/>
<path d="M75.9207 105.242C75.8871 105.309 75.5014 105.17 75.0821 105.262C74.6628 105.355 74.3232 105.594 74.2687 105.543C74.2142 105.493 74.4784 105.099 75.0318 105.003C75.5852 104.906 75.9668 105.187 75.9207 105.242Z" fill="#263238"/>
<path d="M75.606 103.866C75.5557 103.916 75.2328 103.615 74.7674 103.598C74.3021 103.581 73.9289 103.862 73.8912 103.807C73.8534 103.753 73.9205 103.677 74.0715 103.556C74.2755 103.407 74.5233 103.33 74.7758 103.338C75.0285 103.344 75.2713 103.438 75.4634 103.602C75.5766 103.719 75.606 103.833 75.606 103.866Z" fill="#263238"/>
<path d="M75.333 102.042C75.2743 102.088 75.0143 101.782 74.5825 101.707C74.1506 101.631 73.8026 101.828 73.7439 101.766C73.6852 101.703 73.7817 101.644 73.9368 101.556C74.1416 101.447 74.3768 101.411 74.6048 101.452C74.8328 101.493 75.0405 101.609 75.1946 101.782C75.3372 101.916 75.3623 102.025 75.333 102.042Z" fill="#263238"/>
<path d="M76.6761 100.385C76.6132 100.418 76.391 100.112 75.9843 99.9363C75.5776 99.7602 75.2086 99.7854 75.1919 99.7141C75.1751 99.6428 75.6111 99.4709 76.0933 99.7141C76.5755 99.9573 76.7474 100.364 76.6761 100.385Z" fill="#263238"/>
<path d="M77.2456 99.0479C77.2163 99.0689 76.9857 98.8676 76.6293 98.5155L76.0255 97.8907C75.8888 97.7684 75.7702 97.6273 75.6734 97.4715C75.6452 97.4154 75.6285 97.3542 75.6242 97.2916C75.6199 97.229 75.628 97.1661 75.6482 97.1067C75.672 97.0389 75.7154 96.9796 75.7729 96.9363C75.8303 96.893 75.8992 96.8677 75.971 96.8635C76.1857 96.8664 76.3945 96.9336 76.5706 97.0564C76.7242 97.1547 76.865 97.2715 76.9899 97.4044C77.1982 97.6338 77.3517 97.9077 77.4385 98.2052C77.5489 98.4738 77.5489 98.7751 77.4385 99.0437C77.3959 98.7846 77.3371 98.5283 77.2624 98.2765C77.1601 98.0185 77.0076 97.7833 76.8138 97.5847C76.6994 97.4712 76.5712 97.3726 76.4322 97.2912C76.2989 97.204 76.1464 97.1508 75.9878 97.1361C75.9658 97.1364 75.9444 97.1434 75.9264 97.1561C75.9085 97.1688 75.8948 97.1867 75.8872 97.2073C75.8646 97.2624 75.8646 97.3242 75.8872 97.3792C75.9689 97.5142 76.0675 97.6382 76.1807 97.7482L76.7551 98.4148C76.9513 98.5983 77.117 98.8121 77.2456 99.0479Z" fill="#263238"/>
<path d="M77.4853 99.1866C77.456 99.1866 77.4267 98.8763 77.6866 98.4696C77.8634 98.2013 78.1222 97.9971 78.4243 97.8876C78.7265 97.778 79.0559 97.769 79.3637 97.8617C79.3974 97.8838 79.426 97.9128 79.4477 97.9467C79.4694 97.9807 79.4836 98.0189 79.4895 98.0588C79.495 98.1271 79.4804 98.1956 79.4475 98.2558C79.4006 98.3397 79.3396 98.4148 79.2672 98.478C79.1505 98.5908 79.0243 98.6932 78.8899 98.7841C78.6634 98.9366 78.4144 99.0526 78.152 99.1279C77.9178 99.2228 77.6597 99.2419 77.4141 99.1824C77.4141 99.1405 77.6866 99.1153 78.0933 98.9518C78.3274 98.859 78.5487 98.7364 78.7515 98.587C78.8713 98.4987 78.9835 98.4006 79.087 98.2935C79.1379 98.2488 79.1817 98.1964 79.2169 98.1384C79.2379 98.0797 79.2169 98.0965 79.2169 98.0839C79.1599 98.0595 79.0987 98.0466 79.0366 98.0462C78.9627 98.0399 78.8884 98.0399 78.8144 98.0462C78.6705 98.0589 78.5292 98.0928 78.3952 98.1468C78.1686 98.235 77.9681 98.3793 77.8124 98.5661C77.6895 98.7653 77.5803 98.9726 77.4853 99.1866Z" fill="#263238"/>
<path d="M71.7181 100.034C71.7411 100.172 71.7226 100.314 71.6649 100.442C71.6071 100.57 71.5128 100.678 71.3938 100.752C71.2747 100.826 71.1364 100.863 70.9962 100.858C70.8561 100.854 70.7204 100.808 70.6064 100.726C70.4924 100.645 70.4052 100.531 70.3559 100.4C70.3065 100.268 70.2972 100.125 70.3292 99.9889C70.3611 99.8523 70.4328 99.7283 70.5353 99.6326C70.6377 99.5368 70.7663 99.4736 70.9047 99.451C71.0896 99.4218 71.2786 99.4666 71.4308 99.5756C71.583 99.6847 71.6862 99.8492 71.7181 100.034Z" fill="#E0E0E0"/>
<path d="M94.7051 97.1199L96.596 109.396L111.887 107.124C111.577 105.677 103.233 103.92 103.233 103.92L102.344 96.0046L94.7051 97.1199Z" fill="#455A64"/>
<path d="M98.4068 103.962C98.266 104.028 98.1547 104.144 98.0943 104.287C98.0339 104.43 98.0287 104.591 98.0797 104.738C98.1418 104.88 98.2556 104.993 98.398 105.055C98.5405 105.116 98.7009 105.121 98.847 105.069C98.9987 104.998 99.1179 104.872 99.1808 104.716C99.2438 104.561 99.2458 104.387 99.1866 104.23C99.1076 104.087 98.9758 103.98 98.8192 103.932C98.6627 103.885 98.4936 103.9 98.3481 103.975" fill="#E0E0E0"/>
<path d="M96.5976 109.396L96.4551 108.138L111.167 106.424C111.167 106.424 111.893 106.621 111.888 107.111L96.5976 109.396Z" fill="#E0E0E0"/>
<path d="M103.466 103.807C103.466 103.883 103.11 103.971 102.774 104.264C102.439 104.558 102.296 104.902 102.221 104.885C102.145 104.868 102.196 104.415 102.602 104.067C103.009 103.719 103.474 103.736 103.466 103.807Z" fill="#263238"/>
<path d="M105.169 104.231C105.198 104.303 104.892 104.474 104.687 104.831C104.481 105.187 104.456 105.527 104.381 105.535C104.305 105.544 104.196 105.116 104.46 104.697C104.725 104.277 105.156 104.16 105.169 104.231Z" fill="#263238"/>
<path d="M106.369 106.012C106.302 106.041 106.142 105.681 106.272 105.245C106.402 104.809 106.729 104.591 106.771 104.649C106.813 104.708 106.629 104.96 106.524 105.32C106.419 105.681 106.44 105.995 106.369 106.012Z" fill="#263238"/>
<path d="M103.064 102.025C103.064 102.096 102.687 102.046 102.268 102.134C101.849 102.222 101.542 102.411 101.492 102.352C101.442 102.293 101.723 101.979 102.213 101.878C102.704 101.778 103.094 101.958 103.064 102.025Z" fill="#263238"/>
<path d="M102.443 100.265C102.201 100.37 101.936 100.408 101.675 100.374C101.392 100.366 101.11 100.324 100.837 100.248C100.67 100.208 100.506 100.156 100.346 100.093C100.253 100.06 100.166 100.01 100.09 99.9462C100.033 99.9016 99.9921 99.8385 99.9754 99.7675C99.9586 99.6966 99.9666 99.622 99.9982 99.5563C100.028 99.4983 100.071 99.4481 100.123 99.4095C100.175 99.371 100.236 99.3451 100.3 99.3341C100.396 99.3193 100.494 99.3193 100.589 99.3341C100.76 99.3466 100.929 99.3775 101.093 99.4263C101.368 99.5044 101.629 99.6247 101.868 99.7827C102.287 100.059 102.434 100.319 102.409 100.34C102.384 100.361 102.17 100.16 101.772 99.942C101.538 99.8158 101.288 99.7213 101.03 99.6611C100.879 99.6215 100.724 99.5976 100.568 99.5898C100.401 99.5898 100.262 99.5898 100.233 99.6695C100.204 99.7491 100.233 99.7072 100.262 99.7533C100.32 99.7969 100.384 99.8322 100.451 99.8581C100.595 99.9231 100.742 99.9805 100.891 100.03C101.147 100.112 101.409 100.169 101.675 100.202C101.932 100.205 102.189 100.226 102.443 100.265Z" fill="#263238"/>
<path d="M102.353 100.386C102.327 100.386 102.139 100.155 102.038 99.6773C101.993 99.3996 101.993 99.1164 102.038 98.8387C102.065 98.6704 102.107 98.5048 102.164 98.344C102.189 98.2384 102.241 98.141 102.314 98.061C102.388 97.981 102.48 97.9211 102.583 97.887C102.651 97.8783 102.72 97.889 102.783 97.918C102.845 97.9469 102.898 97.9928 102.935 98.0505C102.988 98.1353 103.029 98.227 103.057 98.323C103.108 98.49 103.134 98.664 103.132 98.8387C103.132 99.1312 103.06 99.4192 102.923 99.6773C102.684 100.097 102.386 100.252 102.378 100.226C102.369 100.201 102.583 100.013 102.755 99.5976C102.855 99.359 102.901 99.1013 102.889 98.8429C102.885 98.693 102.858 98.5445 102.81 98.4027C102.763 98.2433 102.684 98.1217 102.625 98.1469C102.566 98.1721 102.436 98.2978 102.394 98.4362C102.338 98.5801 102.294 98.7288 102.264 98.8806C102.217 99.1391 102.206 99.403 102.231 99.6647C102.269 100.092 102.39 100.369 102.353 100.386Z" fill="#263238"/>
<path d="M82.6751 68.2825L69.5645 96.8517L78.2224 102.051L96.3517 67.6746" fill="#263238"/>
<path d="M104.299 102.699L94.8949 104.209L89.2641 70.6081L61.4454 72.6248C60.7096 72.6759 59.9703 72.6066 59.2568 72.4194C51.4458 70.2769 52.5023 60.315 53.257 58.7176L91.7504 57.6149C93.7671 57.5563 95.7345 58.2439 97.2756 59.546C98.8168 60.8481 99.8233 62.6731 100.102 64.6712L104.299 102.699Z" fill="#263238"/>
<path d="M52.8678 60.2955L53.0062 46.0906C53.0062 46.0906 51.1739 36.8666 50.6289 33.2232C49.7903 27.5882 48.6331 24.909 57.8655 20.905L59.8864 20.1251L63.01 20.167C66.7331 20.448 70.6575 23.8147 70.7497 26.0368L74.3513 58.0566L52.8678 60.2955Z" fill="#3C8AFF"/>
<path d="M53.446 24.2042C53.446 24.2042 50.8382 29.8141 51.3497 34.925L61.0642 44.2496C63.2402 46.673 65.9655 47.7044 69.4496 47.914L89.5495 50.111L90.1072 44.8534L70.9968 39.4364C70.2337 39.2938 69.8521 38.5014 69.2694 37.9899L53.446 24.2042Z" fill="#3C8AFF"/>
<path d="M51.875 25.822C51.9879 25.714 52.1183 25.6261 52.2607 25.562C52.6746 25.3797 53.1122 25.2569 53.5605 25.1972C54.2796 25.0793 55.0132 25.0793 55.7323 25.1972C55.9545 25.2375 56.1693 25.311 56.3696 25.4153C56.5744 25.5438 56.7718 25.6837 56.9608 25.8345C57.3465 26.1364 57.7364 26.4844 58.1347 26.8617C58.9397 27.6122 59.7028 28.564 60.5958 29.5283C61.4889 30.4926 62.4658 31.5282 63.5307 32.6142C64.5957 33.7001 65.7403 34.8363 66.9646 36.0103C67.5809 36.5972 68.2224 37.1926 68.889 37.7754C69.2286 38.0521 69.5641 38.3791 69.8869 38.6852C70.1911 38.9999 70.5752 39.226 70.998 39.3393L90.1461 44.7479L90.2342 44.773V44.8653C90.1964 45.2384 90.1503 45.6367 90.1084 46.0434C89.9616 47.4396 89.8149 48.8232 89.6891 50.1229V50.2319H89.5801L81.0605 49.2844L77.0355 48.8442L73.1824 48.4542C71.9246 48.3159 70.7129 48.1733 69.5347 48.0014C68.3838 47.8601 67.251 47.5973 66.1554 47.2174C65.1454 46.8329 64.1898 46.3184 63.3127 45.687C62.4742 45.0959 61.686 44.4795 60.9606 43.8716C58.0886 41.4231 55.9797 39.2303 54.5164 37.7377C53.7911 36.9872 53.2334 36.396 52.8603 35.9935L52.441 35.5323L52.3027 35.3688C52.3027 35.3688 52.3572 35.4149 52.4578 35.5155C52.5584 35.6161 52.7052 35.7713 52.8771 35.9641L54.5541 37.6831C56.0342 39.1548 58.1599 41.3308 61.0361 43.7584C61.7614 44.358 62.5371 44.9701 63.3798 45.5529C64.2512 46.1712 65.198 46.6757 66.1973 47.0539C67.2855 47.4251 68.4098 47.6808 69.5515 47.8169C70.7296 47.9847 71.9455 48.1272 73.195 48.2614L77.0481 48.6387L81.0731 49.0789L89.5843 50.0055L89.4627 50.102C89.6011 48.8022 89.7478 47.4186 89.882 46.0183C89.9281 45.599 89.97 45.2133 90.0078 44.8401L90.0874 44.9575L70.9686 39.5279C70.5019 39.412 70.0774 39.1663 69.7444 38.8194C69.4047 38.4965 69.0987 38.1947 68.7507 37.9054C68.0757 37.3184 67.4425 36.7188 66.8262 36.1318C65.6019 34.9537 64.4615 33.8091 63.4008 32.719C62.34 31.6289 61.3673 30.5891 60.4659 29.6122C59.5644 28.6353 58.8265 27.6877 58.0299 26.9372C57.6635 26.5737 57.2771 26.2308 56.8727 25.91C56.6902 25.7565 56.4968 25.6164 56.2941 25.4907C56.1042 25.3875 55.8989 25.3153 55.6862 25.2769C54.9788 25.1473 54.2548 25.136 53.5437 25.2434C53.0986 25.2933 52.6626 25.4048 52.2481 25.5746C52.1176 25.6474 51.9929 25.7301 51.875 25.822Z" fill="#263238"/>
<path d="M56.8923 7.80229L57.8651 21.6383C57.9425 22.7261 58.4294 23.7441 59.2277 24.4871C60.026 25.2301 61.0762 25.6429 62.1668 25.6423C62.7565 25.6424 63.34 25.5215 63.8812 25.287C64.4223 25.0526 64.9095 24.7095 65.3128 24.2792C65.716 23.8488 66.0266 23.3403 66.2254 22.7851C66.4242 22.2299 66.507 21.6398 66.4685 21.0513C66.3805 19.7348 66.305 18.6572 66.305 18.6572C66.305 18.6572 69.6592 18.1373 69.6927 14.7874C69.7179 12.8545 69.3825 8.46893 69.0974 5.10637C69.0037 4.00797 68.5001 2.98503 67.6868 2.24086C66.8735 1.49669 65.81 1.08576 64.7076 1.08975H62.6825C61.8578 1.13983 61.0515 1.35454 60.3111 1.72122C59.5707 2.0879 58.9112 2.59913 58.3716 3.22475C57.8319 3.85037 57.423 4.57772 57.169 5.3639C56.9149 6.15008 56.8209 6.97918 56.8923 7.80229Z" fill="#FFBE9D"/>
<path d="M66.306 18.6025C64.7608 18.6315 63.2417 18.2011 61.9414 17.3656C61.9414 17.3656 62.9728 19.7722 66.3144 19.462L66.306 18.6025Z" fill="#EB996E"/>
<path d="M68.3446 9.4038C68.3458 9.52843 68.2982 9.64859 68.2121 9.73866C68.1259 9.82873 68.008 9.88159 67.8834 9.88596C67.8233 9.8917 67.7626 9.88534 67.7049 9.86726C67.6472 9.84917 67.5938 9.81972 67.5477 9.78064C67.5016 9.74157 67.4637 9.69366 67.4364 9.63974C67.4091 9.58582 67.3929 9.52698 67.3887 9.46669C67.3875 9.34164 67.4349 9.22101 67.521 9.13027C67.607 9.03952 67.725 8.98576 67.8499 8.98033C67.9716 8.97107 68.092 9.01045 68.1848 9.08983C68.2775 9.16921 68.335 9.28211 68.3446 9.4038Z" fill="#263238"/>
<path d="M68.5216 8.46046C68.4587 8.52335 68.1024 8.25502 67.5825 8.25502C67.0626 8.25502 66.6936 8.51496 66.6349 8.45207C66.5762 8.38918 66.6684 8.30952 66.8362 8.19212C67.057 8.03691 67.3209 7.9548 67.5908 7.95733C67.8592 7.95671 68.1207 8.04192 68.3372 8.20051C68.4797 8.31791 68.5468 8.43111 68.5216 8.46046Z" fill="#263238"/>
<path d="M63.5165 9.4038C63.5188 9.52874 63.4716 9.64953 63.3852 9.73983C63.2988 9.83014 63.1802 9.88266 63.0553 9.88596C62.9951 9.8917 62.9344 9.88534 62.8768 9.86726C62.8191 9.84917 62.7656 9.81972 62.7195 9.78064C62.6734 9.74157 62.6356 9.69366 62.6083 9.63974C62.581 9.58582 62.5648 9.52698 62.5606 9.46669C62.5594 9.34164 62.6068 9.22101 62.6928 9.13027C62.7789 9.03952 62.8968 8.98576 63.0218 8.98033C63.1435 8.97107 63.2639 9.01045 63.3566 9.08983C63.4494 9.16921 63.5069 9.28211 63.5165 9.4038Z" fill="#263238"/>
<path d="M63.4479 8.5575C63.3892 8.62039 63.0286 8.35206 62.5087 8.35206C61.9888 8.35206 61.6199 8.61201 61.5654 8.54912C61.5109 8.48623 61.5947 8.40657 61.7624 8.28917C61.9833 8.13395 62.2472 8.05184 62.5171 8.05438C62.785 8.05254 63.0464 8.13627 63.2634 8.29337C63.4479 8.41495 63.494 8.52815 63.4479 8.5575Z" fill="#263238"/>
<path d="M65.3308 12.3716C65.6029 12.2867 65.8846 12.236 66.1693 12.2207C66.2993 12.2207 66.4251 12.1788 66.446 12.0907C66.4599 11.9546 66.429 11.8177 66.358 11.7008L65.9639 10.7029C65.6023 9.85607 65.3107 8.98107 65.0918 8.08667C65.5174 8.90295 65.8791 9.75102 66.1735 10.6233L66.5425 11.6295C66.6263 11.7876 66.6515 11.9703 66.6137 12.1452C66.5945 12.1919 66.5648 12.2335 66.5271 12.2669C66.4893 12.3003 66.4444 12.3247 66.3957 12.3381C66.3231 12.3568 66.2485 12.3667 66.1735 12.3674C65.8939 12.4043 65.6107 12.4057 65.3308 12.3716Z" fill="#263238"/>
<path d="M63.8187 12.729C63.9025 12.729 63.9025 13.2824 64.3805 13.6765C64.8585 14.0706 65.4538 14.0119 65.458 14.0958C65.4622 14.1796 65.3238 14.2006 65.0723 14.209C64.7456 14.2127 64.428 14.1014 64.175 13.8945C63.9378 13.693 63.7876 13.4076 63.7558 13.0979C63.718 12.8841 63.7809 12.7248 63.8187 12.729Z" fill="#263238"/>
<path d="M63.5958 6.54014C63.5454 6.6785 63.0339 6.61561 62.4302 6.68688C61.8264 6.75816 61.3359 6.92587 61.2562 6.80009C61.1766 6.67431 61.3065 6.60723 61.5036 6.47306C61.7657 6.30593 62.0627 6.20125 62.3716 6.16708C62.6806 6.13291 62.9932 6.17018 63.2855 6.276C63.5077 6.36405 63.6209 6.47305 63.5958 6.54014Z" fill="#263238"/>
<path d="M68.3302 6.97253C68.2421 7.08992 67.8857 6.97253 67.4623 6.97253C67.0388 6.97253 66.674 7.048 66.5902 6.92641C66.5063 6.80482 66.6112 6.75032 66.7705 6.64131C66.9803 6.50371 67.2284 6.43618 67.479 6.44844C67.7283 6.45367 67.9699 6.53566 68.1708 6.68324C68.3218 6.79644 68.3721 6.91383 68.3302 6.97253Z" fill="#263238"/>
<path d="M58.0173 10.318C57.9586 10.2929 55.7155 9.6346 55.7909 11.9238C55.8664 14.213 58.143 13.668 58.1472 13.6009C58.1514 13.5338 58.0173 10.318 58.0173 10.318Z" fill="#FFBE9D"/>
<path d="M57.4192 12.7579C57.4192 12.7579 57.3815 12.7872 57.3144 12.8208C57.2185 12.8572 57.1126 12.8572 57.0167 12.8208C56.8667 12.7317 56.743 12.6045 56.6583 12.452C56.5736 12.2995 56.5309 12.1273 56.5345 11.9529C56.5223 11.7569 56.5539 11.5608 56.6268 11.3785C56.6458 11.306 56.682 11.2392 56.7324 11.1837C56.7827 11.1282 56.8458 11.0857 56.9161 11.0598C56.9619 11.0469 57.0108 11.0503 57.0543 11.0694C57.0979 11.0885 57.1335 11.1222 57.1551 11.1647C57.1886 11.2275 57.176 11.2737 57.1886 11.2779C57.2012 11.282 57.2347 11.2359 57.2138 11.1437C57.1997 11.0862 57.1655 11.0356 57.1173 11.0011C57.0854 10.9786 57.0493 10.9625 57.0112 10.9539C56.9731 10.9453 56.9336 10.9442 56.8951 10.9508C56.7988 10.9696 56.7092 11.0137 56.6355 11.0785C56.5618 11.1434 56.5067 11.2266 56.4758 11.3198C56.384 11.5205 56.3437 11.741 56.3584 11.9613C56.3527 12.1653 56.4079 12.3663 56.5169 12.5388C56.626 12.7113 56.7839 12.8474 56.9706 12.9298C57.0321 12.9461 57.0966 12.9481 57.1591 12.9358C57.2216 12.9234 57.2804 12.897 57.3312 12.8585C57.4192 12.8124 57.4276 12.7621 57.4192 12.7579Z" fill="#EB996E"/>
<path d="M56.7408 10.2388C56.9586 10.2247 57.1761 10.2698 57.3703 10.3695C57.5645 10.4692 57.728 10.6196 57.8435 10.8048C57.9902 11.1318 58.0238 11.5008 58.1705 11.8278C58.2339 11.9959 58.3496 12.1392 58.5006 12.2365C58.6515 12.3339 58.8298 12.3802 59.009 12.3687C59.1279 12.3314 59.2348 12.2633 59.3188 12.1712C59.4028 12.0791 59.4608 11.9664 59.487 11.8446C59.5352 11.601 59.5352 11.3503 59.487 11.1067C59.3528 10.0375 59.1306 8.98096 59.0887 7.90343C58.9991 6.82236 59.2342 5.73916 59.7637 4.79243C60.0322 4.32347 60.4227 3.93593 60.8936 3.67093C61.3646 3.40592 61.8985 3.27335 62.4387 3.28725C63.1514 3.34595 63.8013 3.70652 64.5099 3.81553C64.9305 3.8706 65.3582 3.82939 65.7605 3.69502C66.1629 3.56065 66.5295 3.33664 66.8327 3.03988C66.9664 2.92728 67.1064 2.8223 67.2519 2.72543C67.2428 2.47232 67.1597 2.22743 67.0129 2.02105C65.6084 0.721307 63.0844 0.343966 61.2312 0.826129C60.29 1.05807 59.4105 1.49212 58.6539 2.09813C57.8973 2.70413 57.2817 3.46758 56.8498 4.33543C56.0532 6.07121 56.288 8.48203 56.7282 10.2388" fill="#263238"/>
<path d="M69.1347 4.58654C69.1347 4.58654 60.3551 1.76065 56.5565 9.35785C56.2634 8.40241 56.0723 7.41863 55.9863 6.42295C55.9863 5.74373 56.4056 1.68937 60.5648 0.414784C60.5648 0.431555 66.8497 -1.96667 69.1347 4.58654Z" fill="#3C8AFF"/>
<path d="M61.5868 4.77509C61.7428 5.02721 61.9552 5.23961 62.2074 5.39551C62.4595 5.55141 62.7445 5.64654 63.0397 5.67338C63.3349 5.70022 63.6324 5.65804 63.9085 5.55016C64.1846 5.44229 64.4319 5.27168 64.6307 5.05182C64.7174 5.27015 64.8703 5.45583 65.068 5.58276C65.2656 5.7097 65.4981 5.77149 65.7327 5.75946C65.9673 5.74743 66.1922 5.66218 66.3758 5.51569C66.5595 5.36921 66.6926 5.16885 66.7565 4.9428C66.9908 5.2056 67.2761 5.41813 67.595 5.56752C67.7593 5.63738 67.941 5.65514 68.1157 5.6184C68.2904 5.58166 68.4497 5.49219 68.5719 5.36207C68.6719 5.21021 68.7199 5.02994 68.7086 4.84844C68.6972 4.66694 68.6272 4.49405 68.509 4.35582C68.2713 4.08051 67.9645 3.87355 67.6202 3.75626C66.5798 3.29908 65.437 3.12549 64.3079 3.25314C63.173 3.38948 62.1334 3.95506 61.4023 4.83379" fill="#263238"/>
<g opacity="0.4">
<path d="M69.1347 4.58565C68.4026 3.81965 67.4011 3.36856 66.3423 3.32784C63.7512 3.21463 58.9045 4.6695 56.5565 9.36535C56.2634 8.4099 56.0723 7.42612 55.9863 6.43044C55.9863 5.75122 56.4056 1.69687 60.5648 0.422281C60.5648 0.430666 66.8497 -1.96756 69.1347 4.58565Z" fill="black"/>
</g>
<path d="M56.9199 8.46864C58.2512 6.48597 59.9963 4.81528 62.035 3.57154C64.0559 2.31373 67.3933 1.05592 69.6909 0.452165C70.3726 0.226884 71.0947 0.151094 71.8083 0.229951C72.1637 0.274953 72.4994 0.41916 72.7767 0.646062C73.054 0.872965 73.2618 1.17339 73.3763 1.51292C73.5944 2.38081 72.0556 3.71829 71.3303 4.24238C70.6224 4.7157 69.889 5.14961 69.1333 5.54212C69.1333 5.54212 69.1543 3.93212 66.5799 3.60089C63.079 3.15227 56.9199 8.46864 56.9199 8.46864Z" fill="#3C8AFF"/>
<g opacity="0.3">
<path d="M53.8301 36.9995C54.7357 39.1839 55.6497 41.8798 56.962 43.8462C58.2744 45.8126 60.0269 47.561 62.2071 48.4582C64.9492 49.607 68.1901 49.7915 70.9154 48.6175C71.1376 48.5211 71.5737 48.3995 71.5317 48.1605C71.5317 48.1605 70.6303 48.0557 70.3494 48.0096C64.8443 47.0956 64.2448 46.4247 61.6076 44.3284C59.964 43.0328 56.3206 39.1043 53.8301 36.9995Z" fill="black"/>
</g>
<path d="M71.3385 52.9067C71.2827 53.086 71.2053 53.2578 71.1079 53.4183C70.8633 53.8718 70.5649 54.2941 70.219 54.6761C69.0524 55.8992 67.5849 56.7942 65.9634 57.2714C64.3475 57.7315 62.679 57.9809 60.9992 58.0135C60.3577 58.0386 59.8378 58.0428 59.4815 58.0428C59.2952 58.0505 59.1086 58.0421 58.9238 58.0177C59.1053 57.9758 59.291 57.9547 59.4773 57.9548L60.9908 57.8583C62.6525 57.7817 64.2999 57.5144 65.9005 57.0617C67.4941 56.5877 68.944 55.7229 70.1184 54.5461C70.5762 54.0396 70.9848 53.4907 71.3385 52.9067Z" fill="#263238"/>
<path d="M95.0565 105.212C95.0384 105.17 95.0271 105.127 95.0229 105.082C95.0229 104.985 94.981 104.855 94.9475 104.696C94.8846 104.344 94.7923 103.857 94.6791 103.212C94.4485 101.904 94.1257 100.038 93.7232 97.7361C92.9392 93.0989 91.8574 86.7134 90.6625 79.6613C90.13 76.4664 89.6227 73.4141 89.1573 70.626L89.2663 70.714L77.229 71.5819L73.7742 71.8167L72.8518 71.8712H72.617H72.5332H72.6129L72.8518 71.8419L73.77 71.758L77.2206 71.4645L89.2495 70.5044H89.3418V70.5966C89.8114 73.3848 90.3271 76.4371 90.8638 79.6277C92.0335 86.6841 93.0901 93.0738 93.8615 97.7151C94.2305 100.021 94.5324 101.908 94.7462 103.199L94.9726 104.696C94.9978 104.855 95.0145 104.985 95.0271 105.082C95.0422 105.124 95.0521 105.167 95.0565 105.212Z" fill="#455A64"/>
<path d="M92.0838 67.6155C92.1215 67.6658 91.3878 68.2947 90.5576 69.1416C89.7275 69.9885 89.107 70.7307 89.0566 70.6887C89.8298 69.456 90.8629 68.4071 92.0838 67.6155Z" fill="#455A64"/>
<path d="M66.3827 21.3409C66.3827 21.3409 66.4079 21.387 66.433 21.4792C66.4747 21.6157 66.5014 21.7562 66.5127 21.8985C66.5617 22.4159 66.4929 22.9376 66.3114 23.4246C66.0405 24.1525 65.5588 24.783 64.9278 25.2359C64.1402 25.7752 63.1921 26.0296 62.2403 25.957C61.2924 25.8926 60.3842 25.5515 59.6283 24.9759C59.0189 24.5078 58.5135 23.9181 58.144 23.2443C57.8936 22.7956 57.7019 22.3165 57.5738 21.8188C57.5319 21.6427 57.5025 21.5044 57.49 21.3995C57.4774 21.2947 57.49 21.2528 57.49 21.2528C57.6844 21.9141 57.9501 22.5524 58.2824 23.1563C58.6618 23.7955 59.1616 24.3551 59.754 24.804C60.4867 25.3465 61.36 25.6667 62.2697 25.7264C63.174 25.7958 64.0756 25.5612 64.8314 25.0598C65.4349 24.6331 65.9034 24.0424 66.1815 23.3575C66.3715 22.8938 66.4615 22.3952 66.4456 21.8943C66.4163 21.5421 66.3827 21.3492 66.3827 21.3409Z" fill="#263238"/>
<path d="M72.2983 39.6507C72.2505 39.5152 72.2196 39.3744 72.2061 39.2314C72.16 38.9002 72.1054 38.4977 72.0384 38.0323C71.9 36.9631 71.7197 35.5879 71.5227 34.066C71.3256 32.544 71.183 31.131 71.1034 30.0913C71.0573 29.5839 71.0279 29.1689 71.0111 28.8838C70.9911 28.7363 70.9911 28.5868 71.0111 28.4393C71.0549 28.5757 71.0844 28.7162 71.0992 28.8586C71.1453 29.1898 71.1998 29.5881 71.2627 30.0577C71.3969 31.1269 71.5688 32.5021 71.7574 34.024C71.9461 35.546 72.1096 36.9589 72.2103 37.9945C72.2564 38.506 72.2899 38.9169 72.3109 39.2062C72.3241 39.3544 72.3198 39.5035 72.2983 39.6507Z" fill="#263238"/>
</svg>
