<svg width="47" height="48" viewBox="0 0 47 48" fill="none" xmlns="http://www.w3.org/2000/svg">
<path d="M23.0989 11.732C23.1851 11.6496 23.2876 11.5843 23.4005 11.5397C23.5133 11.4951 23.6343 11.4722 23.7564 11.4722C23.8786 11.4722 23.9995 11.4951 24.1124 11.5397C24.2252 11.5843 24.3277 11.6496 24.414 11.732C24.8988 12.1955 27.0294 14.297 29.0448 17.0442C31.0324 19.7525 33.0441 23.2639 33.0441 26.51C33.0441 29.6587 31.9723 32.1088 30.2281 33.7716C28.4913 35.4291 26.1545 36.2393 23.7564 36.2393C21.3583 36.2393 19.0216 35.4291 17.2848 33.7716C15.5405 32.1088 14.4688 29.6605 14.4688 26.51C14.4688 23.2639 16.4805 19.7525 18.468 17.046C19.8597 15.1594 21.4083 13.3824 23.0989 11.732Z" fill="white"/>
<path d="M28.2891 23.4812C28.2891 23.4766 28.2891 23.4766 28.2848 23.472C28.2069 23.3316 28.0957 23.2153 27.9624 23.1345L24.1785 20.8766C24.0497 20.8003 23.9046 20.7603 23.7571 20.7603C23.6096 20.7603 23.4645 20.8003 23.3357 20.8766L19.5519 23.1345C19.4173 23.2157 19.3059 23.3339 19.2294 23.4766H19.2251C19.2248 23.4801 19.2233 23.4834 19.2208 23.4857C19.1501 23.6211 19.1132 23.7734 19.1133 23.9282V28.4257C19.1137 28.5879 19.1544 28.7472 19.2314 28.8874C19.3085 29.0275 19.419 29.1436 19.5519 29.2239L23.3357 31.4818C23.4548 31.5508 23.5872 31.5898 23.7227 31.5959H23.7958C23.9297 31.5882 24.0604 31.5492 24.1785 31.4818L27.9624 29.2239C28.0952 29.1436 28.2058 29.0275 28.2828 28.8874C28.3598 28.7472 28.4006 28.5879 28.4009 28.4257V23.9282C28.4017 23.7713 28.3631 23.617 28.2891 23.4812ZM23.7571 21.8801L26.8358 23.7184L23.7958 25.5475L20.687 23.7092L23.7571 21.8801ZM20.1452 24.6443L23.2798 26.4962L23.2497 30.1727L20.1452 28.3208V24.6443ZM24.2817 30.1636L24.3118 26.4962L27.369 24.6534V28.3208L24.2817 30.1636Z" fill="#3C8AFF"/>
</svg>
