<svg width="47" height="47" viewBox="0 0 47 47" fill="none" xmlns="http://www.w3.org/2000/svg">
<path d="M25.7589 30.2975C25.7587 30.6966 25.638 31.0879 25.4101 31.4287C25.1822 31.7696 24.8559 32.0468 24.4667 32.2301C24.0775 32.4134 23.6405 32.4958 23.2034 32.4681C22.7663 32.4405 22.3459 32.304 21.9882 32.0735C21.6305 31.8431 21.3493 31.5275 21.1752 31.1612C21.0012 30.795 20.941 30.3923 21.0012 29.997C21.0615 29.6017 21.2399 29.2291 21.5169 28.9199C21.7939 28.6107 22.1589 28.3769 22.572 28.2438V21.5894C22.572 21.397 22.6559 21.2124 22.8053 21.0763C22.9548 20.9402 23.1574 20.8638 23.3687 20.8638C23.58 20.8638 23.7827 20.9402 23.9321 21.0763C24.0815 21.2124 24.1655 21.397 24.1655 21.5894V28.2438C24.6317 28.394 25.0353 28.6721 25.3207 29.0399C25.6061 29.4077 25.7592 29.8471 25.7589 30.2975V30.2975Z" fill="white"/>
<path d="M19.7095 15.614C19.7095 14.6517 20.0949 13.7289 20.781 13.0485C21.4671 12.3681 22.3977 11.9858 23.368 11.9858C24.3383 11.9858 25.2688 12.3681 25.9549 13.0485C26.641 13.7289 27.0265 14.6517 27.0265 15.614V26.5709C27.7323 27.2853 28.2097 28.1904 28.3989 29.1729C28.5881 30.1553 28.4806 31.1713 28.0899 32.0934C27.6992 33.0155 27.0427 33.8026 26.2027 34.3562C25.3626 34.9097 24.3765 35.205 23.368 35.205C22.3594 35.205 21.3733 34.9097 20.5333 34.3562C19.6933 33.8026 19.0367 33.0155 18.646 32.0934C18.2553 31.1713 18.1478 30.1553 18.337 29.1729C18.5262 28.1904 19.0036 27.2853 19.7095 26.5709V15.614ZM23.368 13.4371C22.7858 13.4371 22.2275 13.6664 21.8158 14.0747C21.4041 14.4829 21.1729 15.0366 21.1729 15.614V27.205L20.9285 27.4227C20.3762 27.9126 19.9868 28.5572 19.812 29.2712C19.6372 29.9853 19.6852 30.7352 19.9495 31.4216C20.2139 32.1081 20.6822 32.6987 21.2925 33.1155C21.9028 33.5322 22.6263 33.7553 23.3672 33.7553C24.1082 33.7553 24.8317 33.5322 25.442 33.1155C26.0523 32.6987 26.5206 32.1081 26.7849 31.4216C27.0493 30.7352 27.0973 29.9853 26.9224 29.2712C26.7476 28.5572 26.3583 27.9126 25.806 27.4227L25.5631 27.205V15.614C25.5631 15.0366 25.3318 14.4829 24.9201 14.0747C24.5085 13.6664 23.9501 13.4371 23.368 13.4371Z" fill="white"/>
</svg>
