<svg width="13" height="13" viewBox="0 0 13 13" fill="none" xmlns="http://www.w3.org/2000/svg">
<path fill-rule="evenodd" clip-rule="evenodd" d="M0.5 2C0.5 1.46957 0.694505 0.960859 1.04073 0.585787C1.38695 0.210714 1.85652 0 2.34615 0H10.6538C11.1435 0 11.6131 0.210714 11.9593 0.585787C12.3055 0.960859 12.5 1.46957 12.5 2V8.5C12.5 9.03043 12.3055 9.53914 11.9593 9.91421C11.6131 10.2893 11.1435 10.5 10.6538 10.5H8.80769V10.6713C8.80769 11.0693 8.95354 11.4513 9.21323 11.732L9.59539 12.1467C9.65985 12.2166 9.70374 12.3056 9.72152 12.4026C9.73929 12.4995 9.73015 12.6 9.69525 12.6913C9.66035 12.7826 9.60126 12.8606 9.52544 12.9156C9.44961 12.9705 9.36046 12.9999 9.26923 13H3.73077C3.63954 12.9999 3.55039 12.9705 3.47456 12.9156C3.39874 12.8606 3.33965 12.7826 3.30475 12.6913C3.26985 12.6 3.26071 12.4995 3.27848 12.4026C3.29626 12.3056 3.34015 12.2166 3.40462 12.1467L3.78677 11.732C4.04628 11.4509 4.19215 11.0696 4.19231 10.672V10.5H2.34615C1.85652 10.5 1.38695 10.2893 1.04073 9.91421C0.694505 9.53914 0.5 9.03043 0.5 8.5V2ZM1.42308 2V7C1.42308 7.26522 1.52033 7.51957 1.69344 7.70711C1.86655 7.89464 2.10134 8 2.34615 8H10.6538C10.8987 8 11.1334 7.89464 11.3066 7.70711C11.4797 7.51957 11.5769 7.26522 11.5769 7V2C11.5769 1.73478 11.4797 1.48043 11.3066 1.29289C11.1334 1.10536 10.8987 1 10.6538 1H2.34615C2.10134 1 1.86655 1.10536 1.69344 1.29289C1.52033 1.48043 1.42308 1.73478 1.42308 2Z" fill="white"/>
</svg>
