<svg width="116" height="114" viewBox="0 0 116 114" fill="none" xmlns="http://www.w3.org/2000/svg">
<path d="M18.4624 75.3926C16.4496 75.3926 14.4819 74.7958 12.8082 73.6775C11.1346 72.5592 9.83015 70.9697 9.05986 69.11C8.28957 67.2504 8.08802 65.2041 8.48071 63.2299C8.87341 61.2557 9.8427 59.4423 11.266 58.0189C12.6893 56.5956 14.5027 55.6263 16.4769 55.2336C18.4511 54.841 20.4975 55.0425 22.3571 55.8128C24.2168 56.5831 25.8062 57.8875 26.9245 59.5612C28.0428 61.2348 28.6397 63.2025 28.6397 65.2154C28.6397 67.9145 27.5675 70.5032 25.6589 72.4118C23.7502 74.3204 21.1616 75.3926 18.4624 75.3926ZM18.4624 55.5112C16.5408 55.5107 14.6622 56.08 13.0642 57.1472C11.4662 58.2143 10.2206 59.7315 9.48483 61.5066C8.74909 63.2818 8.5563 65.2353 8.93085 67.12C9.3054 69.0048 10.2305 70.7361 11.589 72.0951C12.9476 73.454 14.6787 74.3796 16.5633 74.7547C18.448 75.1297 20.4015 74.9375 22.1769 74.2023C23.9523 73.467 25.4697 72.2218 26.5374 70.6241C27.605 69.0264 28.1749 67.148 28.1749 65.2264C28.1719 62.6511 27.1478 60.1821 25.3271 58.3609C23.5064 56.5397 21.0377 55.5148 18.4624 55.5112Z" fill="#EBEBEB"/>
<path d="M17.9517 76.832C17.7977 76.832 17.6437 76.8155 17.4896 76.8045L17.5281 76.3534C17.6739 76.3534 17.8224 76.3754 17.971 76.3809L17.9517 76.832ZM19.5691 76.7908L19.5251 76.3424C19.6736 76.3286 19.8194 76.3094 19.9679 76.2901L20.0284 76.7385C19.8772 76.7605 19.7259 76.777 19.5691 76.7908ZM15.8888 76.5569C15.7375 76.5239 15.5889 76.4854 15.4377 76.4469L15.5559 76.0096C15.699 76.0481 15.8448 76.0838 15.9878 76.1169L15.8888 76.5569ZM21.6183 76.4112L21.4945 75.9738C21.6375 75.9353 21.7696 75.8913 21.9209 75.8445L22.0611 76.2764L21.6183 76.4112ZM13.9166 75.9161C13.7735 75.8555 13.6415 75.7923 13.493 75.7263L13.6855 75.3164C13.8203 75.3824 13.9606 75.4429 14.0926 75.5007L13.9166 75.9161ZM23.5685 75.6685L23.3704 75.2614C23.5052 75.1954 23.6455 75.1294 23.7665 75.0579L23.9811 75.4567C23.838 75.5282 23.7005 75.5997 23.5602 75.6685H23.5685ZM12.0819 74.9313C11.9526 74.8461 11.8234 74.7581 11.6996 74.6563L11.9746 74.2877C12.0929 74.3757 12.2167 74.461 12.3405 74.5408L12.0819 74.9313ZM25.3481 74.5903L25.0731 74.2244L25.4251 73.9494L25.7002 74.3014C25.5764 74.4032 25.4637 74.4995 25.3399 74.5903H25.3481ZM10.448 73.6331C10.3353 73.5258 10.2252 73.4185 10.118 73.3057L10.448 72.9922C10.5526 73.0994 10.6571 73.204 10.7644 73.3057L10.448 73.6331ZM26.9022 73.2122L26.5749 72.9014C26.6767 72.7941 26.7757 72.6841 26.8747 72.5713L27.213 72.8684C27.1085 72.9867 27.0067 73.0994 26.8995 73.2122H26.9022ZM9.07274 72.068C8.98197 71.9442 8.89395 71.8176 8.79768 71.6884L9.17451 71.4381C9.25703 71.5591 9.3423 71.6829 9.43032 71.8011L9.07274 72.068ZM28.1895 71.5838L27.8127 71.3363C27.8924 71.2125 27.9722 71.086 28.0492 70.9595L28.4371 71.1905C28.3573 71.3088 28.2748 71.4491 28.1895 71.5838ZM8.00275 70.291C7.93399 70.1508 7.87072 70.016 7.80746 69.8702L8.2228 69.6887C8.28332 69.8262 8.34383 69.9637 8.40709 70.093L8.00275 70.291ZM29.1825 69.7409L28.7671 69.5649C28.8249 69.4274 28.8799 69.2898 28.9322 69.1495L29.3558 69.3091C29.287 69.4549 29.2292 69.5979 29.1687 69.7409H29.1825ZM7.27934 68.3381C7.23808 68.1896 7.20232 68.0411 7.16656 67.8898L7.60666 67.7852C7.63967 67.931 7.67543 68.0741 7.71669 68.2171L7.27934 68.3381ZM29.8151 67.755L29.375 67.656C29.408 67.5129 29.4355 67.3672 29.463 67.2214L29.9086 67.3011C29.8674 67.4579 29.8371 67.6037 29.8014 67.755H29.8151ZM6.90801 66.2917C6.89334 66.1376 6.88233 65.9836 6.875 65.8296L7.31235 65.8076C7.31235 65.9561 7.32335 66.1046 7.34535 66.2531L6.90801 66.2917ZM30.0819 65.6893L29.6308 65.6728C29.6308 65.5242 29.6308 65.3757 29.6308 65.2272V65.1804H30.0847V65.2244C30.0792 65.384 30.0764 65.5325 30.0682 65.6893H30.0819ZM7.33985 64.2479L6.88875 64.2094C6.88875 64.0554 6.91901 63.9014 6.93826 63.7501L7.38661 63.8051C7.37011 63.9536 7.35361 64.0994 7.33985 64.2479ZM29.5126 63.6291C29.4906 63.4833 29.4685 63.3347 29.441 63.1917L29.8866 63.1092C29.9141 63.2605 29.9389 63.4118 29.9609 63.5658L29.5126 63.6291ZM7.69743 62.2785L7.26009 62.1602C7.30226 62.0117 7.34627 61.8632 7.39211 61.7146L7.82396 61.8522C7.7717 61.9924 7.73044 62.1355 7.69743 62.2785ZM29.0532 61.6816C29.0037 61.5386 28.9542 61.4066 28.9019 61.2608L29.3255 61.1013C29.3805 61.2443 29.4328 61.3901 29.4823 61.5358L29.0532 61.6816ZM8.39059 60.4026L7.97249 60.21C8.03851 60.0698 8.10728 59.935 8.18154 59.7947L8.58038 60.0065C8.52262 60.1385 8.45385 60.2706 8.39059 60.4053V60.4026ZM28.25 59.8525C28.1785 59.7232 28.1042 59.5939 28.0272 59.4674L28.4151 59.2336C28.4948 59.3656 28.5718 59.5086 28.6461 59.6352L28.25 59.8525ZM9.41382 58.6862L9.04799 58.4111C9.13876 58.2874 9.23228 58.1636 9.32305 58.0426L9.67787 58.3176C9.59261 58.4469 9.50184 58.5652 9.41382 58.6862ZM27.1333 58.1939C27.0398 58.0783 26.9481 57.9655 26.8582 57.8555L27.1993 57.5557C27.3011 57.6712 27.4001 57.7895 27.4964 57.9078L27.1333 58.1939ZM10.7231 57.1761L10.4095 56.8488C10.5223 56.7415 10.6351 56.637 10.7506 56.5352L11.0504 56.8736C10.9459 56.9726 10.8359 57.0716 10.7231 57.1761ZM25.7332 56.7608C25.6204 56.6618 25.5049 56.5682 25.3894 56.4857L25.6644 56.1309C25.7855 56.2272 25.9037 56.3234 26.022 56.4252L25.7332 56.7608ZM12.2827 55.9356L12.0324 55.5588L12.423 55.3085L12.6595 55.6963C12.5385 55.7623 12.412 55.8421 12.2882 55.9246L12.2827 55.9356ZM24.1103 55.6055L23.7225 55.3882L23.9343 54.9894C24.0718 55.0637 24.2094 55.1379 24.3387 55.2177L24.1103 55.6055ZM14.0459 54.9701L13.8671 54.5548C14.0073 54.4943 14.1421 54.4365 14.2934 54.3815L14.4584 54.8023C14.3182 54.8574 14.1806 54.9124 14.0459 54.9701ZM22.2977 54.7418C22.1574 54.6896 22.0226 54.6428 21.8741 54.596L22.0144 54.1642C22.1602 54.2137 22.3087 54.2632 22.4517 54.3155L22.2977 54.7418ZM15.9493 54.3485L15.8475 53.9084C15.996 53.8726 16.1473 53.8424 16.3014 53.8121L16.3839 54.2577C16.2243 54.2852 16.0896 54.3155 15.9493 54.3485ZM20.3695 54.2247C20.2237 54.2 20.0779 54.178 19.9294 54.1587L19.9872 53.7104C20.1412 53.7296 20.2952 53.7544 20.4465 53.7791L20.3695 54.2247ZM17.9297 54.0762L17.9077 53.6251C18.0617 53.6251 18.2158 53.6251 18.3726 53.6113V54.0652C18.224 54.0652 18.0755 54.0679 17.927 54.0762H17.9297Z" fill="#EBEBEB"/>
<path d="M16.9013 71.5147H20.0343V66.7892H24.7598V63.6562H20.0343V58.9307H16.9013V63.6562H12.1758V66.7892H16.9013V71.5147Z" fill="#EBEBEB"/>
<path d="M103.92 23.5554C102.225 25.8225 100.061 27.6986 97.5773 29.0566C95.0989 27.6971 92.9414 25.821 91.2509 23.5554C89.0174 20.6012 89.1274 15.9747 92.3208 14.9735C95.8526 13.8732 97.5883 19.1847 97.5883 19.1847C97.5883 19.1847 99.3487 13.8347 102.858 14.9735C106.03 16.0215 106.151 20.6012 103.92 23.5554Z" fill="#EBEBEB"/>
<path d="M95.0886 26.7207L94.1259 22.713L93.496 24.1268H89.6094V23.673H93.2044L94.2524 21.3102L95.0033 24.4349L96.0651 17.96L97.003 23.0816L97.7429 20.9444L98.9092 24.4459L99.1678 23.673H105.555V24.1241H99.4951L98.9092 25.8735L97.7347 22.3499L96.8655 24.8585L96.0898 20.6088L95.0886 26.7207Z" fill="white"/>
<path d="M97.5874 30.9571C95.5746 30.9571 93.6069 30.3602 91.9332 29.2419C90.2596 28.1236 88.9552 26.5341 88.1849 24.6745C87.4146 22.8148 87.213 20.7685 87.6057 18.7943C87.9984 16.8201 88.9677 15.0067 90.391 13.5834C91.8143 12.1601 93.6277 11.1908 95.6019 10.7981C97.5761 10.4054 99.6225 10.6069 101.482 11.3772C103.342 12.1475 104.931 13.452 106.05 15.1256C107.168 16.7993 107.765 18.7669 107.765 20.7798C107.765 23.479 106.692 26.0676 104.784 27.9762C102.875 29.8848 100.287 30.9571 97.5874 30.9571ZM97.5874 11.0756C95.666 11.0756 93.7876 11.6454 92.19 12.713C90.5923 13.7805 89.3471 15.2978 88.6118 17.073C87.8765 18.8482 87.6841 20.8016 88.0589 22.6862C88.4338 24.5707 89.3591 26.3018 90.7178 27.6605C92.0765 29.0192 93.8075 29.9445 95.6921 30.3193C97.5767 30.6942 99.5301 30.5018 101.305 29.7665C103.08 29.0311 104.598 27.7859 105.665 26.1883C106.733 24.5906 107.303 22.7123 107.303 20.7908C107.302 18.2139 106.278 15.7427 104.457 13.92C102.635 12.0974 100.164 11.0723 97.5874 11.0701V11.0756Z" fill="#EBEBEB"/>
<path d="M97.0918 32.3959C96.9378 32.3959 96.7837 32.3794 96.6297 32.3657L96.6682 31.9146C96.814 31.9283 96.9625 31.9366 97.1138 31.9448L97.0918 32.3959ZM98.7119 32.3547L98.6679 31.9036C98.8164 31.8898 98.965 31.8733 99.1107 31.8541L99.1713 32.3024C99.0172 32.3217 98.8522 32.3409 98.6982 32.3547H98.7119ZM95.0288 32.1209C94.8776 32.0879 94.729 32.0494 94.5805 32.0109L94.696 31.5735C94.839 31.612 94.9848 31.6478 95.1306 31.6808L95.0288 32.1209ZM100.758 31.9724L100.635 31.5378C100.778 31.4965 100.91 31.4552 101.061 31.4085L101.201 31.8403C101.042 31.8871 100.893 31.9311 100.745 31.9751L100.758 31.9724ZM93.0566 31.48C92.9136 31.4195 92.7816 31.3562 92.6331 31.2902L92.8256 30.8804L93.2327 31.0646L93.0566 31.48ZM102.711 31.2297L102.513 30.8226C102.645 30.7593 102.788 30.6906 102.907 30.6218L103.121 31.0179C102.964 31.0922 102.827 31.1637 102.689 31.2297H102.711ZM91.222 30.4925C91.0927 30.4073 90.9662 30.3192 90.8396 30.2175L91.1147 29.8489C91.2357 29.9369 91.3568 30.0194 91.4805 30.1019L91.222 30.4925ZM104.488 30.1514L104.213 29.7884C104.334 29.7003 104.45 29.6096 104.565 29.5133L104.84 29.8681C104.714 29.9672 104.593 30.0497 104.466 30.1514H104.488ZM89.5936 29.197C89.4808 29.0897 89.3708 28.9797 89.2636 28.8697L89.5909 28.5561C89.6936 28.6606 89.7981 28.7651 89.9044 28.8697L89.5936 29.197ZM106.048 28.7761L105.72 28.4626C105.822 28.3553 105.921 28.2453 106.02 28.1352L106.361 28.4323C106.238 28.5478 106.133 28.6744 106.026 28.7761H106.048ZM88.2211 27.6319C88.1303 27.5054 88.0423 27.3816 87.946 27.2523L88.3201 26.9992C88.4026 27.123 88.4879 27.244 88.5759 27.3651L88.2211 27.6319ZM107.341 27.1423L106.961 26.8947C107.041 26.7682 107.121 26.6444 107.198 26.5151L107.585 26.7489C107.484 26.881 107.401 27.024 107.319 27.1423H107.341ZM87.1511 25.8467C87.0823 25.7092 87.019 25.5717 86.9585 25.4286L87.3711 25.2471C87.4316 25.3819 87.4922 25.5222 87.5582 25.6514L87.1511 25.8467ZM108.331 25.2966L107.915 25.1206C107.973 24.9858 108.028 24.8455 108.081 24.708L108.504 24.8675C108.413 25.016 108.369 25.1618 108.295 25.3021L108.331 25.2966ZM86.4304 23.8965C86.3892 23.748 86.3506 23.5967 86.3149 23.4482L86.755 23.3437C86.788 23.4895 86.8265 23.6325 86.865 23.7755L86.4304 23.8965ZM108.919 23.3189L108.477 23.2199C108.51 23.0741 108.54 22.9283 108.565 22.7825L109.01 22.8623C108.994 23.0164 108.963 23.1731 108.919 23.3189ZM86.0096 21.8528C85.9949 21.7006 85.9839 21.5466 85.9766 21.3907L86.4277 21.3687C86.4277 21.5173 86.4469 21.6658 86.4607 21.8116L86.0096 21.8528ZM109.195 21.2477L108.741 21.2312C108.741 21.0827 108.741 20.9341 108.741 20.7856V20.7388H109.195V20.7829C109.195 20.9451 109.195 21.0992 109.195 21.2477ZM86.4634 19.8064L86.0151 19.7679C86.0151 19.6138 86.0426 19.4598 86.0618 19.3058L86.5129 19.3635C86.4964 19.5148 86.4799 19.6634 86.4662 19.8119L86.4634 19.8064ZM108.644 19.193C108.625 19.0445 108.6 18.8987 108.573 18.7529L109.018 18.6704C109.046 18.8217 109.071 18.9757 109.093 19.127L108.644 19.193ZM86.8238 17.8424L86.3864 17.7242C86.4277 17.5729 86.4717 17.4271 86.5184 17.2786L86.9503 17.4161C86.9145 17.5564 86.8568 17.6994 86.8182 17.8424H86.8238ZM108.185 17.2456C108.138 17.1053 108.086 16.9705 108.034 16.8275L108.457 16.6652C108.512 16.8119 108.565 16.9577 108.614 17.1025L108.185 17.2456ZM87.5224 15.9665L87.1153 15.7712C87.1813 15.631 87.2528 15.4962 87.3244 15.3586L87.7232 15.5704C87.6489 15.6997 87.5829 15.8345 87.5169 15.9665H87.5224ZM107.382 15.4164C107.31 15.2844 107.236 15.1578 107.159 15.0313L107.547 14.7975C107.627 14.9268 107.704 15.0726 107.778 15.1964L107.382 15.4164ZM88.5484 14.2474L88.1798 13.9723C88.2715 13.8458 88.3632 13.722 88.4549 13.601L88.8097 13.8761C88.7189 14.0081 88.6282 14.1291 88.5429 14.2474H88.5484ZM106.265 13.7578C106.172 13.6423 106.075 13.5295 105.976 13.4167L106.317 13.1196C106.419 13.2352 106.518 13.3507 106.614 13.4717L106.265 13.7578ZM89.8604 12.7373L89.5469 12.4127C89.6596 12.3055 89.7724 12.2009 89.8879 12.0992L90.1823 12.4457C90.0722 12.5365 89.9622 12.6355 89.8549 12.7373H89.8604ZM104.871 12.322C104.758 12.2257 104.642 12.1322 104.527 12.0469L104.802 11.6921C104.923 11.7883 105.041 11.8874 105.159 11.9891L104.871 12.322ZM91.4228 11.4968L91.1697 11.1227C91.299 11.0347 91.4283 10.9522 91.5603 10.8724L91.7969 11.2602C91.6648 11.3262 91.5383 11.406 91.4173 11.4858L91.4228 11.4968ZM103.25 11.1695C103.124 11.0952 102.995 11.0209 102.863 10.9522L103.074 10.5533C103.212 10.6248 103.349 10.7019 103.479 10.7789L103.25 11.1695ZM93.1859 10.5451L93.0071 10.1297C93.1465 10.0692 93.2895 10.0114 93.4362 9.95643L93.5985 10.3773C93.4445 10.4185 93.3097 10.4763 93.1722 10.5341L93.1859 10.5451ZM101.438 10.314C101.297 10.2645 101.163 10.215 101.017 10.171L101.154 9.73914C101.303 9.7859 101.449 9.83541 101.595 9.89042L101.438 10.314ZM95.0839 9.92343L94.9821 9.48058C95.1306 9.44757 95.2819 9.41456 95.4359 9.38706L95.5184 9.82991C95.3617 9.84641 95.2159 9.87942 95.0728 9.91242L95.0839 9.92343ZM99.5041 9.79965C99.3583 9.77489 99.2125 9.75289 99.064 9.73363L99.1218 9.28529C99.2758 9.30454 99.4298 9.32654 99.5811 9.35405L99.5041 9.79965ZM97.0643 9.65112L97.045 9.19727C97.1963 9.19727 97.3504 9.19727 97.5071 9.19727V9.64837C97.3504 9.62911 97.2018 9.63186 97.0533 9.64011L97.0643 9.65112Z" fill="#EBEBEB"/>
<path d="M29.8134 19.3566C31.6862 12.5391 27.6777 5.49433 20.8602 3.6216C14.0427 1.74888 6.99796 5.75738 5.12524 12.5748C3.25252 19.3923 7.26102 26.4371 14.0785 28.3098C20.8959 30.1825 27.9407 26.174 29.8134 19.3566Z" fill="#EBEBEB"/>
<path d="M22.6675 27.5653C28.9147 25.0184 31.9144 17.8894 29.3675 11.6422C26.8206 5.39495 19.6916 2.39526 13.4444 4.94215C7.19717 7.48905 4.19748 14.6181 6.74437 20.8653C9.29126 27.1125 16.4203 30.1122 22.6675 27.5653Z" fill="#DBDBDB"/>
<path d="M18.0558 27.6947C24.3754 27.6947 29.4984 22.5717 29.4984 16.2521C29.4984 9.93258 24.3754 4.80957 18.0558 4.80957C11.7363 4.80957 6.61328 9.93258 6.61328 16.2521C6.61328 22.5717 11.7363 27.6947 18.0558 27.6947Z" fill="white"/>
<path opacity="0.5" d="M29.2421 13.8209C24.016 16.9786 15.4643 22.158 10.6782 24.9966C9.32533 23.8558 8.2549 22.4172 7.55078 20.7937L23.3723 6.11914C24.8537 6.89645 26.1469 7.98877 27.161 9.31933C28.175 10.6499 28.8854 12.1864 29.2421 13.8209Z" fill="#EBEBEB"/>
<path opacity="0.5" d="M29.4951 16.6514C29.4537 17.9247 29.1979 19.1819 28.7387 20.3702L14.4657 27.1202C13.8436 26.916 13.2407 26.6574 12.6641 26.3473C16.9743 23.8552 24.852 19.3222 29.4951 16.6514Z" fill="#EBEBEB"/>
<path d="M18.1654 5.64062H17.9453V7.37626H18.1654V5.64062Z" fill="#C7C7C7"/>
<path d="M12.8468 7.00326L12.6562 7.11328L13.5241 8.61639L13.7146 8.50636L12.8468 7.00326Z" fill="#C7C7C7"/>
<path d="M8.91862 10.8475L8.80859 11.0381L10.3117 11.9059L10.4217 11.7153L8.91862 10.8475Z" fill="#C7C7C7"/>
<path d="M9.18095 16.1426H7.44531V16.3626H9.18095V16.1426Z" fill="#C7C7C7"/>
<path d="M10.3117 20.5951L8.80859 21.4629L8.91862 21.6535L10.4217 20.7856L10.3117 20.5951Z" fill="#C7C7C7"/>
<path d="M13.523 23.883L12.6562 25.3867L12.8469 25.4966L13.7137 23.9929L13.523 23.883Z" fill="#C7C7C7"/>
<path d="M18.1654 25.1309H17.9453V26.8665H18.1654V25.1309Z" fill="#C7C7C7"/>
<path d="M22.589 23.8851L22.3984 23.9951L23.2663 25.4982L23.4568 25.3882L22.589 23.8851Z" fill="#C7C7C7"/>
<path d="M25.9303 20.4463L25.8203 20.6377L27.3303 21.5055L27.4403 21.3141L25.9303 20.4463Z" fill="#C7C7C7"/>
<path d="M28.6692 16.1426H26.9336V16.3626H28.6692V16.1426Z" fill="#C7C7C7"/>
<path d="M27.1945 10.8529L25.6914 11.7207L25.8014 11.9113L27.3045 11.0435L27.1945 10.8529Z" fill="#C7C7C7"/>
<path d="M23.2657 7.00538L22.3984 8.50879L22.589 8.61875L23.4563 7.11534L23.2657 7.00538Z" fill="#C7C7C7"/>
<path d="M18.2253 6.42463L18.6021 17.0255L17.5156 17.0117L17.931 6.42188L18.2253 6.42463Z" fill="#C7C7C7"/>
<path d="M24.8291 12.5554L17.6996 17.1077L17.1797 16.1532L24.6889 12.2969L24.8291 12.5554Z" fill="#A6A6A6"/>
<path d="M18.4224 16.2522C18.4224 16.3256 18.4006 16.3974 18.3598 16.4585C18.319 16.5196 18.261 16.5672 18.1931 16.5953C18.1253 16.6234 18.0506 16.6307 17.9786 16.6164C17.9065 16.6021 17.8404 16.5667 17.7884 16.5148C17.7365 16.4628 17.7012 16.3967 17.6868 16.3246C17.6725 16.2526 17.6798 16.1779 17.708 16.1101C17.7361 16.0422 17.7837 15.9842 17.8447 15.9434C17.9058 15.9026 17.9776 15.8809 18.051 15.8809C18.1495 15.8809 18.244 15.92 18.3136 15.9896C18.3832 16.0593 18.4224 16.1537 18.4224 16.2522Z" fill="#C7C7C7"/>
<path d="M11.9837 77.9262L8.37485 78.0005L6.54294 78.0335C5.92956 78.0335 5.31342 78.0335 4.70003 78.0473H4.579V77.9262L4.5625 74.8483V74.708H4.70003L8.34184 74.7245C9.55762 74.7245 10.7706 74.7548 11.9837 74.7685H12.0607V74.8428C12.0607 75.3627 12.0359 75.8825 12.0249 76.3969L11.9837 77.9262ZM11.9837 77.9262L11.9451 76.3694C11.9451 75.8578 11.9149 75.3517 11.9094 74.8483L11.9837 74.9226C10.7706 74.9363 9.55762 74.9666 8.34184 74.9666L4.70003 74.9858L4.83756 74.8483V77.9262L4.71378 77.8024C5.31342 77.8024 5.91305 77.8025 6.51544 77.8162L8.32534 77.8492L11.9837 77.9262Z" fill="#EBEBEB"/>
<path d="M7.92116 81.8075L4.31235 81.8817L2.48044 81.9147C1.86706 81.9147 1.25092 81.9147 0.637531 81.9285H0.516504V81.8075L0.5 78.735V78.5947H0.637531L4.27934 78.6112C5.49237 78.6112 6.70814 78.6415 7.92116 78.6552H7.99817V78.735C7.99817 79.2549 7.97617 79.7747 7.96242 80.2891L7.92116 81.8075ZM7.92116 81.8075L7.88265 80.2506C7.8689 79.739 7.85239 79.2329 7.84689 78.7295L7.92116 78.8038C6.70814 78.8175 5.49237 78.8478 4.27934 78.8478L0.637531 78.8643L0.775061 78.7295L0.761309 81.8075L0.637531 81.6837C1.23716 81.6837 1.8368 81.6837 2.43918 81.6837L4.24909 81.7167L7.92116 81.8075Z" fill="#EBEBEB"/>
<path d="M82.4028 43.6618L78.7912 43.7388L76.9593 43.769C76.3487 43.7828 75.7325 43.769 75.1192 43.7855H74.9981V43.6618L74.9844 40.5838V40.4463H75.1219L78.7637 40.4655C79.9767 40.4655 81.1925 40.4958 82.4055 40.5096H82.4826V40.5838C82.4826 41.1064 82.4605 41.6263 82.4468 42.1407L82.4028 43.6618ZM82.4028 43.6618L82.3643 42.1077C82.3643 41.596 82.334 41.0872 82.3285 40.5838L82.4028 40.6608C81.1898 40.6608 79.974 40.7021 78.761 40.7048L75.1192 40.7214L75.2567 40.5838L75.2402 43.6618L75.1192 43.5407C75.7188 43.5407 76.3184 43.5407 76.9181 43.5407L78.728 43.571L82.4028 43.6618Z" fill="#EBEBEB"/>
<path d="M78.3403 47.5428L74.7287 47.6198L72.8858 47.6528C72.2752 47.6528 71.659 47.6528 71.0457 47.6693H70.9219V47.5455V44.4676V44.3301H71.0594L74.7012 44.3493C75.9142 44.3493 77.1273 44.3796 78.343 44.3933H78.4173V44.4676C78.4173 44.9902 78.3926 45.5101 78.3815 46.0245L78.3403 47.5428ZM78.3403 47.5428L78.3018 45.9887C78.288 45.4771 78.2688 44.9682 78.2633 44.4649L78.3403 44.5419C77.1245 44.5556 75.9115 44.5831 74.6985 44.5859L71.0567 44.6024L71.1942 44.4649L71.1777 47.5428L71.0567 47.4218C71.6563 47.4218 72.2559 47.4218 72.8556 47.4355L74.6655 47.4658L78.3403 47.5428Z" fill="#EBEBEB"/>
<path d="M74.2922 43.6618L70.6834 43.7388L68.8515 43.769C68.2381 43.7828 67.6248 43.769 67.0086 43.7855H66.8876V43.6618L66.8711 40.5838V40.4463H67.0086L70.6504 40.4655C71.8662 40.4655 73.0792 40.4958 74.2922 40.5096H74.3693V40.5838C74.3693 41.1064 74.3445 41.6263 74.3335 42.1407L74.2922 43.6618ZM74.2922 43.6618L74.2537 42.1077C74.2537 41.596 74.2235 41.0872 74.218 40.5838L74.2922 40.6608C73.0792 40.6608 71.8662 40.7021 70.6504 40.7048L67.0086 40.7214L67.1462 40.5838L67.1324 43.6618L67.0086 43.5407C67.611 43.5407 68.2079 43.5407 68.8103 43.5407L70.6202 43.571L74.2922 43.6618Z" fill="#EBEBEB"/>
<path d="M115.425 81.8075L111.814 81.8817L109.982 81.9147C109.371 81.9147 108.755 81.9147 108.141 81.9285H108.018V81.8075L108.004 78.735V78.5947H108.141L111.783 78.6112C112.996 78.6112 114.212 78.6415 115.425 78.6552H115.499V78.735C115.499 79.2549 115.477 79.7747 115.464 80.2891L115.425 81.8075ZM115.425 81.8075L115.387 80.2506C115.387 79.739 115.354 79.2329 115.351 78.7295L115.425 78.8038C114.212 78.8175 112.996 78.8478 111.783 78.8478L108.141 78.8643L108.279 78.7295L108.262 81.8075L108.141 81.6837C108.741 81.6837 109.341 81.6837 109.94 81.6837L111.75 81.7167L115.425 81.8075Z" fill="#EBEBEB"/>
<path d="M111.361 6.52859L107.75 6.60285L105.918 6.63586C105.307 6.63586 104.691 6.63586 104.078 6.64961H103.965V6.52584V3.4479V3.30762H104.105L107.747 3.32412C108.96 3.32412 110.173 3.35438 111.389 3.36813H111.463V3.4424C111.463 3.96501 111.438 4.48213 111.427 4.99649L111.361 6.52859ZM111.361 6.52859L111.323 4.97174C111.309 4.46013 111.29 3.95401 111.284 3.45065L111.361 3.52492C110.145 3.52492 108.932 3.56893 107.719 3.56893L104.078 3.58818L104.215 3.45065L104.199 6.52859L104.078 6.40481C104.677 6.40481 105.274 6.40481 105.877 6.42131L107.686 6.45157L111.361 6.52859Z" fill="#EBEBEB"/>
<path d="M115.425 10.4096L111.814 10.4839L109.982 10.5169C109.371 10.5169 108.755 10.5169 108.141 10.5307H108.018V10.4096L108.004 7.33169V7.19141H108.141L111.783 7.20791C112.996 7.20791 114.212 7.23817 115.425 7.25192H115.499V7.32619C115.499 7.84605 115.477 8.36592 115.464 8.88028L115.425 10.4096ZM115.425 10.4096L115.387 8.85278C115.387 8.34116 115.354 7.83505 115.351 7.33169L115.425 7.40595C114.212 7.40595 112.996 7.44996 111.783 7.44996L108.141 7.46922L108.279 7.33169L108.262 10.4096L108.141 10.2858C108.741 10.2858 109.341 10.2858 109.94 10.3024L111.75 10.3326L115.425 10.4096Z" fill="#EBEBEB"/>
<path d="M11.9837 6.52877L8.37485 6.60303L6.54294 6.63604C5.92956 6.63604 5.31342 6.63604 4.70003 6.64979H4.579V6.52602L4.5625 3.45083V3.31055H4.70003L8.34184 3.32705C9.55762 3.32705 10.7706 3.35731 11.9837 3.37106H12.0607V3.44533C12.0607 3.96794 12.0359 4.48506 12.0249 4.99942L11.9837 6.52877ZM11.9837 6.52877L11.9451 4.97192C11.9451 4.4603 11.9149 3.95419 11.9094 3.45083L11.9837 3.52509C10.7706 3.52509 9.55762 3.5691 8.34184 3.5691L4.70003 3.58836L4.83756 3.45083V6.52877L4.70003 6.39399C5.29966 6.39399 5.8993 6.39399 6.50168 6.41049L8.31159 6.44075L11.9837 6.52877Z" fill="#EBEBEB"/>
<path d="M58.0313 113.951C88.1115 113.951 112.496 111.128 112.496 107.646C112.496 104.164 88.1115 101.342 58.0313 101.342C27.9512 101.342 3.56641 104.164 3.56641 107.646C3.56641 111.128 27.9512 113.951 58.0313 113.951Z" fill="#EBEBEB"/>
<path d="M19.4183 48.5395H15.947V44.8069H12.2227V41.3467H15.947V37.6113H19.4073V41.3467H23.1398V44.8069H19.4183V48.5395ZM16.4504 48.0472H18.9259V44.3146H22.6585V41.839H18.9259V38.1037H16.4504V41.839H12.715V44.3146H16.4504V48.0472Z" fill="#3C8AFF"/>
<path d="M103.321 73.2124H99.8576V69.4798H96.125V66.0195H99.8576V62.2842H103.321V66.0195H107.053V69.4798H103.321V73.2124ZM100.353 72.72H102.828V68.9874H106.561V66.5119H102.828V62.782H100.353V66.5174H96.6174V68.9929H100.353V72.72Z" fill="#3C8AFF"/>
<path d="M85.1352 9.58219V13.0425H81.4026V16.7778H77.9424V13.0425H74.207V9.58219H77.9424V5.84961H81.4026V9.58219H85.1352Z" fill="#3C8AFF"/>
<path d="M51.739 10.2942C52.457 10.2722 55.4634 9.42773 57.9499 11.884C60.3045 14.2083 62.2656 22.1136 62.9561 23.7942C63.6465 25.4748 65.9817 25.373 66.8372 27.2985C67.5798 28.9681 66.4136 29.8125 66.4851 31.1108C66.5429 32.1203 67.7806 33.4488 67.1095 35.0607C66.5016 36.5268 65.008 36.4773 64.1993 37.0356C63.3906 37.594 63.1706 39.7037 61.6385 40.5097C60.1064 41.3156 58.4423 40.0668 57.5841 40.2126C56.7259 40.3584 56.129 43.1558 53.2904 43.3731C50.4518 43.5904 49.2635 41.3486 48.0312 41.0653C46.7989 40.782 44.0236 42.0555 42.4667 40.8205C40.9099 39.5855 40.3735 37.693 39.6611 37.0797C38.9487 36.4663 37.7192 36.7771 36.7152 35.2505C35.7112 33.7239 37.07 32.4366 37.059 30.976C37.059 29.9583 36.022 29.1854 36.3989 27.568C36.9187 25.3455 39.5428 25.384 40.1755 23.0845C40.6706 21.2829 41.0804 13.7324 45.2091 11.2156C48.0697 9.4965 51.739 10.2942 51.739 10.2942Z" fill="#263238"/>
<path d="M62.8047 23.3867C63.0326 23.7311 63.3414 24.0144 63.7041 24.2119L64.7411 24.8528C65.4423 25.234 66.079 25.7231 66.628 26.3024C66.8836 26.5788 67.0716 26.9106 67.1776 27.2719C67.2835 27.6331 67.3044 28.0139 67.2387 28.3846C67.1505 28.7604 67.0048 29.1204 66.8068 29.4518C66.5768 29.8157 66.4017 30.2114 66.287 30.6263C66.2485 31.0831 66.3627 31.5397 66.6115 31.9246C66.8013 32.2932 67.0049 32.6398 67.1754 32.9974C67.5192 33.7015 67.7035 34.4799 67.4505 35.1979C67.3394 35.5545 67.1118 35.8635 66.8041 36.0753C66.4751 36.2837 66.109 36.4266 65.7258 36.4961C65.3353 36.5869 64.9337 36.6392 64.5293 36.7079C64.1172 36.7427 63.7252 36.9009 63.4043 37.1618C63.7464 36.947 64.1419 36.8327 64.5458 36.8317C64.9502 36.796 65.3573 36.7795 65.7671 36.7189C66.188 36.6662 66.5944 36.5317 66.9636 36.3229C67.3426 36.0892 67.633 35.736 67.7888 35.3189C68.1381 34.4937 67.9016 33.553 67.555 32.8131C67.3845 32.4335 67.1809 32.0732 67.0049 31.7128C66.8066 31.4118 66.7102 31.055 66.7298 30.6951C66.8673 30.0185 67.4972 29.3198 67.6403 28.4561C67.7156 28.0237 67.6857 27.5794 67.553 27.161C67.4204 26.7425 67.189 26.3622 66.8783 26.0521C66.2778 25.4784 65.5898 25.0039 64.8401 24.6465L63.7399 24.0964C63.3804 23.9304 63.0613 23.6883 62.8047 23.3867Z" fill="#263238"/>
<path d="M41.8073 16.002C41.2407 17.3525 40.9821 18.8021 40.5915 20.1939C40.3935 20.8898 40.2202 21.594 39.9726 22.2651C39.8616 22.5937 39.7149 22.9091 39.5353 23.2058C39.499 23.2745 39.4516 23.3368 39.395 23.3901C39.345 23.4503 39.2866 23.5031 39.2217 23.5469C39.0842 23.6514 38.9467 23.7477 38.7844 23.8412C38.1553 24.2211 37.5457 24.6324 36.958 25.0735C36.3364 25.5327 35.8731 26.1738 35.6322 26.9081C35.52 27.2842 35.5048 27.6826 35.5882 28.0661C35.689 28.4341 35.8589 28.7794 36.0888 29.0839C36.5261 29.6698 36.9442 30.2584 37.0817 30.9873C37.0542 30.2446 36.6471 29.5735 36.2786 28.9601C36.0865 28.6697 35.9503 28.346 35.877 28.0056C35.8247 27.6716 35.8588 27.3298 35.976 27.0127C36.2275 26.3674 36.6603 25.8086 37.222 25.4036C37.8068 24.9824 38.4128 24.5913 39.0374 24.2318C39.1915 24.13 39.3455 24.0255 39.4968 23.9072C39.654 23.7808 39.7849 23.6248 39.8819 23.4479C40.0751 23.1197 40.231 22.7709 40.3467 22.4081C40.5795 21.7109 40.7687 20.9999 40.9133 20.2792L41.3314 18.1337C41.4483 17.4144 41.6072 16.7026 41.8073 16.002Z" fill="#263238"/>
<path d="M38.9102 36.7109C39.2815 37.074 39.408 37.6049 39.6033 38.0862C39.7986 38.5676 39.9801 39.06 40.1947 39.5413C40.4033 40.0323 40.6633 40.4997 40.9704 40.9359C41.2852 41.3966 41.7071 41.7742 42.1999 42.0361C43.2809 42.5065 44.4306 42.2452 45.4071 41.9013C45.905 41.7253 46.3836 41.5245 46.8732 41.3512C47.3498 41.154 47.8664 41.0729 48.3805 41.1147C47.8647 40.9818 47.3229 40.9875 46.8099 41.1312C46.2956 41.2522 45.8004 41.4062 45.2998 41.5493C44.3261 41.8243 43.2644 41.9976 42.3979 41.6043C41.9704 41.3748 41.6022 41.049 41.3224 40.6526C41.0186 40.245 40.7482 39.8136 40.5138 39.3625C40.2662 38.9087 40.0434 38.4411 39.8096 37.9872C39.6886 37.7534 39.5648 37.5224 39.43 37.2968C39.3094 37.0605 39.1305 36.8588 38.9102 36.7109Z" fill="#263238"/>
<path d="M65.9143 99.6644H42.0884L40.6719 70.1943H61.9616L65.9143 99.6644Z" fill="#37474F"/>
<path d="M55.2941 70.1943L52.7773 90.1528L52.7746 90.183L52.7196 90.5984L52.6178 91.4153L52.5023 92.3258L52.461 92.6503L52.428 92.9117L51.5781 99.6644H42.0884L40.6719 70.1943H55.2941Z" fill="#263238"/>
<path d="M61.0758 99.6642H60.4459C60.4129 99.4029 60.3826 99.1443 60.3496 98.883C59.5024 92.0065 58.68 85.1299 57.9648 78.2534C57.8988 77.6235 57.8328 76.9909 57.7695 76.361C57.7695 76.2619 57.9291 76.2427 57.9428 76.3417C58.0006 76.7653 58.0611 77.1889 58.1161 77.6125C59.1338 84.9566 60.1021 92.3118 61.0758 99.6642Z" fill="#263238"/>
<path d="M59.7983 70.1719C59.7993 70.1792 59.7993 70.1866 59.7983 70.1939C59.7351 70.4882 59.0392 73.7174 58.1205 77.6205C58.071 77.8323 58.0214 78.0469 57.9692 78.2614C57.5621 79.9641 57.1192 81.7657 56.6709 83.4876C55.7027 87.2257 54.7097 90.5759 54.0331 91.6789C53.9594 91.8155 53.8571 91.9347 53.7332 92.0283C53.5132 92.1575 53.0456 92.3886 52.4652 92.6609L52.0801 92.8397L51.75 92.991C50.4297 93.5961 48.8426 94.2893 48.1082 94.5946V94.6523L47.8524 99.6695H25.4102L27.7867 85.3663L30.6556 70.1856L59.7983 70.1719Z" fill="#37474F"/>
<path d="M55.6745 91.0466C53.0635 91.9969 50.54 93.1722 48.1323 94.5591C48.1139 94.5698 48.1002 94.5869 48.0938 94.6072C48.0874 94.6275 48.0888 94.6494 48.0978 94.6687C48.1067 94.688 48.1226 94.7033 48.1422 94.7115C48.1618 94.7197 48.1838 94.7203 48.2038 94.7131C50.7426 93.6129 53.3337 92.5786 55.8093 91.3491C55.8494 91.3312 55.8808 91.2982 55.8965 91.2572C55.9122 91.2161 55.911 91.1706 55.8932 91.1304C55.8753 91.0903 55.8422 91.0589 55.8012 91.0432C55.7602 91.0275 55.7146 91.0287 55.6745 91.0466Z" fill="#263238"/>
<path d="M56.4419 73.6515C56.4419 73.5635 56.2824 73.5443 56.2824 73.6515C56.3016 76.6772 56.1091 79.3178 55.856 82.1372C55.7377 83.4437 54.687 90.6641 52.4178 90.147C52.0382 90.059 51.8429 89.6849 51.7851 89.1127C51.7136 88.4223 51.9722 87.5807 52.0849 86.8958C52.338 85.3829 52.5388 83.8701 52.6681 82.3352C52.9336 79.4892 52.9032 76.6233 52.5773 73.7836C52.574 73.7667 52.5649 73.7514 52.5516 73.7405C52.5383 73.7295 52.5216 73.7235 52.5044 73.7235C52.4872 73.7235 52.4705 73.7295 52.4572 73.7405C52.4439 73.7514 52.4348 73.7667 52.4315 73.7836C52.4315 77.7335 52.3297 81.6751 51.7411 85.5892C51.466 87.4679 50.5088 90.2983 52.4755 90.5898C54.4422 90.8814 55.7763 86.1421 56.0183 84.8438C56.7005 81.2102 56.728 77.3154 56.4419 73.6515Z" fill="#263238"/>
<path d="M52.4775 90.3316C52.2743 90.8186 52.1033 91.3185 51.9659 91.8279C51.8212 92.2225 51.7495 92.64 51.7541 93.0602C51.7541 93.14 51.8696 93.1482 51.9109 93.0932C52.1471 92.7237 52.3252 92.3202 52.439 91.8967C52.6123 91.4319 52.7938 90.9725 52.9534 90.5049C52.9764 90.4418 52.9733 90.3721 52.945 90.3113C52.9166 90.2504 52.8652 90.2033 52.8021 90.1803C52.739 90.1573 52.6694 90.1604 52.6085 90.1887C52.5476 90.2171 52.5005 90.2685 52.4775 90.3316Z" fill="#263238"/>
<path d="M35.6896 91.8338C35.4641 94.4469 35.1972 97.06 34.9167 99.6648H34.6719C34.9469 97.0517 35.2605 94.4387 35.5988 91.8311C35.6071 91.7733 35.6951 91.7733 35.6896 91.8338Z" fill="#263238"/>
<path d="M51.0917 43.819C53.1464 50.5195 62.0391 74.4526 68.0025 78.0999C71.9056 80.4847 91.5092 81.8407 95.2803 80.0913C97.3735 79.1176 96.7216 63.2851 94.2543 63.1971C91.1764 63.087 76.0453 62.68 74.3701 61.8795C72.695 61.0791 61.3927 45.9645 57.0853 41.3847C49.6614 33.4849 49.7219 39.3575 51.0917 43.819Z" fill="#AD6359"/>
<path d="M89.563 62.0084L86.7684 81.3727C86.7684 81.3727 70.8478 81.8404 66.5073 78.2893C60.3212 73.2337 51.4505 47.653 50.4438 43.6508C48.059 34.1612 53.3732 35.7455 57.5541 40.3501C60.269 43.3482 70.9496 58.6857 74.905 61.5106C76.0272 62.322 89.563 62.0084 89.563 62.0084Z" fill="#EBEBEB"/>
<path d="M82.8442 80.4241C83.1715 77.5497 84.9402 65.8459 85.493 63.3345C85.5315 63.1613 85.6526 63.142 85.6361 63.3345C84.8631 71.9687 83.4356 77.6377 82.9597 80.4379C82.946 80.5039 82.8359 80.4984 82.8442 80.4241Z" fill="#263238"/>
<path d="M61.9712 63.0046L64.631 81.2962C64.631 81.2962 34.8199 81.7363 27.418 81.2164C27.418 81.2164 33.4556 47.018 41.4131 38.3756C45.3932 34.0544 50.0665 34.379 53.0454 37.3991C53.7991 38.1638 62.7909 50.052 63.7371 54.5877C64.5623 58.5926 61.9712 63.0046 61.9712 63.0046Z" fill="#3C8AFF"/>
<path d="M50.3558 60.9632C51.9452 60.8197 53.543 60.793 55.1364 60.8834C55.9258 60.9411 56.7097 61.0319 57.4936 61.1419C57.8842 61.197 58.2776 61.2382 58.6681 61.2767C59.0792 61.3276 59.4949 61.3276 59.9059 61.2767C59.9417 61.2767 59.9499 61.3262 59.9059 61.3345C59.5252 61.4215 59.1394 61.484 58.7507 61.5215C58.3734 61.5477 57.9947 61.5477 57.6174 61.5215C56.8142 61.472 56.0138 61.3867 55.2106 61.329C53.5933 61.2135 51.9759 61.0952 50.353 61.0979C50.2843 61.0979 50.2815 60.9714 50.3558 60.9632Z" fill="#263238"/>
<path d="M46.759 63.0567C48.025 62.6881 49.3107 62.3906 50.6099 62.1655C51.2591 62.0555 51.9109 61.984 52.5683 61.929C52.8792 61.9042 53.1955 61.8822 53.5091 61.8657C53.8226 61.8492 54.2022 61.8657 54.546 61.8657C54.5818 61.8657 54.5928 61.918 54.546 61.9235C54.2215 61.9538 53.8996 62.039 53.5778 62.0913L52.6041 62.2398C51.9577 62.3416 51.3113 62.4516 50.6594 62.5479C49.3611 62.7377 48.0683 62.9412 46.7756 63.1778C46.693 63.1695 46.682 63.0705 46.759 63.0567Z" fill="#263238"/>
<path d="M46.5869 99.6645H23.0664C25.817 82.3851 29.1178 64.6877 32.2947 55.7812C39.1327 36.5791 44.7137 35.8447 44.7137 35.8447V35.8667C44.744 36.6782 45.5389 58.4438 46.1496 81.4637C46.3146 87.5645 46.4659 93.7534 46.5869 99.6645Z" fill="#EBEBEB"/>
<path d="M42.7009 89.3528C42.7009 88.6817 42.5523 85.502 42.4918 84.8611C42.4918 84.7868 42.4643 84.6383 42.4038 84.6383C41.5263 84.6383 38.4814 84.9491 35.4145 84.9491C33.2214 84.9079 31.0327 84.737 28.8598 84.4375C28.758 84.4678 28.758 87.961 28.703 89.6499C28.593 93.1734 28.7552 97.1591 29.5062 97.9018C30.909 99.2771 34.6471 99.1588 35.8326 99.1478C37.0181 99.1368 41.1963 99.134 42.1782 96.9775C42.5963 96.0121 42.7119 91.094 42.7009 89.3528ZM42.1507 92.9286C42.1012 94.667 42.0462 96.2294 41.3778 97.1453C40.8057 97.9183 39.1911 98.6967 35.475 98.6939C32.7904 98.6939 30.5239 98.2016 29.905 97.4864C29.1623 96.631 29.0798 94.1719 29.0798 92.7031C29.0798 90.6759 29.0798 89.0558 29.0798 87.0313C34.2702 88.2361 39.9805 87.642 42.1452 87.2046C42.1535 87.2899 42.2002 91.5671 42.159 92.9286H42.1507ZM42.1645 86.8773C35.4227 87.7437 31.2501 87.0203 29.0881 86.6022C29.0881 85.9531 29.0881 85.447 29.0881 84.7951C30.015 85.0289 33.1342 85.4002 35.4722 85.4002C37.648 85.4002 40.8442 85.0976 42.2002 84.9354C42.1617 85.469 42.1892 86.6297 42.1727 86.8745L42.1645 86.8773Z" fill="#DBDBDB"/>
<path d="M44.0077 44.8721C42.6846 50.3486 35.8796 69.8284 34.188 71.5173C32.1718 73.5308 23.3808 79.7224 20.3166 71.4788C18.1932 65.7713 32.6229 45.7633 39.4417 39.2966C42.7699 36.1581 46.2219 35.696 44.0077 44.8721Z" fill="#EBEBEB"/>
<path d="M41.6834 54.8519C41.2708 55.6138 40.8169 56.3538 40.3713 57.0964C40.4758 56.8214 40.5776 56.5463 40.6766 56.2712C41.1057 55.0857 41.5018 53.8865 41.9392 52.6954C41.9557 52.6569 41.8952 52.6432 41.8786 52.6789C41.4193 53.7104 40.9324 54.7336 40.4841 55.7734C40.0357 56.8131 39.6589 57.8143 39.2518 58.8458C38.4514 60.9225 37.64 62.9965 36.8973 65.0952C36.4578 66.2549 36.0813 67.4376 35.7695 68.638C35.7695 68.671 35.8108 68.6958 35.8273 68.6628C36.3197 67.6698 36.7075 66.6245 37.1036 65.5903C37.4997 64.5561 37.8958 63.5329 38.2808 62.4986C38.6659 61.4644 39.0758 60.3944 39.4829 59.3464C39.6864 58.8183 39.8982 58.2957 40.1045 57.7703C40.7362 56.8532 41.2735 55.8745 41.7081 54.8492C41.7136 54.8492 41.6889 54.8382 41.6834 54.8519Z" fill="#263238"/>
<path d="M44.4675 35.8691C43.734 37.4168 43.0225 38.9755 42.333 40.5452C41.6453 42.113 40.9357 43.6699 40.27 45.2487L40.1875 45.4468L40.3663 45.5678L43.2517 47.518L43.1829 47.1026C42.399 48.2744 41.6398 49.4599 40.8752 50.6427L40.8009 50.7582L40.8421 50.8847C41.6151 53.2805 42.3605 55.6846 43.1719 58.0693C43.9833 60.4541 44.7783 62.8417 45.631 65.2209C44.9763 62.7857 44.2905 60.3624 43.5735 57.9511C42.8804 55.5305 42.1212 53.132 41.3895 50.7225L41.3565 50.9645C42.1322 49.79 42.9134 48.6182 43.6725 47.43L43.8293 47.1824L43.59 47.0256L40.6689 45.1277L40.7679 45.4468C41.4225 43.8652 42.0277 42.2643 42.6603 40.6745C43.2929 39.0846 43.8788 37.4755 44.4675 35.8691Z" fill="#DBDBDB"/>
<path d="M67.5066 99.6644H59.0127C58.5093 93.7149 57.9922 87.4957 57.4806 81.3811C56.7517 72.6424 56.031 64.1155 55.3599 56.8814C54.7601 50.1494 53.7005 43.4663 52.1884 36.8789C52.1499 36.7111 52.1251 36.6038 52.1196 36.5901C52.1141 36.5763 52.1196 36.5901 52.1196 36.5901C52.4594 36.8017 52.7631 37.0663 53.0191 37.374C53.0275 37.3839 53.0367 37.3931 53.0466 37.4015L53.1374 37.5033C53.1618 37.5276 53.1848 37.5533 53.2061 37.5803C54.6667 39.1839 57.1092 42.4627 59.2822 45.8322C61.3782 49.0779 63.2266 52.4034 63.6832 54.3783L63.708 54.4883C63.7217 54.5516 63.7327 54.6121 63.7437 54.6726C63.8335 55.1963 63.8841 55.7258 63.895 56.257C63.9154 58.4272 63.3541 60.5633 62.2694 62.4431C62.2622 62.4593 62.254 62.4749 62.2446 62.4899C62.1731 62.6109 62.1291 62.6742 62.1291 62.6742V62.7044L64.9127 81.7607L67.5066 99.6644Z" fill="#EBEBEB"/>
<path d="M60.8058 48.6215C59.9806 47.2957 59.1196 45.9837 58.3027 44.6469C58.2779 44.6084 58.3385 44.5644 58.366 44.6001C59.1911 45.7004 60.0163 46.8006 60.8168 47.9201C60.5417 47.3232 60.2914 46.7236 60.0521 46.113C60.0246 46.0442 60.1209 45.9864 60.1539 46.0552C60.5252 46.8391 60.858 47.6368 61.1881 48.44C61.9065 49.4358 62.543 50.4881 63.0915 51.5867C64.2275 53.922 64.7171 56.4745 64.101 59.0271C63.934 59.7323 63.6847 60.4155 63.3583 61.0626C63.1383 61.5027 62.4204 62.4599 62.4259 62.4874C62.8935 65.095 63.2511 67.7328 63.6114 70.3569C63.9717 72.981 64.3595 75.6656 64.6704 78.3337C64.8437 79.841 64.9454 81.3593 65.1765 82.8639C65.1765 82.9189 65.0995 82.9409 65.0912 82.8859C64.9014 81.5766 64.6181 80.2811 64.3843 78.9773C64.1505 77.6735 63.9332 76.3697 63.7214 75.0604C63.2978 72.4198 62.9182 69.7682 62.5359 67.1194C62.3213 65.6231 62.0848 64.124 61.9143 62.6194C61.895 62.4544 62.5716 61.3871 62.7724 60.969C63.0399 60.415 63.2589 59.8389 63.4271 59.2471C63.7714 58.0442 63.8779 56.7857 63.7407 55.5421C63.4518 53.006 62.1371 50.7478 60.8058 48.6215Z" fill="#263238"/>
<path d="M52.1875 36.8789C53.064 38.2102 53.9561 39.5296 54.8638 40.837C55.7771 42.1408 56.6683 43.4611 57.598 44.7512L57.6172 44.4431L55.3837 46.7839L55.1994 46.9764L55.3947 47.1662C56.3354 48.0767 57.2926 48.9706 58.2471 49.8673L58.1673 49.6363C57.8208 52.0623 57.4494 54.4828 57.1414 56.9144C56.8333 59.3459 56.506 61.7747 56.2392 64.2118C56.7013 61.8022 57.1221 59.3899 57.5264 56.9721C57.9308 54.5544 58.3076 52.1338 58.6927 49.716L58.7147 49.5785L58.6129 49.4822C57.6695 48.5745 56.726 47.6641 55.7688 46.7729V47.1552L57.9693 44.7732L58.1068 44.6246L57.9885 44.4651C57.0506 43.1806 56.0631 41.9235 55.1169 40.65C54.1707 39.3765 53.1805 38.1277 52.1875 36.8789Z" fill="#DBDBDB"/>
<path d="M41.4492 39.9709C41.2264 36.7169 45.168 35.4241 47.6051 35.0886C50.4905 34.6925 52.4131 34.9318 53.8022 37.7319C55.2655 40.6833 56.033 44.1078 56.6078 47.3398C56.7151 47.9422 57.6558 47.7909 57.5485 47.1858C56.8856 43.4642 55.9339 36.5189 52.2261 34.4999C48.8126 32.6378 40.1234 34.61 40.5085 40.1222C40.5498 40.7356 41.4905 40.5788 41.4492 39.9709Z" fill="#455A64"/>
<path d="M59.5269 48.6896C59.5991 49.1199 59.5418 49.562 59.3622 49.9597C59.1826 50.3574 58.8889 50.6926 58.5183 50.923C58.1477 51.1533 57.717 51.2682 57.2809 51.2532C56.8448 51.2382 56.4231 51.0938 56.0692 50.8385C55.7154 50.5832 55.4454 50.2285 55.2937 49.8194C55.1419 49.4103 55.1152 48.9653 55.2169 48.541C55.3186 48.1167 55.5442 47.7322 55.8649 47.4364C56.1857 47.1406 56.5871 46.9468 57.0183 46.8797C57.3019 46.8338 57.5917 46.8441 57.8712 46.9102C58.1508 46.9763 58.4146 47.0969 58.6476 47.2649C58.8805 47.433 59.0781 47.6453 59.2289 47.8898C59.3798 48.1343 59.481 48.406 59.5269 48.6896Z" fill="#263238"/>
<path d="M58.6666 48.8301C58.7062 49.0873 58.6688 49.3505 58.5591 49.5865C58.4493 49.8225 58.2721 50.0207 58.0498 50.1561C57.8275 50.2915 57.5701 50.358 57.31 50.3473C57.05 50.3365 56.7989 50.249 56.5886 50.0957C56.3782 49.9424 56.2179 49.7303 56.128 49.4861C56.0381 49.2418 56.0225 48.9764 56.0833 48.7233C56.144 48.4702 56.2784 48.2408 56.4694 48.064C56.6604 47.8872 56.8995 47.7709 57.1565 47.7298C57.328 47.702 57.5033 47.7085 57.6723 47.7489C57.8412 47.7893 58.0005 47.8627 58.141 47.965C58.2814 48.0673 58.4001 48.1965 58.4903 48.3449C58.5806 48.4934 58.6405 48.6583 58.6666 48.8301Z" fill="#EBEBEB"/>
<path d="M44.7614 50.1641C47.1682 59.3044 46.7969 61.5378 46.0377 62.5886C45.4655 63.3237 44.7313 63.9167 43.8922 64.3215L43.6172 63.7191L43.7547 64.0189L43.6172 63.7191C44.3502 63.3591 44.9938 62.8404 45.5014 62.2008C46.0515 61.4416 46.5026 59.3841 44.126 50.3319L44.7614 50.1641Z" fill="#C7C7C7"/>
<path d="M42.4395 64.2735L42.8286 64.9761C42.9103 65.1236 43.0961 65.1769 43.2436 65.0952L44.7211 64.277C44.8686 64.1953 44.9219 64.0095 44.8402 63.862L44.4511 63.1593C44.3694 63.0118 44.1836 62.9585 44.0361 63.0402L42.5586 63.8584C42.4111 63.9401 42.3578 64.126 42.4395 64.2735Z" fill="#263238"/>
<path d="M38.78 50.4041C36.9673 57.2807 36.53 61.0655 37.4047 62.273C37.9122 62.9121 38.5559 63.4299 39.2889 63.7886L39.0138 64.3937C38.1748 63.9889 37.4406 63.3959 36.8683 62.6609C35.8286 61.225 36.1972 57.6245 38.1419 50.2363L38.78 50.4041Z" fill="#C7C7C7"/>
<path d="M38.4583 63.2291L38.0696 63.932C37.988 64.0796 38.0415 64.2654 38.1891 64.347L39.667 65.1642C39.8146 65.2458 40.0004 65.1923 40.082 65.0447L40.4706 64.3419C40.5522 64.1943 40.4988 64.0085 40.3512 63.9269L38.8732 63.1097C38.7256 63.0281 38.5399 63.0816 38.4583 63.2291Z" fill="#263238"/>
<path d="M37.9181 49.9364C38.2206 48.4117 38.6165 46.907 39.1037 45.4309C39.392 44.7793 39.8498 44.2169 40.4295 43.8025C40.5615 43.7888 40.5037 42.628 40.4295 41.6818C40.3689 40.8566 40.2809 39.8719 40.4817 39.6023C40.5976 39.4777 40.7575 39.4031 40.9275 39.3944C41.0974 39.3857 41.2641 39.4435 41.3922 39.5556C41.6205 39.8004 41.6342 40.7796 41.6672 41.6185C41.7002 42.5675 41.7663 43.7255 41.8983 43.7255C42.4846 44.1058 42.9706 44.6219 43.3149 45.2301C43.9561 46.6869 44.4857 48.1903 44.8992 49.7273C45.111 50.7066 44.7892 50.8276 44.5086 50.9266C44.1125 51.0614 43.8595 50.7891 43.5487 49.7053C43.0535 47.989 42.4292 45.0981 41.2326 45.1063C40.0471 45.2273 39.5658 48.2888 39.1862 49.9969C38.9469 51.0669 38.7213 51.1687 38.3115 51.0751C38.0254 51.0064 37.7311 50.8853 37.9181 49.9364Z" fill="#263238"/>
<path d="M52.3829 36.0427C52.3829 36.0427 52.658 41.3432 51.6788 41.4312C48.7109 41.7062 45.4101 37.6243 45.2286 36.9779C45.1818 36.8129 45.4211 32.698 45.6164 29.499C45.7402 27.4415 45.8475 25.7637 45.8475 25.7637L53.4309 30.1096L52.4544 35.6466L52.3829 36.0427Z" fill="#AD6359"/>
<path d="M53.4317 30.1096L52.4552 35.6466C50.9475 35.1597 49.5594 34.3606 48.3812 33.3014C47.203 32.2422 46.2612 30.9466 45.6172 29.499C45.741 27.4415 45.8482 25.7637 45.8482 25.7637L46.8027 26.2698L53.4317 30.1096Z" fill="#263238"/>
<path d="M61.2377 21.2916C62.8193 31.0342 57.1613 33.0807 55.0598 33.419C53.1537 33.7271 46.621 34.533 44.0409 25.0049C41.4608 15.4768 45.4905 11.6644 49.8172 10.7292C54.1439 9.794 59.6561 11.5489 61.2377 21.2916Z" fill="#AD6359"/>
<path d="M58.8603 20.0891C58.6325 20.0749 58.4057 20.0483 58.1809 20.0093C57.9391 20.0147 57.7022 19.9403 57.507 19.7975C57.4546 19.7406 57.4225 19.6679 57.4155 19.5909C57.4085 19.5138 57.4272 19.4366 57.4685 19.3712C57.5696 19.2567 57.6991 19.1709 57.844 19.1226C57.989 19.0743 58.1441 19.0651 58.2937 19.0961C58.6117 19.1111 58.9123 19.2457 59.1353 19.4729C59.181 19.5267 59.2106 19.5923 59.2206 19.6621C59.2306 19.732 59.2206 19.8032 59.1918 19.8676C59.1631 19.932 59.1167 19.987 59.058 20.0262C58.9994 20.0654 58.9308 20.0872 58.8603 20.0891Z" fill="#263238"/>
<path d="M52.2606 20.936C52.4889 20.8865 52.6897 20.804 52.9098 20.7352C53.1499 20.6967 53.3704 20.5796 53.5369 20.4024C53.5783 20.3369 53.5968 20.2594 53.5893 20.1822C53.5818 20.105 53.5489 20.0325 53.4957 19.9761C53.3748 19.8791 53.2301 19.8165 53.0767 19.7947C52.9232 19.7729 52.7668 19.7928 52.6237 19.8523C52.3145 19.9261 52.0439 20.1124 51.8645 20.3749C51.8278 20.4374 51.8098 20.5092 51.8128 20.5816C51.8158 20.6541 51.8397 20.7241 51.8815 20.7833C51.9233 20.8426 51.9813 20.8885 52.0485 20.9156C52.1158 20.9427 52.1894 20.9498 52.2606 20.936Z" fill="#263238"/>
<path d="M54.1108 23.1562C54.1108 23.1315 54.0641 23.192 54.0668 23.2195C54.1658 23.8851 54.1658 24.6635 53.5855 24.9551C53.569 24.9551 53.5855 24.9964 53.5855 24.9909C54.3199 24.8038 54.3116 23.7696 54.1108 23.1562Z" fill="#263238"/>
<path d="M53.4334 22.5258C52.3524 22.5671 52.5147 24.7263 53.5186 24.6933C54.5226 24.6603 54.3411 22.4901 53.4334 22.5258Z" fill="#263238"/>
<path d="M53.0187 22.672C52.8399 22.8095 52.6694 23.0406 52.4439 23.0791C52.2183 23.1176 51.9653 22.9141 51.7782 22.7078C51.759 22.6885 51.7397 22.7078 51.7425 22.738C51.7672 23.1506 51.9597 23.5632 52.4081 23.5935C52.8564 23.6237 53.082 23.2304 53.1535 22.804C53.1673 22.727 53.0848 22.6225 53.0187 22.672Z" fill="#263238"/>
<path d="M57.7931 22.6579C57.7931 22.6304 57.8481 22.6854 57.8481 22.7129C57.8729 23.3841 58.0132 24.1487 58.6348 24.3303C58.6541 24.3303 58.6541 24.3715 58.6348 24.3688C57.8839 24.3165 57.7078 23.296 57.7931 22.6579Z" fill="#263238"/>
<path d="M58.3453 21.9161C59.418 21.762 59.6491 23.9185 58.6561 24.0616C57.6631 24.2046 57.4458 22.0481 58.3453 21.9161Z" fill="#263238"/>
<path d="M58.8075 22.0094C58.9918 22.1057 59.1816 22.2844 59.3879 22.2844C59.5942 22.2844 59.7729 22.0094 59.8995 21.7838C59.9132 21.7591 59.9325 21.7838 59.9352 21.8031C59.993 22.2157 59.9022 22.6585 59.5144 22.7796C59.1266 22.9006 58.857 22.565 58.714 22.1662C58.6892 22.0947 58.7332 21.9709 58.8075 22.0094Z" fill="#263238"/>
<path d="M54.6671 28.3984C54.8322 28.5497 55 28.7615 55.2448 28.7753C55.4947 28.7629 55.7393 28.6983 55.9627 28.5855C55.9671 28.5832 55.9722 28.5825 55.9771 28.5835C55.982 28.5845 55.9865 28.5871 55.9897 28.5909C55.9929 28.5948 55.9947 28.5996 55.9948 28.6046C55.9949 28.6096 55.9932 28.6145 55.9902 28.6185C55.8998 28.7511 55.7757 28.8572 55.6306 28.9259C55.4856 28.9945 55.3248 29.0232 55.165 29.0091C55.0263 28.9783 54.8999 28.907 54.8019 28.8041C54.7039 28.7012 54.6388 28.5715 54.6149 28.4314C54.5929 28.3984 54.6424 28.3984 54.6671 28.3984Z" fill="#263238"/>
<path d="M57.26 25.742C57.26 25.742 57.4855 26.7295 57.535 27.2026C57.535 27.2466 57.425 27.2768 57.26 27.3016C57.26 27.3016 57.26 27.3016 57.2434 27.3016C56.8452 27.4113 56.4245 27.409 56.0275 27.295C55.6305 27.1809 55.2727 26.9595 54.9934 26.6552C54.9549 26.6112 55.01 26.5589 55.0567 26.5837C55.6942 26.9417 56.4303 27.0845 57.1554 26.9908C57.1774 26.8587 56.7126 25.3129 56.7868 25.3019C57.1587 25.3001 57.529 25.3501 57.8871 25.4504C57.4772 23.3792 56.7373 21.3905 56.3605 19.3221C56.3594 19.3075 56.3631 19.2929 56.3712 19.2807C56.3793 19.2684 56.3912 19.2592 56.405 19.2545C56.4189 19.2498 56.4339 19.2498 56.4478 19.2546C56.4616 19.2593 56.4735 19.2685 56.4815 19.2808C57.403 21.3107 57.9284 23.6818 58.407 25.8108C58.4565 26.0748 57.4552 25.8053 57.26 25.742Z" fill="#263238"/>
<path d="M56.7205 27.2077C56.4991 27.5259 56.1985 27.7809 55.8485 27.9476C55.6554 28.0346 55.4396 28.0577 55.2324 28.0136C54.7813 27.9173 54.7538 27.5075 54.8198 27.1527C54.8561 26.9629 54.9152 26.7781 54.9958 26.6025C55.4905 26.9848 56.0954 27.197 56.7205 27.2077Z" fill="#263238"/>
<path d="M55.8485 27.9473C55.6554 28.0342 55.4396 28.0574 55.2324 28.0133C54.7813 27.917 54.7538 27.5072 54.8198 27.1523C55.2984 27.1826 55.788 27.4852 55.8485 27.9473Z" fill="#FF99BA"/>
<path d="M44.0421 25.3731C44.6773 25.0686 45.2224 24.6042 45.6241 24.0256C46.0257 23.447 46.2702 22.7739 46.3334 22.0724C48.0612 21.325 49.5585 20.1306 50.6711 18.6121C50.6051 18.8156 50.121 20.2817 49.8459 21.0189C56.1063 19.8801 58.0648 15.1023 58.0648 15.1023C60.0865 17.135 60.4853 18.4333 60.7741 19.0797C60.7741 19.0797 60.8401 15.2288 58.8762 12.6625C58.216 11.7718 57.3091 11.0941 56.2679 10.7133C55.2266 10.3325 54.0965 10.2652 53.0174 10.5198C51.5438 10.0109 49.9528 9.94819 48.4438 10.3396C46.9348 10.7311 45.5749 11.5592 44.5345 12.7203C40.4498 17.1213 44.0421 25.3731 44.0421 25.3731Z" fill="#263238"/>
<path d="M54.6055 20.0203C53.5982 20.5653 52.5155 20.9574 51.3928 21.1838C51.3791 21.1838 51.3928 21.1838 51.3928 21.1838C53.153 20.7115 54.7471 19.7591 55.9974 18.4332C56.5283 17.8663 56.9849 17.2341 57.3562 16.5518C57.7918 15.8212 58.0788 15.0116 58.2006 14.1698C58.2032 14.1589 58.2094 14.1493 58.2181 14.1425C58.2268 14.1356 58.2376 14.1318 58.2487 14.1318C58.2599 14.1318 58.2706 14.1356 58.2794 14.1425C58.2881 14.1493 58.2943 14.1589 58.2969 14.1698C58.2679 15.0177 58.0958 15.8547 57.788 16.6453C57.4472 17.4061 56.971 18.0986 56.3824 18.689C55.855 19.2145 55.2558 19.6627 54.6028 20.0203" fill="#263238"/>
<path d="M52.8897 26.7485C52.3132 26.7617 51.7446 26.6129 51.2485 26.3189C50.7525 26.025 50.3488 25.5977 50.0836 25.0857C49.8183 24.5738 49.7021 23.9976 49.7481 23.4228C49.7941 22.848 50.0005 22.2977 50.3438 21.8344C50.6871 21.3711 51.1535 21.0135 51.6901 20.8022C52.2266 20.5909 52.8116 20.5344 53.3786 20.6392C53.9457 20.7439 54.4719 21.0057 54.8975 21.3947C55.3231 21.7838 55.631 22.2845 55.7861 22.8398C56.0051 23.627 55.9027 24.4688 55.5015 25.1805C55.1002 25.8922 54.4329 26.4156 53.6461 26.6357C53.3995 26.7039 53.1455 26.7418 52.8897 26.7485ZM52.7577 20.9997C52.5352 21.0045 52.3143 21.0378 52.1003 21.0987C51.4476 21.2825 50.8895 21.7082 50.5397 22.289C50.1898 22.8699 50.0745 23.5622 50.2172 24.2251C50.3599 24.888 50.7499 25.4716 51.3077 25.857C51.8656 26.2425 52.5494 26.4008 53.2199 26.2998C53.8904 26.1988 54.4972 25.8461 54.9167 25.3134C55.3363 24.7807 55.537 24.1082 55.4781 23.4327C55.4192 22.7572 55.1051 22.1295 54.5997 21.6775C54.0942 21.2255 53.4355 20.9831 52.7577 20.9997Z" fill="#3C8AFF"/>
<path d="M59.885 25.7308C58.7077 25.7583 57.6102 24.5755 57.3847 22.9802C57.2651 22.2213 57.3863 21.4441 57.7312 20.7577C57.8624 20.4555 58.0689 20.1919 58.331 19.9923C58.5931 19.7927 58.902 19.6637 59.2282 19.6176C59.5544 19.5715 59.887 19.6099 60.1942 19.7291C60.5013 19.8483 60.7727 20.0443 60.9825 20.2983C61.504 20.8638 61.8349 21.5786 61.9287 22.342C62.1652 24.0227 61.3401 25.5355 60.0858 25.7115C60.0195 25.7235 59.9523 25.73 59.885 25.7308ZM59.4421 20.0095C59.3899 20.0068 59.3376 20.0068 59.2853 20.0095C59.0269 20.0588 58.7839 20.1691 58.5767 20.3313C58.3695 20.4935 58.2041 20.7029 58.0943 20.942C57.7911 21.552 57.6863 22.2416 57.7945 22.9142C57.9981 24.372 58.9993 25.442 60.028 25.2962C61.0567 25.1504 61.7251 23.8466 61.5216 22.3916C61.4403 21.7158 61.1521 21.0817 60.6964 20.5762C60.5387 20.3991 60.3456 20.2571 60.1295 20.1595C59.9134 20.0619 59.6792 20.0108 59.4421 20.0095Z" fill="#3C8AFF"/>
<path d="M55.7339 23.2113L55.4258 22.9363C55.8356 22.4824 56.8313 21.8113 57.6868 22.5017L57.4282 22.8235C56.6608 22.2018 55.7696 23.1728 55.7339 23.2113Z" fill="#3C8AFF"/>
<path d="M42.2472 25.9229L41.8594 25.7853C41.9226 25.6038 42.5058 24.0057 43.3942 23.7306C44.2194 23.4748 49.7674 23.2163 49.9957 23.208L50.0149 23.6178C48.4278 23.6894 44.1534 23.9259 43.5125 24.124C42.9294 24.2945 42.4012 25.4718 42.2472 25.9229Z" fill="#3C8AFF"/>
<path d="M45.7086 25.5027C45.7086 25.5027 43.332 22.5898 41.9925 23.4617C40.6529 24.3337 42.6031 28.6741 44.281 29.15C44.4922 29.2274 44.7168 29.2613 44.9415 29.2496C45.1661 29.2379 45.386 29.1809 45.588 29.0819C45.79 28.983 45.9699 28.8442 46.1168 28.6739C46.2638 28.5036 46.3747 28.3053 46.443 28.091L45.7086 25.5027Z" fill="#AD6359"/>
<path d="M42.5845 24.6885C42.5787 24.6885 42.5731 24.6908 42.5689 24.6949C42.5648 24.6991 42.5625 24.7046 42.5625 24.7105C42.5625 24.7163 42.5648 24.7219 42.5689 24.726C42.5731 24.7302 42.5787 24.7325 42.5845 24.7325C43.7645 25.1121 44.4494 26.1326 44.9555 27.208C44.5814 26.8092 44.1001 26.6112 43.561 27.0595C43.5335 27.0843 43.561 27.1283 43.5967 27.12C43.7936 27.0406 44.0103 27.0245 44.2168 27.0738C44.4233 27.123 44.6094 27.2353 44.7492 27.3951C44.9826 27.6631 45.1864 27.9554 45.3571 28.267C45.4176 28.3661 45.5992 28.2973 45.5524 28.1818V28.1543C45.4561 26.6827 44.1661 24.7187 42.5845 24.6885Z" fill="#263238"/>
<path d="M45.1788 28.6458C45.1847 28.6932 45.1807 28.7412 45.1671 28.787C45.1535 28.8327 45.1307 28.8752 45.0999 28.9116C45.0692 28.9481 45.0313 28.9779 44.9885 28.999C44.9457 29.0202 44.8991 29.0323 44.8514 29.0346C44.8038 29.0368 44.7561 29.0293 44.7116 29.0123C44.667 28.9953 44.6264 28.9693 44.5923 28.9359C44.5582 28.9025 44.5314 28.8625 44.5135 28.8182C44.4956 28.774 44.4871 28.7265 44.4884 28.6789C44.4908 28.5915 44.5261 28.5082 44.5873 28.4458C44.6485 28.3834 44.731 28.3464 44.8183 28.3422C44.9056 28.338 44.9913 28.367 45.0581 28.4233C45.125 28.4796 45.1681 28.5591 45.1788 28.6458Z" fill="white"/>
<path d="M44.1849 28.0962C44.1863 28.1248 44.1821 28.1533 44.1725 28.1802C44.163 28.2071 44.1482 28.2319 44.129 28.2531C44.1099 28.2743 44.0867 28.2915 44.0609 28.3038C44.0351 28.316 44.0071 28.3231 43.9786 28.3245C43.95 28.326 43.9215 28.3218 43.8946 28.3122C43.8677 28.3026 43.8429 28.2878 43.8217 28.2687C43.8005 28.2495 43.7833 28.2264 43.771 28.2006C43.7588 28.1747 43.7517 28.1468 43.7503 28.1182C43.7474 28.0606 43.7675 28.0042 43.8061 27.9614C43.8448 27.9185 43.8989 27.8928 43.9566 27.8899C44.0142 27.887 44.0706 27.9071 44.1134 27.9458C44.1563 27.9845 44.182 28.0386 44.1849 28.0962Z" fill="white"/>
<path d="M52.3869 36.3096L50.7365 40.6336L45.3013 35.3057L43.8242 37.0771C43.8242 37.0771 49.2044 45.604 49.2292 45.2134L50.9263 41.4808L53.5284 44.0059L53.1983 37.5502L52.3869 36.3096Z" fill="#3C8AFF"/>
<path d="M53.554 40.8038C53.4659 39.7393 53.4027 38.6666 53.2789 37.6076C53.2789 37.5691 53.2129 37.5526 53.2046 37.6076C53.0121 38.6391 53.3779 42.7072 53.3917 43.6837C53.2844 43.5737 50.9821 41.464 50.9601 41.4997C50.5888 42.0939 49.3428 44.8005 49.2575 45.059C48.4076 43.7057 44.8043 38.3695 43.803 37.0822C43.7979 37.0738 43.7897 37.0678 43.7802 37.0655C43.7706 37.0632 43.7605 37.0647 43.7522 37.0699C43.7438 37.075 43.7377 37.0832 43.7354 37.0927C43.7331 37.1023 43.7347 37.1124 43.7398 37.1207C44.4962 38.5538 49.1557 45.5954 49.219 45.5734C49.8777 44.2899 50.4698 42.9734 50.9931 41.629C51.3837 42.0911 53.7108 44.4759 53.7163 44.3191C53.7244 43.1453 53.6702 41.9719 53.554 40.8038Z" fill="#263238"/>
<path d="M52.771 50.2938C52.771 50.2938 50.6448 47.4882 52.6748 46.1926C54.7047 44.8971 56.3524 48.008 56.3524 48.008L52.771 50.2938Z" fill="#455A64"/>
<path d="M69.5891 68.7556L69.8835 72.1856L69.988 73.3189L68.995 72.755L66.0133 71.0331L52.7031 50.1725L56.2789 47.8867L69.5891 68.7556Z" fill="#455A64"/>
<path d="M69.8912 72.1914L69.9902 73.3219L69 72.758L69.8912 72.1914Z" fill="#37474F"/>
<path d="M56.505 47.5883L52.3242 50.2559L52.8539 51.086L57.0347 48.4184L56.505 47.5883Z" fill="#263238"/>
<path d="M57.091 48.5082L52.9102 51.1758L53.4398 52.0059L57.6206 49.3383L57.091 48.5082Z" fill="#263238"/>
<path d="M53.4414 52.0016L54.7892 51.1406L58.8629 59.1642L58.3485 59.4502L53.4414 52.0016Z" fill="#263238"/>
<path d="M45.107 57.6573C47.1507 57.253 53.3588 74.7249 50.3744 75.4648C37.1274 78.7655 26.2818 76.6861 23.7127 75.4648C20.3432 73.8502 20.0626 69.5235 21.4709 67.5265C23.9272 64.0635 41.9383 58.2872 45.107 57.6573Z" fill="#AD6359"/>
<path d="M70.5476 56.7302C70.5146 58.7464 65.5497 58.2458 65.5497 58.2458C66.2664 58.7389 66.7873 59.4681 67.0213 60.306C67.3651 61.7996 65.1756 62.9933 65.1756 62.9933C65.8105 63.6603 66.2302 64.5027 66.3804 65.4111C66.5647 66.8745 64.5265 68.3928 64.5265 68.3928C64.7736 69.3271 64.676 70.3192 64.2514 71.1874C63.0219 73.4594 49.3018 75.6544 47.5937 75.9652L44.293 58.0863C44.293 58.0863 55.0726 51.9909 58.046 52.1944C60.5464 52.3457 70.5971 53.6413 70.5476 56.7302Z" fill="#AD6359"/>
<path d="M65.5128 58.1796C62.8942 57.3544 60.0831 57.1646 57.371 57.0078C57.3586 57.0078 57.3467 57.0127 57.3379 57.0215C57.3291 57.0303 57.3242 57.0422 57.3242 57.0546C57.3242 57.067 57.3291 57.0789 57.3379 57.0876C57.3467 57.0964 57.3586 57.1013 57.371 57.1013C60.0721 57.2251 62.8034 58.0751 65.4935 58.3089C65.5094 58.309 65.5248 58.3033 65.5369 58.293C65.549 58.2826 65.5569 58.2683 65.5592 58.2526C65.5616 58.2368 65.5582 58.2208 65.5496 58.2074C65.5411 58.194 65.528 58.1841 65.5128 58.1796Z" fill="#263238"/>
<path d="M65.1079 62.7814C64.4952 62.6527 63.8682 62.6046 63.243 62.6384C62.5792 62.6384 61.9163 62.6439 61.2543 62.6549C59.9267 62.6879 58.6009 62.7549 57.2769 62.8557C57.2192 62.8557 57.2109 62.9492 57.2769 62.9492C58.5972 62.919 59.9203 62.908 61.2433 62.9327C61.9062 62.9327 62.5664 62.963 63.2293 62.985C63.8517 63.0465 64.4789 63.0391 65.0997 62.963C65.1188 62.9573 65.1357 62.9457 65.1479 62.93C65.1602 62.9142 65.1673 62.8951 65.1682 62.8751C65.1691 62.8552 65.1638 62.8355 65.153 62.8187C65.1422 62.8019 65.1265 62.7889 65.1079 62.7814Z" fill="#263238"/>
<path d="M64.4684 68.3842C63.9568 68.2192 63.3159 68.321 62.7851 68.3457L60.9697 68.42C59.7621 68.4612 58.5546 68.5025 57.3443 68.5025C57.2838 68.5025 57.2783 68.596 57.3443 68.596C58.5739 68.596 59.8034 68.6263 61.0302 68.6208C61.6353 68.6208 62.2377 68.6208 62.8428 68.6043C63.3544 68.6043 63.9981 68.6455 64.4932 68.4447C64.5001 68.4407 64.5053 68.4344 64.5078 68.4268C64.5104 68.4193 64.5102 68.4111 64.5071 68.4037C64.5041 68.3964 64.4985 68.3903 64.4914 68.3867C64.4843 68.3832 64.4762 68.3823 64.4684 68.3842Z" fill="#263238"/>
<path d="M43.0947 57.8877L49.0278 77.5738C49.0278 77.5738 27.419 78.6273 22.7842 75.2578C19.5632 72.9143 19.83 68.5051 21.2851 66.9867C24.4621 63.6722 43.0947 57.8877 43.0947 57.8877Z" fill="#EBEBEB"/>
<path d="M43.3314 76.8096C42.3989 74.059 38.9909 62.7265 38.4188 60.2262C38.3803 60.0529 38.4793 59.9869 38.5453 60.1602C41.538 68.2992 42.6712 74.037 43.4387 76.7684C43.4552 76.8426 43.3561 76.8839 43.3314 76.8096Z" fill="#263238"/>
<path d="M43.0973 57.6844C42.979 57.6597 40.8968 58.1988 40.2311 58.3941C38.931 58.781 37.6401 59.2009 36.3583 59.6539C33.8058 60.5532 31.3012 61.5833 28.8546 62.74L28.4888 62.9161C27.5948 63.1306 26.7229 63.4387 25.8537 63.7248C25.8289 63.7248 25.8537 63.7715 25.8537 63.7633C26.5496 63.5322 27.2565 63.3507 27.9634 63.1636C27.5728 63.3534 27.1795 63.546 26.7944 63.7468C26.1095 64.1016 25.4411 64.4839 24.7617 64.847C24.7592 64.8481 24.7569 64.8497 24.7551 64.8517C24.7532 64.8537 24.7518 64.8561 24.751 64.8587C24.7501 64.8613 24.7498 64.864 24.7501 64.8667C24.7504 64.8694 24.7512 64.8721 24.7526 64.8744C24.754 64.8768 24.7559 64.8788 24.7581 64.8804C24.7603 64.882 24.7628 64.8831 24.7655 64.8836C24.7682 64.8841 24.771 64.8841 24.7736 64.8835C24.7763 64.8829 24.7788 64.8817 24.7809 64.88C25.9224 64.2886 27.108 63.7633 28.2797 63.2297C29.4515 62.696 30.6728 62.1762 31.883 61.6866C34.2678 60.7211 36.6994 59.8574 39.1612 59.0982C39.8543 58.8864 40.5365 58.6829 41.2461 58.4848C41.5872 58.3886 43.0065 57.9072 43.067 57.9017C43.1001 57.9526 43.1251 58.0083 43.1413 58.0668C43.1578 58.1245 43.2238 58.1245 43.2101 58.0668C43.1875 57.9354 43.1496 57.807 43.0973 57.6844Z" fill="#263238"/>
<path d="M46.0256 77.6622C45.3985 77.6182 43.0852 77.731 42.4663 77.731C41.2175 77.731 39.9715 77.731 38.7227 77.709C36.2142 77.643 33.7166 77.4614 31.2191 77.2221C30.5287 77.1561 29.8438 77.0818 29.1451 77.0076C28.4464 76.9333 27.6955 76.8783 26.9859 76.749C26.9584 76.749 26.9474 76.7875 26.9859 76.793C27.6075 76.8838 28.2181 77.0296 28.837 77.1369C29.4559 77.2441 30.0776 77.3377 30.7019 77.4257C31.9507 77.6017 33.205 77.7255 34.462 77.83C36.9706 78.0363 39.4957 78.1051 42.0125 78.0583C42.7221 78.0446 45.371 77.9345 46.0586 77.7833C46.1274 77.7805 46.0971 77.6677 46.0256 77.6622Z" fill="#263238"/>
<path d="M87.5676 81.5325L64.875 83.1773L73.3579 53.3001L96.0505 51.6553L87.5676 81.5325Z" fill="white"/>
<path d="M89.1195 81.4192L66.4297 83.064L74.9126 53.1869L97.6024 51.542L89.1195 81.4192Z" fill="#37474F"/>
<path d="M77.3251 53.0165C77.2677 53.2737 77.1598 53.517 77.0078 53.7323C76.8558 53.9476 76.6626 54.1306 76.4394 54.2708C76.2331 54.4028 76.1643 54.125 76.3596 53.9957C76.6457 53.8071 76.8591 53.5267 76.9648 53.2008C76.9785 53.1485 76.995 53.088 77.0033 53.0357C77.052 52.8556 77.052 52.6657 77.0033 52.4856C76.9798 52.4081 76.9302 52.3411 76.863 52.2958C76.8566 52.2925 76.8509 52.2878 76.8465 52.2821C76.8465 52.2821 76.8217 52.2821 76.819 52.2821C76.8044 52.284 76.7896 52.284 76.775 52.2821C76.7205 52.2756 76.6654 52.2841 76.6155 52.3068C76.5192 52.3485 76.4343 52.4127 76.3679 52.4939C76.2861 52.5907 76.2177 52.698 76.1643 52.8129C76.1317 52.869 76.1023 52.9268 76.0763 52.9862V53.0275C76.0662 53.0465 76.0588 53.0669 76.0543 53.088C76.0543 53.088 76.0378 53.1127 76.0406 53.1265L75.7188 53.1513C75.7843 52.9456 75.8768 52.7495 75.9938 52.5681C76.0791 52.4119 76.1968 52.2758 76.3392 52.1691C76.4816 52.0623 76.6452 51.9873 76.819 51.9492C76.9485 51.9351 77.0784 51.9721 77.1811 52.0522C77.2838 52.1323 77.3513 52.2493 77.3691 52.3783C77.408 52.5914 77.3929 52.8108 77.3251 53.0165Z" fill="#3C8AFF"/>
<path d="M79.1032 52.8794C78.9849 53.398 78.6666 53.8488 78.2175 54.1337C78.0084 54.2657 77.9424 53.9879 78.1377 53.8586C78.4238 53.6707 78.6365 53.39 78.7401 53.0637C78.7577 53.0097 78.7715 52.9546 78.7813 52.8987C78.8301 52.7185 78.8301 52.5287 78.7813 52.3485C78.7569 52.2707 78.7064 52.2037 78.6383 52.1588C78.6338 52.1596 78.6291 52.1596 78.6246 52.1588C78.6246 52.1588 78.5998 52.1588 78.5943 52.1588H78.553C78.4986 52.1523 78.4434 52.1608 78.3935 52.1835C78.2973 52.2252 78.2124 52.2893 78.146 52.3705C78.0623 52.466 77.9937 52.5736 77.9424 52.6896C77.9098 52.7466 77.8804 52.8054 77.8544 52.8657V52.9042C77.8427 52.9227 77.8343 52.9432 77.8296 52.9647C77.8296 52.9784 77.8159 52.9922 77.8296 53.0032L77.5078 53.0279C77.5722 52.8218 77.6648 52.6256 77.7829 52.4448C77.8678 52.2884 77.9855 52.1521 78.1279 52.0453C78.2703 51.9385 78.4341 51.8637 78.6081 51.8259C78.7374 51.8125 78.867 51.8497 78.9695 51.9297C79.0721 52.0097 79.1397 52.1263 79.1582 52.255C79.1899 52.4646 79.171 52.6786 79.1032 52.8794Z" fill="#3C8AFF"/>
<path d="M80.866 52.7583C80.7472 53.2781 80.4279 53.7299 79.9776 54.0153C79.7713 54.1446 79.7025 53.8668 79.8978 53.7403C80.1847 53.5524 80.3983 53.2718 80.503 52.9453C80.503 52.8931 80.536 52.8353 80.5442 52.783C80.5908 52.6026 80.5908 52.4133 80.5442 52.2329C80.5218 52.1549 80.472 52.0875 80.4039 52.0431H80.3874C80.3874 52.0431 80.3654 52.0431 80.3599 52.0431H80.3159C80.2626 52.0349 80.2081 52.0426 80.1591 52.0651C80.062 52.1067 79.9762 52.1708 79.9088 52.2522C79.8271 52.349 79.7586 52.4563 79.7053 52.5712C79.6723 52.6263 79.6475 52.6868 79.6173 52.7473V52.7858C79.6076 52.805 79.6002 52.8253 79.5953 52.8463C79.5953 52.8601 79.5815 52.8738 79.5953 52.8848L79.2734 52.9096C79.3377 52.7034 79.4303 52.5071 79.5485 52.3264C79.6336 52.1704 79.7514 52.0346 79.8938 51.9283C80.0362 51.8219 80.1999 51.7476 80.3737 51.7103C80.5029 51.6954 80.6328 51.7317 80.7356 51.8114C80.8384 51.8911 80.906 52.0078 80.9238 52.1366C80.9543 52.3455 80.9345 52.5586 80.866 52.7583Z" fill="#3C8AFF"/>
<path d="M82.6532 52.6292C82.5954 52.8866 82.4875 53.1302 82.3355 53.3459C82.1835 53.5615 81.9905 53.7452 81.7675 53.8862C81.5612 54.0183 81.4925 53.7377 81.6878 53.6112C81.9732 53.4219 82.1864 53.1418 82.2929 52.8162C82.3067 52.7612 82.3232 52.7035 82.3314 52.6512C82.3797 52.471 82.3797 52.2813 82.3314 52.1011C82.3073 52.0239 82.2579 51.957 82.1911 51.9113H82.1746C82.1746 51.9113 82.1499 51.9113 82.1471 51.9113H82.1031C82.0487 51.9021 81.9927 51.9108 81.9436 51.936C81.8469 51.9757 81.7617 52.0391 81.696 52.1203C81.6143 52.2172 81.5458 52.3245 81.4925 52.4394C81.4599 52.4964 81.4305 52.5552 81.4045 52.6154V52.654C81.3952 52.6734 81.3878 52.6936 81.3825 52.7145C81.3825 52.7282 81.3659 52.742 81.3687 52.7557L81.0469 52.7777C81.1125 52.5721 81.2049 52.376 81.3219 52.1946C81.4072 52.0387 81.525 51.903 81.6674 51.7966C81.8098 51.6903 81.9734 51.6159 82.1471 51.5785C82.2763 51.5636 82.4063 51.5999 82.5091 51.6795C82.6119 51.7592 82.6794 51.876 82.6972 52.0048C82.7338 52.2134 82.7187 52.4278 82.6532 52.6292Z" fill="#3C8AFF"/>
<path d="M84.4391 52.4998C84.3204 53.0189 84.0023 53.4704 83.5534 53.7569C83.3444 53.8889 83.2783 53.6083 83.4736 53.4818C83.7591 53.2932 83.9716 53.0127 84.076 52.6869C84.0936 52.6329 84.1074 52.5778 84.1173 52.5218C84.1661 52.3417 84.1661 52.1518 84.1173 51.9717C84.0928 51.8932 84.0424 51.8253 83.9742 51.7792C83.9697 51.78 83.965 51.78 83.9605 51.7792C83.9605 51.7792 83.9357 51.7792 83.9302 51.7792H83.889C83.8345 51.7713 83.779 51.7799 83.7294 51.8039C83.6333 51.8446 83.5484 51.9078 83.4819 51.9882C83.3988 52.085 83.3302 52.1935 83.2783 52.31C83.2452 52.3658 83.2158 52.4237 83.1903 52.4833V52.5218C83.1791 52.5406 83.1707 52.561 83.1656 52.5824C83.1656 52.5961 83.1518 52.6099 83.1656 52.6236L82.8438 52.6456C82.9082 52.4395 83.0007 52.2433 83.1188 52.0625C83.2042 51.9067 83.3221 51.771 83.4644 51.6647C83.6068 51.5584 83.7704 51.484 83.944 51.4463C84.0731 51.4322 84.2026 51.4687 84.3053 51.5483C84.4079 51.6278 84.4756 51.7442 84.4941 51.8727C84.5263 52.0831 84.5074 52.2982 84.4391 52.4998Z" fill="#3C8AFF"/>
<path d="M86.2059 52.373C86.0861 52.8916 85.767 53.3422 85.3174 53.6273C85.1111 53.7593 85.0424 53.4787 85.2377 53.3522C85.5239 53.1637 85.7373 52.8833 85.8428 52.5573C85.8566 52.505 85.8758 52.4445 85.8841 52.3922C85.9315 52.2119 85.9315 52.0224 85.8841 51.8421C85.8609 51.7637 85.8113 51.6957 85.7438 51.6496H85.7273C85.7273 51.6496 85.7053 51.6496 85.6998 51.6496C85.6852 51.6515 85.6704 51.6515 85.6558 51.6496C85.6022 51.6422 85.5477 51.6508 85.499 51.6743C85.4013 51.715 85.3153 51.7792 85.2487 51.8614C85.1669 51.9582 85.0985 52.0655 85.0451 52.1804C85.0121 52.2327 84.9874 52.2932 84.9571 52.3537V52.395C84.9474 52.4132 84.94 52.4327 84.9351 52.4527C84.9314 52.4662 84.9314 52.4805 84.9351 52.494L84.6133 52.516C84.6781 52.3109 84.7707 52.1157 84.8883 51.9356C84.9737 51.7795 85.0916 51.6435 85.2339 51.5368C85.3762 51.43 85.5398 51.355 85.7135 51.3167C85.8427 51.3019 85.9727 51.3381 86.0755 51.4178C86.1783 51.4975 86.2458 51.6142 86.2636 51.7431C86.2951 51.9547 86.2753 52.1707 86.2059 52.373Z" fill="#3C8AFF"/>
<path d="M87.9782 52.244C87.9207 52.5012 87.8129 52.7445 87.6609 52.9598C87.5089 53.1751 87.3157 53.3581 87.0925 53.4983C86.8862 53.6303 86.8174 53.3525 87.0127 53.2232C87.2988 53.0346 87.5122 52.7543 87.6178 52.4283C87.6316 52.376 87.6481 52.3155 87.6563 52.2633C87.7051 52.0831 87.7051 51.8933 87.6563 51.7131C87.6328 51.6356 87.5833 51.5686 87.5161 51.5234C87.5096 51.52 87.504 51.5153 87.4996 51.5096C87.4996 51.5096 87.4748 51.5096 87.4721 51.5096C87.4574 51.5115 87.4427 51.5115 87.428 51.5096C87.3736 51.5031 87.3184 51.5117 87.2685 51.5344C87.1723 51.5761 87.0874 51.6402 87.021 51.7214C86.9383 51.8175 86.8697 51.925 86.8174 52.0405C86.7848 52.0965 86.7554 52.1544 86.7294 52.2138V52.255C86.7195 52.2745 86.7112 52.2947 86.7046 52.3155C86.7046 52.3155 86.6909 52.3403 86.7046 52.354L86.3828 52.3788C86.4484 52.1731 86.5409 51.9771 86.6579 51.7957C86.7431 51.6395 86.8609 51.5034 87.0033 51.3966C87.1456 51.2898 87.3092 51.2149 87.4831 51.1768C87.6126 51.1627 87.7425 51.1996 87.8452 51.2797C87.9479 51.3598 88.0153 51.4768 88.0332 51.6059C88.0685 51.8198 88.0496 52.0393 87.9782 52.244Z" fill="#3C8AFF"/>
<path d="M89.7555 52.1149C89.6373 52.6335 89.3189 53.0843 88.8698 53.3692C88.6608 53.5013 88.5948 53.2234 88.79 53.0942C89.0757 52.9069 89.2883 52.6272 89.3924 52.302C89.4101 52.248 89.4238 52.1929 89.4337 52.1369C89.4811 51.9566 89.4811 51.7671 89.4337 51.5868C89.4092 51.509 89.3587 51.442 89.2907 51.397C89.2861 51.3979 89.2815 51.3979 89.2769 51.397C89.2769 51.397 89.2522 51.397 89.2467 51.397H89.2054C89.151 51.3905 89.0958 51.3991 89.0459 51.4218C88.9496 51.4635 88.8647 51.5276 88.7983 51.6088C88.7147 51.7043 88.646 51.8118 88.5948 51.9279C88.5621 51.9849 88.5327 52.0437 88.5067 52.1039V52.1424C88.495 52.161 88.4866 52.1815 88.482 52.203C88.482 52.2167 88.4682 52.2305 88.482 52.2415L88.1602 52.2662C88.2246 52.0601 88.3171 51.8639 88.4352 51.6831C88.5202 51.5267 88.6379 51.3904 88.7803 51.2836C88.9227 51.1768 89.0864 51.102 89.2604 51.0642C89.3898 51.0508 89.5193 51.088 89.6219 51.168C89.7244 51.248 89.792 51.3646 89.8105 51.4933C89.8418 51.7019 89.823 51.915 89.7555 52.1149Z" fill="#3C8AFF"/>
<path d="M91.534 51.9848C91.4152 52.5046 91.0959 52.9564 90.6456 53.2419C90.4393 53.3712 90.3705 53.0933 90.5658 52.9668C90.8526 52.779 91.0662 52.4984 91.1709 52.1719C91.1847 52.1196 91.2039 52.0619 91.2122 52.0096C91.2588 51.8292 91.2588 51.6399 91.2122 51.4595C91.1897 51.3814 91.1399 51.3141 91.0719 51.2697H91.0554C91.0554 51.2697 91.0334 51.2697 91.0279 51.2697H90.9839C90.9306 51.2615 90.8761 51.2692 90.8271 51.2917C90.73 51.3333 90.6442 51.3974 90.5768 51.4787C90.495 51.5755 90.4266 51.6829 90.3733 51.7978C90.3402 51.8528 90.3155 51.9133 90.2852 51.9738V52.0124C90.2759 52.0318 90.2686 52.052 90.2632 52.0729C90.2632 52.0866 90.2632 52.1004 90.2632 52.1114L89.9414 52.1361C90.0057 51.93 90.0982 51.7337 90.2165 51.553C90.3016 51.397 90.4194 51.2612 90.5618 51.1548C90.7042 51.0485 90.8679 50.9741 91.0417 50.9369C91.1709 50.922 91.3008 50.9583 91.4036 51.0379C91.5064 51.1176 91.5739 51.2344 91.5918 51.3632C91.6223 51.5721 91.6025 51.7852 91.534 51.9848Z" fill="#3C8AFF"/>
<path d="M93.3063 51.8558C93.2485 52.1132 93.1405 52.3567 92.9885 52.5724C92.8366 52.7881 92.6436 52.9717 92.4206 53.1128C92.2143 53.2448 92.1455 52.9643 92.3408 52.8377C92.6257 52.6478 92.8387 52.368 92.946 52.0428C92.9597 51.9878 92.9762 51.93 92.9845 51.8778C93.0328 51.6976 93.0328 51.5078 92.9845 51.3276C92.9603 51.2504 92.9109 51.1836 92.8442 51.1379H92.8277C92.8277 51.1379 92.8029 51.1379 92.8002 51.1379H92.7562C92.7017 51.1287 92.6457 51.1373 92.5966 51.1626C92.4999 51.2022 92.4148 51.2656 92.3491 51.3469C92.2664 51.443 92.1978 51.5505 92.1455 51.666C92.1129 51.7229 92.0835 51.7817 92.0575 51.842V51.8805C92.0474 51.8999 92.0391 51.9201 92.0328 51.941C92.0328 51.9548 92.019 51.9685 92.0328 51.9823L91.7109 52.0043C91.7765 51.7986 91.869 51.6026 91.986 51.4212C92.0713 51.2652 92.1891 51.1295 92.3315 51.0232C92.4739 50.9169 92.6375 50.8425 92.8112 50.805C92.9404 50.7901 93.0703 50.8264 93.1731 50.9061C93.2759 50.9858 93.3435 51.1025 93.3613 51.2314C93.3944 51.4409 93.3755 51.6553 93.3063 51.8558Z" fill="#3C8AFF"/>
<path d="M95.0836 51.7264C94.9649 52.2455 94.6468 52.697 94.1979 52.9834C93.9889 53.1155 93.9229 52.8349 94.1182 52.7084C94.4037 52.5198 94.6162 52.2393 94.7206 51.9134C94.7382 51.8595 94.752 51.8043 94.7618 51.7484C94.8092 51.5681 94.8092 51.3786 94.7618 51.1983C94.7373 51.1197 94.6869 51.0519 94.6188 51.0057C94.6142 51.0066 94.6096 51.0066 94.605 51.0057C94.605 51.0057 94.5803 51.0057 94.5748 51.0057H94.5335C94.4791 50.9978 94.4235 51.0065 94.374 51.0305C94.2778 51.0711 94.1929 51.1343 94.1264 51.2148C94.0434 51.3122 93.974 51.4205 93.9201 51.5366C93.8879 51.5924 93.8594 51.6503 93.8349 51.7099V51.7484C93.8236 51.7672 93.8153 51.7876 93.8101 51.8089C93.8101 51.8227 93.7963 51.8364 93.8101 51.8502L93.4883 51.8722C93.5527 51.6661 93.6453 51.4698 93.7633 51.2891C93.8487 51.1332 93.9666 50.9976 94.109 50.8913C94.2513 50.785 94.4149 50.7105 94.5885 50.6729C94.7176 50.6587 94.8472 50.6953 94.9498 50.7748C95.0524 50.8544 95.1202 50.9707 95.1386 51.0993C95.1708 51.3097 95.152 51.5248 95.0836 51.7264Z" fill="#3C8AFF"/>
<path d="M96.8582 51.6005C96.7385 52.1192 96.4193 52.5698 95.9698 52.8548C95.7635 52.9868 95.6947 52.7063 95.89 52.5797C96.1762 52.3913 96.3897 52.1109 96.4952 51.7848C96.5089 51.7326 96.5254 51.672 96.5364 51.6198C96.5839 51.4395 96.5839 51.25 96.5364 51.0697C96.5132 50.9912 96.4637 50.9232 96.3961 50.8771H96.3796C96.3796 50.8771 96.3576 50.8771 96.3521 50.8771C96.3375 50.879 96.3227 50.879 96.3081 50.8771C96.2546 50.8698 96.2 50.8784 96.1513 50.9019C96.0537 50.9425 95.9677 51.0068 95.901 51.0889C95.8193 51.1857 95.7508 51.293 95.6975 51.408C95.6645 51.4602 95.6397 51.5208 95.6095 51.5813V51.6225C95.5997 51.6408 95.5923 51.6602 95.5875 51.6803C95.5837 51.6938 95.5837 51.7081 95.5875 51.7215L95.2656 51.7436C95.331 51.5378 95.4235 51.3417 95.5407 51.1604C95.6267 51.0051 95.7447 50.8698 95.887 50.7635C96.0292 50.6573 96.1925 50.5826 96.3659 50.5443C96.4951 50.5294 96.625 50.5657 96.7278 50.6454C96.8306 50.725 96.8982 50.8418 96.916 50.9706C96.9474 51.1822 96.9276 51.3982 96.8582 51.6005Z" fill="#3C8AFF"/>
<path d="M96.4845 58.2598C97.6865 60.7161 100.674 63.761 100.94 65.7662C101.023 66.2603 100.945 66.768 100.716 67.214C100.488 67.6599 100.122 68.0203 99.6724 68.2417C99.6724 68.2417 101.7 69.2237 101.639 71.0914C101.606 72.0541 100.044 72.8463 100.044 72.8463C100.044 72.8463 101.631 73.7045 101.477 75.3631C101.35 76.6834 99.8045 77.2885 99.8045 77.2885C99.8045 77.2885 100.943 78.8151 100.393 80.1106C99.2626 82.7567 87.8723 82.8888 86.0652 78.7133C85.2207 76.7687 88.0043 76.8869 88.0043 76.8869C88.0043 76.8869 84.0435 75.7509 83.9554 73.4019C83.8674 71.0529 87.4762 71.427 87.4762 71.427C87.4762 71.427 83.6474 70.291 83.8014 67.8512C83.9637 65.3096 87.5092 66.2998 87.5092 66.2998C87.5092 66.2998 84.9567 64.6109 85.504 62.768C86.4062 59.7258 91.2446 63.4832 93.7559 62.8615L95.0899 58.7164L96.4845 58.2598Z" fill="#AD6359"/>
<path d="M98.8123 61.8212C97.8798 59.3952 100.862 56.353 100.3 53.9077C99.544 50.607 95.8444 53.8912 95.0742 58.7213L95.1292 62.5721L98.8123 61.8212Z" fill="#AD6359"/>
<path d="M99.569 77.4124C99.6047 77.4124 99.6185 77.4619 99.569 77.4702C95.8336 78.4274 91.4354 78.3338 87.8293 76.92C87.7111 76.8733 87.7358 76.6615 87.8761 76.689C91.892 77.4316 95.5008 77.7865 99.569 77.4124Z" fill="#263238"/>
<path d="M100.1 72.8704C100.144 72.8704 100.153 72.9392 100.1 72.9502C96.2494 73.9156 91.2983 73.6736 87.3319 71.5391C87.1944 71.4676 87.1476 71.264 87.3099 71.3383C90.0578 72.5541 96.4365 73.2335 100.1 72.8704Z" fill="#263238"/>
<path d="M87.2577 66.057C91.1388 67.9549 95.2345 68.4198 99.5172 68.2905C99.5722 68.2905 99.5694 68.3675 99.5172 68.3813C97.4405 69.0139 94.7064 68.8131 92.5911 68.4748C90.6222 68.1993 88.7597 67.4131 87.1889 66.1945C87.1284 66.145 87.1889 66.0185 87.2577 66.057Z" fill="#263238"/>
<path d="M2.57031 99.6649L16.4362 99.5989L30.302 99.5741L58.0337 99.5273L85.7654 99.5741L99.6312 99.5989L113.497 99.6649L99.6312 99.7336L85.7654 99.7556L58.0337 99.8024L30.302 99.7556L16.4362 99.7309L2.57031 99.6649Z" fill="#263238"/>
<path d="M19.5776 87.9883H7.35938V106.318H19.5776V87.9883Z" fill="#3C8AFF"/>
<path d="M21.0564 83.0645H5.88672V87.9853H21.0564V83.0645Z" fill="#455A64"/>
<path d="M17.5359 93.2607H9.40234V101.394H17.5359V93.2607Z" fill="white"/>
<path opacity="0.1" d="M7.35938 87.9883V89.4158L14.2387 92.0152V106.316H17.5366V87.9883H7.35938Z" fill="black"/>
<path d="M3.56641 105.898C3.56641 105.696 3.6062 105.497 3.6835 105.31C3.76081 105.124 3.87411 104.954 4.01692 104.812C4.15974 104.669 4.32926 104.556 4.5158 104.479C4.70233 104.402 4.90221 104.363 5.104 104.363H8.16268C8.3646 104.363 8.56462 104.402 8.7513 104.479C8.93799 104.556 9.1077 104.669 9.25073 104.812C9.39377 104.954 9.50733 105.124 9.58493 105.31C9.66254 105.496 9.70267 105.696 9.70303 105.898C9.7023 106.306 9.53969 106.697 9.2509 106.986C8.96211 107.274 8.57073 107.436 8.16268 107.436H5.115C4.91226 107.437 4.7113 107.398 4.52364 107.321C4.33598 107.244 4.16532 107.131 4.02145 106.988C3.87758 106.846 3.76332 106.676 3.68523 106.489C3.60715 106.302 3.56677 106.101 3.56641 105.898Z" fill="#455A64"/>
<path d="M3.56641 105.898C3.56641 105.696 3.6062 105.497 3.6835 105.31C3.76081 105.124 3.87411 104.954 4.01693 104.812C4.15974 104.669 4.32927 104.556 4.5158 104.479C4.70233 104.402 4.90221 104.363 5.104 104.363H6.63059V107.441H5.115C4.9118 107.442 4.71039 107.403 4.52237 107.326C4.33435 107.249 4.16345 107.135 4.0195 106.992C3.87556 106.849 3.76141 106.678 3.68365 106.49C3.60589 106.303 3.56604 106.101 3.56641 105.898Z" fill="#3C8AFF"/>
<path d="M24.474 105.898C24.4736 106.1 24.4335 106.3 24.3559 106.486C24.2783 106.672 24.1647 106.842 24.0217 106.984C23.8787 107.127 23.709 107.24 23.5223 107.317C23.3356 107.394 23.1356 107.433 22.9336 107.433H19.8997C19.6978 107.433 19.4978 107.394 19.3111 107.317C19.1244 107.24 18.9547 107.127 18.8117 106.984C18.6686 106.842 18.5551 106.672 18.4775 106.486C18.3999 106.3 18.3597 106.1 18.3594 105.898C18.3594 105.489 18.5217 105.097 18.8105 104.809C19.0994 104.52 19.4912 104.357 19.8997 104.357H22.9447C23.3513 104.36 23.7402 104.524 24.0267 104.812C24.3132 105.101 24.474 105.491 24.474 105.898Z" fill="#455A64"/>
<path d="M24.4712 105.898C24.4708 106.1 24.4307 106.3 24.3531 106.486C24.2755 106.672 24.1619 106.842 24.0189 106.984C23.8758 107.127 23.7061 107.24 23.5194 107.317C23.3327 107.394 23.1327 107.433 22.9308 107.433H21.418V104.357H22.9418C23.3484 104.36 23.7374 104.524 24.0239 104.812C24.3104 105.101 24.4712 105.491 24.4712 105.898Z" fill="#3C8AFF"/>
<path d="M27.9392 106.517C27.7967 106.66 27.6273 106.773 27.4409 106.851C27.2544 106.928 27.0546 106.968 26.8527 106.968C26.6509 106.968 26.451 106.928 26.2646 106.851C26.0782 106.773 25.9088 106.66 25.7662 106.517L23.6098 104.363C23.3219 104.075 23.1602 103.684 23.1602 103.277C23.1602 102.869 23.3219 102.479 23.6098 102.19C23.899 101.902 24.2907 101.74 24.699 101.74C25.1073 101.74 25.499 101.902 25.7882 102.19L27.942 104.344C28.2288 104.633 28.3896 105.024 28.3891 105.431C28.3886 105.838 28.2268 106.229 27.9392 106.517Z" fill="#455A64"/>
<path d="M27.9387 106.516C27.7962 106.659 27.6268 106.772 27.4404 106.849C27.2539 106.927 27.0541 106.966 26.8522 106.966C26.6504 106.966 26.4505 106.927 26.2641 106.849C26.0777 106.772 25.9083 106.659 25.7657 106.516L24.6875 105.437L26.8632 103.262L27.9415 104.34C28.2292 104.629 28.3905 105.021 28.3899 105.428C28.3894 105.836 28.2272 106.227 27.9387 106.516Z" fill="#3C8AFF"/>
<path d="M14 108.974C14.0004 108.772 14.0405 108.573 14.1181 108.386C14.1957 108.2 14.3093 108.03 14.4523 107.888C14.5953 107.745 14.765 107.632 14.9517 107.555C15.1384 107.479 15.3384 107.439 15.5403 107.439H18.5853C18.7872 107.439 18.9872 107.479 19.1739 107.555C19.3606 107.632 19.5303 107.745 19.6733 107.888C19.8164 108.03 19.9299 108.2 20.0075 108.386C20.0851 108.573 20.1253 108.772 20.1256 108.974C20.1249 109.382 19.9623 109.773 19.6735 110.062C19.3847 110.35 18.9933 110.512 18.5853 110.512H15.5403C15.1323 110.512 14.7409 110.35 14.4521 110.062C14.1633 109.773 14.0007 109.382 14 108.974Z" fill="#455A64"/>
<path d="M14 108.974C14.0004 108.772 14.0405 108.573 14.1181 108.386C14.1957 108.2 14.3093 108.03 14.4523 107.888C14.5953 107.745 14.765 107.632 14.9517 107.555C15.1384 107.479 15.3384 107.439 15.5403 107.439H17.0642V110.517H15.5403C15.3378 110.517 15.1373 110.477 14.9502 110.4C14.7632 110.322 14.5933 110.209 14.4502 110.065C14.3071 109.922 14.1937 109.752 14.1165 109.565C14.0392 109.377 13.9996 109.177 14 108.974Z" fill="#3C8AFF"/>
<path d="M77.0558 105.606L76.9788 106.684C76.9788 106.7 76.9788 106.72 76.9788 106.739C76.9211 107.08 76.5332 107.363 75.9528 107.539C75.3348 107.711 74.6923 107.778 74.0522 107.737L73.7771 107.718C73.6836 107.718 73.5873 107.702 73.502 107.688C72.0332 107.498 70.9495 106.893 70.9935 106.263L71.0678 105.188C71.0237 105.817 72.1075 106.423 73.5763 106.612L73.8514 106.64C73.9449 106.64 74.0412 106.656 74.1264 106.659C74.7666 106.701 75.4094 106.634 76.0271 106.461C76.6075 106.288 76.9926 106.007 77.0531 105.663C77.0531 105.641 77.0531 105.628 77.0558 105.606Z" fill="#DBDBDB"/>
<path d="M72.0874 104.333C72.7036 104.161 73.3442 104.094 73.9826 104.135L73.5618 106.61C73.6525 106.61 73.7488 106.632 73.8368 106.638C73.9249 106.643 74.0239 106.654 74.1119 106.66L74.5327 104.184C76.0456 104.377 77.1486 105.009 77.0358 105.661C76.9808 106.005 76.5929 106.286 76.0126 106.464C75.3946 106.636 74.7521 106.703 74.1119 106.663C74.0184 106.663 73.9221 106.663 73.8368 106.641C73.7516 106.619 73.647 106.624 73.5618 106.613C72.0489 106.42 70.9459 105.788 71.0587 105.136C71.1165 104.792 71.5098 104.509 72.0874 104.333Z" fill="white"/>
<path d="M73.9833 104.135L74.2584 104.154L74.5335 104.184L74.1126 106.66C74.0191 106.66 73.9228 106.66 73.8376 106.638C73.7523 106.616 73.6478 106.621 73.5625 106.61L73.9833 104.135Z" fill="#DBDBDB"/>
<path d="M76.8879 107.592V108.67C76.8865 108.688 76.8865 108.707 76.8879 108.725C76.9181 109.069 77.2839 109.385 77.8451 109.605C78.4472 109.826 79.0823 109.944 79.7237 109.955H79.9988C80.0923 109.955 80.1886 109.955 80.2739 109.955C81.7537 109.883 82.8842 109.366 82.8897 108.733V107.655C82.8897 108.285 81.7537 108.802 80.2739 108.876H79.9988C79.9072 108.882 79.8153 108.882 79.7237 108.876C79.0825 108.867 78.4474 108.75 77.8451 108.53C77.2784 108.31 76.9181 107.996 76.8879 107.65C76.8863 107.63 76.8863 107.611 76.8879 107.592Z" fill="#DBDBDB"/>
<path d="M81.9438 106.717C81.3425 106.495 80.7083 106.377 80.0678 106.367L80.2906 108.87C80.1971 108.87 80.1008 108.87 80.0156 108.87H79.7405L79.5177 106.367C77.9939 106.439 76.8441 106.983 76.9046 107.638C76.9349 107.987 77.298 108.298 77.8618 108.521C78.464 108.742 79.0991 108.86 79.7405 108.87H80.0156C80.1091 108.87 80.2054 108.87 80.2906 108.87C81.8117 108.799 82.9642 108.254 82.9037 107.599C82.8735 107.25 82.5159 106.939 81.9438 106.717Z" fill="white"/>
<path d="M80.0657 106.367H79.7907C79.6972 106.367 79.6055 106.367 79.5156 106.367L79.7384 108.87H80.0135C80.107 108.87 80.2033 108.87 80.2885 108.87L80.0657 106.367Z" fill="#DBDBDB"/>
<path d="M68.8518 107.244C68.1946 107.616 67.4581 107.825 66.7036 107.855C66.0583 107.899 65.4113 107.801 64.8084 107.566C64.7424 107.539 64.6736 107.503 64.6076 107.47C64.5416 107.437 64.4811 107.398 64.4233 107.36C64.259 107.267 64.1183 107.138 64.0119 106.982C63.9056 106.826 63.8365 106.647 63.81 106.46L63.7109 105.478C63.7393 105.668 63.8113 105.847 63.9211 106.004C64.0308 106.161 64.1755 106.29 64.3436 106.381C64.3986 106.416 64.4591 106.451 64.5251 106.488C64.5892 106.524 64.6553 106.556 64.7232 106.584C65.326 106.819 65.9731 106.917 66.6183 106.873C67.3722 106.844 68.1084 106.637 68.7666 106.268C69.435 105.866 69.7485 105.357 69.699 104.893L69.798 105.875C69.8338 106.337 69.5202 106.846 68.8518 107.244Z" fill="#DBDBDB"/>
<path d="M64.7121 106.585L64.7671 107.157L68.761 104.761L68.6647 103.779L64.3242 106.381C64.3765 106.417 64.4397 106.453 64.5058 106.489C64.5718 106.524 64.635 106.555 64.7121 106.585Z" fill="#3C8AFF"/>
<path d="M68.6686 103.779C68.7374 103.81 68.8061 103.84 68.8721 103.876C68.9382 103.911 68.9959 103.944 69.0537 103.983L64.7105 106.585C64.6389 106.555 64.5757 106.524 64.5097 106.489C64.4436 106.453 64.3804 106.417 64.3281 106.381L68.6686 103.779Z" fill="#DBDBDB"/>
<path d="M69.0542 103.982L69.1532 104.962L64.8072 107.564L64.7109 106.585L69.0542 103.982Z" fill="#DBDBDB"/>
<path d="M66.7752 103.49C67.4204 103.447 68.0673 103.546 68.6703 103.779L64.3299 106.381C64.3821 106.417 64.4454 106.453 64.5114 106.489C64.5774 106.524 64.6407 106.555 64.7122 106.585L69.0554 103.983C70.0016 104.593 69.8806 105.586 68.7529 106.266C68.0957 106.635 67.3605 106.843 66.6074 106.874C65.9621 106.917 65.3152 106.818 64.7122 106.585C64.6407 106.555 64.5774 106.524 64.5114 106.489C64.4454 106.453 64.3821 106.417 64.3299 106.381C63.3837 105.768 63.5047 104.778 64.6324 104.098C65.2887 103.729 66.023 103.521 66.7752 103.49Z" fill="white"/>
<path d="M84.7288 106.453C85.3852 106.825 86.1207 107.034 86.8743 107.064C87.5205 107.109 88.1685 107.01 88.7722 106.775C88.8382 106.748 88.907 106.712 88.973 106.679C89.039 106.646 89.0996 106.607 89.1546 106.569C89.3218 106.478 89.4657 106.349 89.575 106.193C89.6842 106.037 89.7559 105.858 89.7845 105.669L89.8835 104.687C89.8547 104.876 89.7826 105.056 89.6728 105.213C89.5631 105.369 89.4187 105.498 89.2508 105.59C89.1958 105.624 89.1353 105.66 89.0693 105.697C89.0052 105.733 88.9391 105.765 88.8712 105.793C88.2676 106.028 87.6195 106.127 86.9733 106.082C86.2202 106.054 85.4847 105.846 84.8278 105.477C84.1594 105.075 83.8459 104.566 83.8926 104.102L83.7936 105.084C83.7469 105.548 84.0604 106.054 84.7288 106.453Z" fill="#DBDBDB"/>
<path d="M88.8697 105.793L88.8119 106.365L84.8125 103.969L84.9115 102.99L89.252 105.59C89.1936 105.629 89.1329 105.665 89.0704 105.697C89.0044 105.733 88.9384 105.763 88.8697 105.793Z" fill="#3C8AFF"/>
<path d="M84.9113 102.99C84.8425 103.018 84.7737 103.051 84.7077 103.084C84.6417 103.117 84.584 103.153 84.5234 103.191L88.8694 105.793C88.9382 105.763 89.0042 105.733 89.0702 105.697C89.1327 105.665 89.1933 105.629 89.2517 105.59L84.9113 102.99Z" fill="#DBDBDB"/>
<path d="M84.5248 103.191L84.4258 104.171L88.7717 106.773L88.868 105.793L84.5248 103.191Z" fill="#DBDBDB"/>
<path d="M86.8041 102.702C86.1596 102.656 85.513 102.755 84.9116 102.991L89.2521 105.591C89.1937 105.63 89.1331 105.666 89.0706 105.698C89.0046 105.734 88.9385 105.764 88.8698 105.794L84.5238 103.192C83.5803 103.805 83.6986 104.796 84.8291 105.475C85.4862 105.844 86.2215 106.053 86.9746 106.083C87.62 106.129 88.2675 106.03 88.8698 105.794C88.9385 105.764 89.0046 105.734 89.0706 105.698C89.1331 105.666 89.1937 105.63 89.2521 105.591C90.1983 104.977 90.0773 103.987 88.9496 103.308C88.2927 102.938 87.5572 102.731 86.8041 102.702Z" fill="white"/>
<path d="M66.4337 102.777L66.42 103.918C66.4164 103.993 66.385 104.063 66.332 104.116C66.1339 104.342 65.6278 104.52 64.9704 104.622C64.3067 104.719 63.635 104.749 62.9652 104.713L62.6901 104.694L62.4151 104.666C61.1883 104.531 60.3879 104.196 60.3906 103.841L60.4071 102.705C60.4071 103.057 61.2076 103.393 62.4316 103.53C62.5169 103.544 62.6131 103.552 62.7066 103.558L62.9817 103.58C63.6514 103.619 64.3234 103.588 64.9869 103.489C65.6416 103.384 66.1504 103.214 66.3622 102.98C66.4114 102.924 66.4371 102.851 66.4337 102.777Z" fill="#DBDBDB"/>
<path d="M62.7095 103.555L62.693 104.694L62.418 104.666L62.4317 103.527L62.7095 103.555Z" fill="#DBDBDB"/>
<path d="M63.8678 101.904L64.1429 101.924C64.2364 101.924 64.3281 101.932 64.4179 101.948L62.9876 103.571L62.7126 103.555L62.4375 103.527L63.8678 101.904Z" fill="#DBDBDB"/>
<path d="M64.4156 101.947L64.3991 103.086L62.9688 104.712L62.9853 103.57L64.4156 101.947Z" fill="#DBDBDB"/>
<path d="M61.8676 101.992C62.5293 101.894 63.1995 101.864 63.8673 101.904L62.4342 103.527L62.7093 103.554L62.9843 103.571L64.4147 101.948C65.8642 102.107 66.7224 102.553 66.3401 102.977C66.142 103.202 65.6359 103.378 64.9648 103.483C64.303 103.581 63.6329 103.61 62.9651 103.571L62.69 103.554L62.415 103.527C60.9626 103.367 60.1072 102.924 60.4895 102.498C60.7013 102.272 61.2074 102.096 61.8676 101.992Z" fill="white"/>
<path d="M73.8672 102.864L73.8837 104.003C73.8842 104.04 73.8922 104.077 73.9074 104.111C73.9225 104.145 73.9444 104.176 73.9717 104.201C74.1698 104.426 74.6759 104.605 75.3333 104.71C75.9961 104.806 76.6669 104.837 77.3357 104.801L77.6108 104.779C77.6988 104.779 77.7923 104.765 77.8858 104.751C79.1126 104.616 79.913 104.281 79.9075 103.926V102.787C79.9075 103.142 79.1071 103.478 77.8831 103.612L77.608 103.64L77.333 103.659C76.6642 103.701 75.9928 103.67 75.3305 103.568C74.6731 103.467 74.167 103.293 73.969 103.062C73.9391 103.038 73.9147 103.008 73.8971 102.974C73.8796 102.94 73.8694 102.902 73.8672 102.864Z" fill="#DBDBDB"/>
<path d="M77.5977 103.64L77.6114 104.779C77.7022 104.779 77.7957 104.762 77.8865 104.754L77.87 103.615L77.5977 103.64Z" fill="#DBDBDB"/>
<path d="M76.4368 101.988L76.1618 102.008L75.8867 102.032L77.317 103.658L77.5921 103.639L77.8672 103.614L76.4368 101.988Z" fill="#DBDBDB"/>
<path d="M75.8906 102.033L75.9044 103.175L77.3374 104.798L77.3209 103.659L75.8906 102.033Z" fill="#DBDBDB"/>
<path d="M78.4347 102.077C77.7737 101.98 77.1046 101.951 76.4377 101.989L77.8681 103.614L77.593 103.639L77.3179 103.658L75.8876 102.033C74.4353 102.195 73.5798 102.638 73.9622 103.062C74.1602 103.287 74.6663 103.466 75.3237 103.568C75.9863 103.667 76.6574 103.697 77.3262 103.658L77.6012 103.639L77.8763 103.614C79.3314 103.455 80.1868 103.009 79.8017 102.586C79.6037 102.36 79.0948 102.181 78.4347 102.077Z" fill="white"/>
<path d="M66.9336 108.48L66.9474 109.621C66.9479 109.658 66.9559 109.695 66.971 109.729C66.9862 109.763 67.0081 109.794 67.0354 109.819C67.2334 110.045 67.7395 110.221 68.3969 110.325C69.0598 110.422 69.7305 110.452 70.3994 110.416L70.6744 110.397L70.9495 110.369C72.1763 110.235 72.9767 109.896 72.974 109.544L72.9574 108.408C72.9574 108.76 72.157 109.096 70.933 109.233L70.6579 109.261L70.3829 109.28C69.7131 109.322 69.0409 109.291 68.3777 109.189C67.7203 109.088 67.2142 108.914 67.0161 108.683C66.9629 108.629 66.9332 108.556 66.9336 108.48Z" fill="#DBDBDB"/>
<path d="M70.6641 109.267L70.6806 110.408L70.9556 110.381L70.9391 109.242L70.6641 109.267Z" fill="#DBDBDB"/>
<path d="M69.4993 107.617L69.2243 107.636L68.9492 107.664L70.3795 109.287L70.6546 109.268L70.9297 109.243L69.4993 107.617Z" fill="#DBDBDB"/>
<path d="M68.9531 107.652L68.9669 108.791L70.3999 110.414L70.3834 109.275L68.9531 107.652Z" fill="#DBDBDB"/>
<path d="M71.5115 107.697C70.8498 107.598 70.1797 107.567 69.5118 107.606L70.9421 109.232L70.667 109.257L70.392 109.276L68.9617 107.653C67.5121 107.812 66.6539 108.255 67.0362 108.682C67.2343 108.904 67.7404 109.083 68.3978 109.188C69.0606 109.284 69.7315 109.314 70.4002 109.276L70.6753 109.257L70.9503 109.232C72.4054 109.072 73.2609 108.627 72.8758 108.203C72.6667 107.977 72.1579 107.801 71.5115 107.697Z" fill="white"/>
<path d="M95.7914 83.6318H105.322C105.941 83.6318 106.534 83.8776 106.972 84.315C107.409 84.7524 107.655 85.3457 107.655 85.9644V106.941C107.655 107.172 107.563 107.394 107.399 107.557C107.236 107.721 107.014 107.812 106.783 107.812H94.3446C94.1134 107.812 93.8916 107.721 93.7281 107.557C93.5645 107.394 93.4727 107.172 93.4727 106.941V85.9616C93.4734 85.3458 93.7176 84.7553 94.1519 84.3189C94.5863 83.8824 95.1757 83.6355 95.7914 83.6318Z" fill="#3C8AFF"/>
<path d="M104.668 80.5615H96.4492V84.3271H104.668V80.5615Z" fill="#3C8AFF"/>
<path d="M107.654 91.5068H93.4609V101.076H107.654V91.5068Z" fill="#EBEBEB"/>
<path d="M107.654 99.1201H93.4609V99.9866H107.654V99.1201Z" fill="#455A64"/>
<path d="M107.654 92.5986H93.4609V93.4651H107.654V92.5986Z" fill="#455A64"/>
<path d="M105.238 77.9268H95.875V81.4145H105.238V77.9268Z" fill="#455A64"/>
<path d="M105.728 81.4121H95.3828V82.4436H105.728V81.4121Z" fill="#37474F"/>
<path d="M96.6227 78.4141H96.5017C96.4166 78.4141 96.3477 78.483 96.3477 78.5681V80.7741C96.3477 80.8592 96.4166 80.9281 96.5017 80.9281H96.6227C96.7078 80.9281 96.7768 80.8592 96.7768 80.7741V78.5681C96.7768 78.483 96.7078 78.4141 96.6227 78.4141Z" fill="#37474F"/>
<path d="M97.4235 78.4141H97.3025C97.2174 78.4141 97.1484 78.483 97.1484 78.5681V80.7741C97.1484 80.8592 97.2174 80.9281 97.3025 80.9281H97.4235C97.5086 80.9281 97.5775 80.8592 97.5775 80.7741V78.5681C97.5775 78.483 97.5086 78.4141 97.4235 78.4141Z" fill="#37474F"/>
<path d="M98.0982 78.4141H98.222C98.2621 78.4141 98.3006 78.43 98.329 78.4584C98.3573 78.4868 98.3733 78.5253 98.3733 78.5654V80.7659C98.3733 80.8067 98.357 80.8459 98.3281 80.8748C98.2993 80.9037 98.2601 80.9199 98.2192 80.9199H98.0954C98.0546 80.9199 98.0154 80.9037 97.9865 80.8748C97.9576 80.8459 97.9414 80.8067 97.9414 80.7659V78.5654C97.9418 78.5451 97.9461 78.5252 97.9542 78.5066C97.9623 78.4881 97.9739 78.4713 97.9885 78.4573C98.003 78.4432 98.0202 78.4322 98.039 78.4248C98.0579 78.4174 98.078 78.4137 98.0982 78.4141Z" fill="#37474F"/>
<path d="M99.0212 78.4141H98.9001C98.8151 78.4141 98.7461 78.483 98.7461 78.5681V80.7741C98.7461 80.8592 98.8151 80.9281 98.9001 80.9281H99.0212C99.1062 80.9281 99.1752 80.8592 99.1752 80.7741V78.5681C99.1752 78.483 99.1062 78.4141 99.0212 78.4141Z" fill="#37474F"/>
<path d="M99.8219 78.4141H99.7009C99.6158 78.4141 99.5469 78.483 99.5469 78.5681V80.7741C99.5469 80.8592 99.6158 80.9281 99.7009 80.9281H99.8219C99.907 80.9281 99.976 80.8592 99.976 80.7741V78.5681C99.976 78.483 99.907 78.4141 99.8219 78.4141Z" fill="#37474F"/>
<path d="M100.495 78.4141H100.619C100.66 78.4141 100.699 78.4303 100.728 78.4592C100.757 78.4881 100.773 78.5273 100.773 78.5681V80.7686C100.773 80.8094 100.757 80.8486 100.728 80.8775C100.699 80.9064 100.66 80.9226 100.619 80.9226H100.495C100.455 80.9226 100.416 80.9067 100.388 80.8783C100.36 80.8499 100.344 80.8115 100.344 80.7713V78.5708C100.343 78.5506 100.347 78.5305 100.354 78.5117C100.362 78.4929 100.373 78.4757 100.387 78.4611C100.401 78.4466 100.418 78.4349 100.436 78.4268C100.455 78.4188 100.475 78.4144 100.495 78.4141Z" fill="#37474F"/>
<path d="M101.416 78.4141H101.295C101.21 78.4141 101.141 78.483 101.141 78.5681V80.7741C101.141 80.8592 101.21 80.9281 101.295 80.9281H101.416C101.501 80.9281 101.57 80.8592 101.57 80.7741V78.5681C101.57 78.483 101.501 78.4141 101.416 78.4141Z" fill="#37474F"/>
<path d="M102.216 78.4141H102.095C102.01 78.4141 101.941 78.483 101.941 78.5681V80.7741C101.941 80.8592 102.01 80.9281 102.095 80.9281H102.216C102.302 80.9281 102.371 80.8592 102.371 80.7741V78.5681C102.371 78.483 102.302 78.4141 102.216 78.4141Z" fill="#37474F"/>
<path d="M102.893 78.4141H103.017C103.058 78.4141 103.097 78.4303 103.126 78.4592C103.155 78.4881 103.171 78.5273 103.171 78.5681V80.7686C103.171 80.8094 103.155 80.8486 103.126 80.8775C103.097 80.9064 103.058 80.9226 103.017 80.9226H102.893C102.853 80.9226 102.815 80.9067 102.787 80.8783C102.758 80.8499 102.742 80.8115 102.742 80.7713V78.5708C102.742 78.5506 102.745 78.5305 102.753 78.5117C102.76 78.4929 102.771 78.4757 102.785 78.4611C102.799 78.4466 102.816 78.4349 102.835 78.4268C102.853 78.4188 102.873 78.4144 102.893 78.4141Z" fill="#37474F"/>
<path d="M103.81 78.4141H103.689C103.604 78.4141 103.535 78.483 103.535 78.5681V80.7741C103.535 80.8592 103.604 80.9281 103.689 80.9281H103.81C103.895 80.9281 103.964 80.8592 103.964 80.7741V78.5681C103.964 78.483 103.895 78.4141 103.81 78.4141Z" fill="#37474F"/>
<path d="M104.611 78.4141H104.49C104.405 78.4141 104.336 78.483 104.336 78.5681V80.7741C104.336 80.8592 104.405 80.9281 104.49 80.9281H104.611C104.696 80.9281 104.765 80.8592 104.765 80.7741V78.5681C104.765 78.483 104.696 78.4141 104.611 78.4141Z" fill="#37474F"/>
<path d="M36.6785 113.569L36.7578 105.596L35.7044 105.585L35.625 113.559L36.6785 113.569Z" fill="#3C8AFF"/>
<path opacity="0.1" d="M36.6785 113.569L36.7578 105.596L35.7044 105.585L35.625 113.559L36.6785 113.569Z" fill="black"/>
<path d="M29.5413 112.089L29.5898 107.207L28.5364 107.197L28.4878 112.079L29.5413 112.089Z" fill="#3C8AFF"/>
<path opacity="0.1" d="M29.5413 112.089L29.5898 107.207L28.5364 107.197L28.4878 112.079L29.5413 112.089Z" fill="black"/>
<path d="M35.6578 111.001L35.6836 108.41L29.5775 108.349L29.5518 110.94L35.6578 111.001Z" fill="#3C8AFF"/>
<path opacity="0.2" d="M34.668 110.989L35.0283 108.4L35.6802 108.409L35.6527 110.997L34.668 110.989Z" fill="black"/>
<path d="M59.1094 109.817C60.1684 109.792 61.2274 109.787 62.2891 109.781H65.466L68.643 109.834L70.2301 109.875C70.761 109.894 71.2891 109.908 71.82 109.935C71.2891 109.949 70.761 109.952 70.2301 109.963H68.6403H65.4633L62.2863 109.911C61.2273 109.88 60.1684 109.853 59.1094 109.817Z" fill="#263238"/>
<path d="M58.3534 112.656L58.4102 106.949L36.7501 106.734L36.6934 112.441L58.3534 112.656Z" fill="#3C8AFF"/>
<path opacity="0.6" d="M58.3534 112.656L58.4102 106.949L36.7501 106.734L36.6934 112.441L58.3534 112.656Z" fill="white"/>
<path d="M58.3605 111.905L58.4023 107.699L37.7683 107.494L37.7264 111.699L58.3605 111.905Z" fill="#3C8AFF"/>
<path d="M56.1613 108.206L56.1719 107.145L56.0454 107.143L56.0348 108.205L56.1613 108.206Z" fill="#263238"/>
<path d="M55.7355 108.208L55.7461 107.146L55.6196 107.145L55.609 108.207L55.7355 108.208Z" fill="#263238"/>
<path d="M55.3098 108.204L55.3203 107.143L55.1938 107.141L55.1832 108.203L55.3098 108.204Z" fill="#263238"/>
<path d="M54.8879 108.2L54.8984 107.139L54.7719 107.137L54.7613 108.199L54.8879 108.2Z" fill="#263238"/>
<path d="M54.4504 108.969L54.4688 107.129L54.3422 107.128L54.3239 108.968L54.4504 108.969Z" fill="#263238"/>
<path d="M54.0558 108.193L54.0664 107.131L53.9399 107.13L53.9293 108.191L54.0558 108.193Z" fill="#263238"/>
<path d="M53.6262 108.187L53.6367 107.125L53.5102 107.124L53.4996 108.185L53.6262 108.187Z" fill="#263238"/>
<path d="M53.2004 108.179L53.2109 107.117L53.0844 107.116L53.0739 108.178L53.2004 108.179Z" fill="#263238"/>
<path d="M52.7706 108.173L52.7812 107.111L52.6547 107.11L52.6441 108.172L52.7706 108.173Z" fill="#263238"/>
<path d="M52.3411 108.951L52.3594 107.111L52.2329 107.11L52.2145 108.95L52.3411 108.951Z" fill="#263238"/>
<path d="M51.9465 108.171L51.957 107.109L51.8305 107.108L51.8199 108.17L51.9465 108.171Z" fill="#263238"/>
<path d="M51.5168 108.159L51.5273 107.098L51.4008 107.096L51.3903 108.158L51.5168 108.159Z" fill="#263238"/>
<path d="M51.091 108.157L51.1016 107.096L50.975 107.094L50.9645 108.156L51.091 108.157Z" fill="#263238"/>
<path d="M50.6652 108.159L50.6758 107.098L50.5493 107.096L50.5387 108.158L50.6652 108.159Z" fill="#263238"/>
<path d="M50.2317 108.932L50.25 107.092L50.1235 107.091L50.1052 108.931L50.2317 108.932Z" fill="#263238"/>
<path d="M49.8371 108.15L49.8477 107.088L49.7211 107.087L49.7106 108.148L49.8371 108.15Z" fill="#263238"/>
<path d="M49.4074 108.142L49.418 107.08L49.2914 107.079L49.2809 108.141L49.4074 108.142Z" fill="#263238"/>
<path d="M48.9855 108.142L48.9961 107.08L48.8696 107.079L48.859 108.141L48.9855 108.142Z" fill="#263238"/>
<path d="M48.5558 108.13L48.5664 107.068L48.4399 107.067L48.4293 108.129L48.5558 108.13Z" fill="#263238"/>
<path d="M48.1262 108.908L48.1445 107.068L48.018 107.067L47.9997 108.907L48.1262 108.908Z" fill="#263238"/>
<path d="M47.7277 108.128L47.7383 107.066L47.6118 107.065L47.6012 108.127L47.7277 108.128Z" fill="#263238"/>
<path d="M47.298 108.12L47.3086 107.059L47.1821 107.057L47.1715 108.119L47.298 108.12Z" fill="#263238"/>
<path d="M46.8762 108.12L46.8867 107.059L46.7602 107.057L46.7496 108.119L46.8762 108.12Z" fill="#263238"/>
<path d="M46.4465 108.109L46.457 107.047L46.3305 107.046L46.3199 108.107L46.4465 108.109Z" fill="#263238"/>
<path d="M46.0168 108.889L46.0352 107.049L45.9086 107.048L45.8903 108.888L46.0168 108.889Z" fill="#263238"/>
<path d="M45.6144 108.107L45.625 107.045L45.4985 107.044L45.4879 108.105L45.6144 108.107Z" fill="#263238"/>
<path d="M45.1926 108.103L45.2031 107.041L45.0766 107.04L45.066 108.101L45.1926 108.103Z" fill="#263238"/>
<path d="M44.7707 108.097L44.7812 107.035L44.6547 107.034L44.6442 108.096L44.7707 108.097Z" fill="#263238"/>
<path d="M44.3371 108.089L44.3477 107.027L44.2211 107.026L44.2106 108.088L44.3371 108.089Z" fill="#263238"/>
<path d="M43.9075 108.869L43.9258 107.029L43.7993 107.028L43.781 108.868L43.9075 108.869Z" fill="#263238"/>
<path d="M43.5051 108.081L43.5156 107.02L43.3891 107.018L43.3785 108.08L43.5051 108.081Z" fill="#263238"/>
<path d="M43.0832 108.079L43.0938 107.018L42.9672 107.016L42.9567 108.078L43.0832 108.079Z" fill="#263238"/>
<path d="M42.6535 108.073L42.6641 107.012L42.5375 107.01L42.527 108.072L42.6535 108.073Z" fill="#263238"/>
<path d="M42.2316 108.071L42.2422 107.01L42.1157 107.009L42.1051 108.07L42.2316 108.071Z" fill="#263238"/>
<path d="M41.7981 108.846L41.8164 107.006L41.6899 107.005L41.6716 108.845L41.7981 108.846Z" fill="#263238"/>
<path d="M41.3996 108.062L41.4102 107L41.2836 106.999L41.2731 108.06L41.3996 108.062Z" fill="#263238"/>
<path d="M40.9699 108.058L40.9805 106.996L40.8539 106.995L40.8434 108.057L40.9699 108.058Z" fill="#263238"/>
<path d="M40.5402 108.048L40.5508 106.986L40.4243 106.985L40.4137 108.047L40.5402 108.048Z" fill="#263238"/>
<path d="M40.1223 108.054L40.1328 106.992L40.0063 106.991L39.9957 108.053L40.1223 108.054Z" fill="#263238"/>
<path d="M39.6848 108.824L39.7031 106.984L39.5766 106.983L39.5583 108.823L39.6848 108.824Z" fill="#263238"/>
<path d="M39.2863 108.04L39.2969 106.979L39.1703 106.977L39.1598 108.039L39.2863 108.04Z" fill="#263238"/>
<path d="M38.8644 108.04L38.875 106.979L38.7485 106.977L38.7379 108.039L38.8644 108.04Z" fill="#263238"/>
<path d="M38.4387 108.032L38.4492 106.971L38.3227 106.969L38.3121 108.031L38.4387 108.032Z" fill="#263238"/>
<path d="M38.009 108.032L38.0195 106.971L37.893 106.969L37.8824 108.031L38.009 108.032Z" fill="#263238"/>
<path d="M37.5754 108.805L37.5938 106.965L37.4672 106.964L37.4489 108.804L37.5754 108.805Z" fill="#263238"/>
<path d="M58.3534 112.655L58.4102 106.947L56.7764 106.931L56.7196 112.638L58.3534 112.655Z" fill="#263238"/>
<path d="M60.2351 111.751L60.2734 107.895L58.4031 107.876L58.3648 111.732L60.2351 111.751Z" fill="#3C8AFF"/>
<path d="M62.4867 110.334L62.4949 109.341L60.2559 109.141L60.2422 110.491L62.4867 110.334Z" fill="#3C8AFF"/>
<path opacity="0.1" d="M60.2422 110.492L60.2559 109.145L60.8913 109.2L60.7813 110.454L60.2422 110.492Z" fill="black"/>
</svg>
