<svg width="47" height="47" viewBox="0 0 47 47" fill="none" xmlns="http://www.w3.org/2000/svg">
<path d="M23.3251 31.4653H17.3053C17.0772 31.4653 16.8585 31.3747 16.6972 31.2134C16.5359 31.0521 16.4453 30.8334 16.4453 30.6053V16.8458C16.4453 16.6177 16.5359 16.399 16.6972 16.2377C16.8585 16.0764 17.0772 15.9858 17.3053 15.9858H29.3449C29.5729 15.9858 29.7917 16.0764 29.9529 16.2377C30.1142 16.399 30.2048 16.6177 30.2048 16.8458V21.7906" stroke="white" stroke-width="1.71994" stroke-linecap="round" stroke-linejoin="round"/>
<path d="M29.1889 25.0152C30.2251 25.0152 31.0653 25.8235 31.0653 26.8211C31.0653 28.1197 29.814 29.229 29.1889 29.831C28.7718 30.2322 28.2511 30.6338 27.6254 31.035C27.0002 30.6338 26.4787 30.2322 26.062 29.831C25.4364 29.229 24.1855 28.1197 24.1855 26.8211C24.1855 25.8235 25.0257 25.0152 26.062 25.0152C26.7143 25.0152 27.2892 25.3359 27.6254 25.8227C27.8013 25.5717 28.0354 25.367 28.3077 25.2264C28.58 25.0858 28.8824 25.0133 29.1889 25.0152V25.0152Z" fill="white" stroke="white" stroke-width="1.71994" stroke-linejoin="round"/>
<path d="M19.8867 19.4253H26.7665" stroke="white" stroke-width="1.71994" stroke-linecap="round"/>
</svg>
