<svg width="20" height="26" viewBox="0 0 20 26" fill="none" xmlns="http://www.w3.org/2000/svg">
<path d="M5.96038 0.603028C5.2225 0.603028 4.57491 1.08901 4.37099 1.79476L0.868406 13.9814C0.798007 14.2261 0.785749 14.4838 0.832598 14.7341C0.879448 14.9843 0.984125 15.2204 1.13838 15.4235C1.29263 15.6267 1.49224 15.7915 1.72148 15.9049C1.95072 16.0183 2.20331 16.0772 2.45936 16.077H4.4317L2.61036 23.3202C2.19939 24.9531 4.23088 26.0705 5.40619 24.8602L18.9121 11.1506L18.9184 11.1444C19.9147 10.1121 19.1986 8.34155 17.7244 8.34155H13.733L15.6975 2.7791L15.7007 2.76672C15.7836 2.51957 15.8062 2.25636 15.7667 1.9988C15.7272 1.74124 15.6266 1.49672 15.4734 1.28539C15.3201 1.07405 15.1185 0.901973 14.8852 0.783333C14.6519 0.664692 14.3936 0.602892 14.1315 0.603028H5.96038Z" fill="#FDFDFD"/>
</svg>
