<svg width="48" height="47" viewBox="0 0 48 47" fill="none" xmlns="http://www.w3.org/2000/svg">
<path d="M26.3026 19.3721V14.438H19.3922C18.9326 14.438 18.5629 14.8262 18.5629 15.3087V23.7257H16.628C16.476 23.7257 16.3516 23.8563 16.3516 24.0159V24.5964C16.3516 24.756 16.476 24.8866 16.628 24.8866H21.4964C21.6001 24.8866 21.6968 24.9483 21.7452 25.0462L22.4328 26.4902L24.3953 22.3652C24.4956 22.1511 24.7892 22.1511 24.8894 22.3652L26.0884 24.8866H28.514C28.818 24.8866 29.0668 25.1478 29.0668 25.4671C29.0668 25.7864 28.818 26.0476 28.514 26.0476H25.4077L24.6441 24.444L22.6816 28.569C22.5814 28.7831 22.2877 28.7831 22.1875 28.569L20.985 26.0476H18.5629V32.1426C18.5629 32.6251 18.9326 33.0133 19.3922 33.0133H31.0018C31.4613 33.0133 31.831 32.6251 31.831 32.1426V20.2428H27.1319C26.6758 20.2428 26.3026 19.851 26.3026 19.3721ZM31.5891 18.2474L28.2065 14.6919C28.051 14.5287 27.8402 14.438 27.6191 14.438H27.4083V19.0818H31.831V18.8605C31.831 18.632 31.7446 18.4106 31.5891 18.2474Z" fill="white"/>
</svg>
