<svg width="48" height="48" viewBox="0 0 48 48" fill="none" xmlns="http://www.w3.org/2000/svg">
<path d="M23.4348 11.732C23.5211 11.6496 23.6236 11.5843 23.7364 11.5397C23.8492 11.4951 23.9702 11.4722 24.0924 11.4722C24.2145 11.4722 24.3355 11.4951 24.4483 11.5397C24.5612 11.5843 24.6637 11.6496 24.7499 11.732C25.2347 12.1955 27.3653 14.297 29.3808 17.0442C31.3683 19.7525 33.38 23.2639 33.38 26.51C33.38 29.6587 32.3082 32.1088 30.564 33.7716C28.8272 35.4291 26.4904 36.2393 24.0924 36.2393C21.6943 36.2393 19.3575 35.4291 17.6207 33.7716C15.8765 32.1088 14.8047 29.6605 14.8047 26.51C14.8047 23.2639 16.8164 19.7525 18.804 17.046C20.1956 15.1594 21.7442 13.3824 23.4348 11.732Z" fill="white"/>
<path fill-rule="evenodd" clip-rule="evenodd" d="M25.2523 22.3079C25.2523 21.6668 24.7325 21.147 24.0914 21.147C23.4502 21.147 22.9304 21.6668 22.9304 22.3079V25.0168H20.2215C19.5803 25.0168 19.0605 25.5366 19.0605 26.1778C19.0605 26.819 19.5803 27.3388 20.2215 27.3388H22.9304V30.0477C22.9304 30.6888 23.4502 31.2086 24.0914 31.2086C24.7325 31.2086 25.2523 30.6888 25.2523 30.0477V27.3388H27.9612C28.6024 27.3388 29.1222 26.819 29.1222 26.1778C29.1222 25.5366 28.6024 25.0168 27.9612 25.0168H25.2523V22.3079Z" fill="#1C9A9A"/>
</svg>
