<svg width="248" height="249" viewBox="0 0 248 249" fill="none" xmlns="http://www.w3.org/2000/svg">
<circle cx="124" cy="124.812" r="124" fill="white" fill-opacity="0.15"/>
<circle cx="124" cy="124.812" r="98" fill="white" fill-opacity="0.15"/>
<circle cx="124" cy="124.812" r="70" fill="white" fill-opacity="0.15"/>
<path d="M135.923 120.043C135.923 115.448 134.29 111.517 131.023 108.251C127.757 104.984 123.826 103.351 119.231 103.351C114.635 103.351 110.705 104.984 107.438 108.251C104.172 111.517 102.538 115.448 102.538 120.043C102.538 124.639 104.172 128.57 107.438 131.836C110.705 135.102 114.635 136.736 119.231 136.736C123.826 136.736 127.757 135.102 131.023 131.836C134.29 128.57 135.923 124.639 135.923 120.043ZM155 151.043C155 152.335 154.528 153.453 153.584 154.397C152.64 155.341 151.522 155.812 150.231 155.812C148.889 155.812 147.772 155.341 146.877 154.397L134.097 141.654C129.651 144.734 124.696 146.274 119.231 146.274C115.679 146.274 112.282 145.585 109.04 144.206C105.799 142.828 103.004 140.965 100.657 138.617C98.3095 136.27 96.4465 133.475 95.0679 130.234C93.6893 126.992 93 123.595 93 120.043C93 116.491 93.6893 113.094 95.0679 109.853C96.4465 106.611 98.3095 103.817 100.657 101.469C103.004 99.122 105.799 97.259 109.04 95.8804C112.282 94.5018 115.679 93.8125 119.231 93.8125C122.783 93.8125 126.18 94.5018 129.421 95.8804C132.663 97.259 135.457 99.122 137.805 101.469C140.152 103.817 142.015 106.611 143.394 109.853C144.772 113.094 145.462 116.491 145.462 120.043C145.462 125.508 143.921 130.464 140.841 134.91L153.621 147.69C154.54 148.609 155 149.727 155 151.043Z" fill="white"/>
</svg>
