<svg width="24" height="24" viewBox="0 0 24 24" fill="none" xmlns="http://www.w3.org/2000/svg">
<rect y="2.18164" width="24" height="21.8182" rx="4" fill="#2E2E42" fill-opacity="0.15"/>
<path d="M0 6.18164C0 3.9725 1.79086 2.18164 4 2.18164H20C22.2091 2.18164 24 3.9725 24 6.18164V8.7271H0V6.18164Z" fill="#2E2E42" fill-opacity="0.7"/>
<path fill-rule="evenodd" clip-rule="evenodd" d="M11.4537 10.9092C10.55 10.9092 9.81738 11.6418 9.81738 12.5455V14.1819H8.18129C7.27755 14.1819 6.54492 14.9145 6.54492 15.8183C6.54492 16.722 7.27755 17.4546 8.18129 17.4546H9.81738V19.091C9.81738 19.9947 10.55 20.7274 11.4537 20.7274C12.3575 20.7274 13.0901 19.9947 13.0901 19.091V17.4546H14.7267C15.6305 17.4546 16.3631 16.722 16.3631 15.8183C16.3631 14.9145 15.6305 14.1819 14.7267 14.1819H13.0901V12.5455C13.0901 11.6418 12.3575 10.9092 11.4537 10.9092Z" fill="#2E2E42" fill-opacity="0.7"/>
<rect x="5.4541" width="3.27273" height="5.45455" rx="1.63636" fill="#E0E0E3"/>
<rect x="15.2725" width="3.27273" height="5.45455" rx="1.63636" fill="#E0E0E3"/>
</svg>
