<svg width="22" height="22" viewBox="0 0 22 22" fill="none" xmlns="http://www.w3.org/2000/svg">
<path d="M21.7149 11.3564L11.816 0.348403C11.3991 -0.116134 10.5984 -0.116134 10.1815 0.348403L0.282651 11.3564C0.140169 11.5145 0.0466441 11.7105 0.0134494 11.9208C-0.0197454 12.1311 0.00881964 12.3465 0.0956714 12.5408C0.271652 12.9382 0.665408 13.1936 1.09986 13.1936H3.29961V20.8992C3.29961 21.1912 3.41549 21.4711 3.62176 21.6776C3.82803 21.884 4.10779 22 4.39949 22H17.598C17.8897 22 18.1695 21.884 18.3757 21.6776C18.582 21.4711 18.6979 21.1912 18.6979 20.8992V13.1936H20.8976C21.1107 13.1945 21.3193 13.1334 21.4982 13.0176C21.6771 12.9019 21.8185 12.7366 21.9051 12.5418C21.9918 12.3471 22.0199 12.1313 21.9861 11.9208C21.9523 11.7103 21.8581 11.5142 21.7149 11.3564ZM15.3983 14.2944H12.0986V17.5968H9.89888V14.2944H6.59925V12.0928H9.89888V8.79042H12.0986V12.0928H15.3983V14.2944Z" fill="white"/>
</svg>
